SplineFontDB: 3.2
FontName: AtkinsonHyperPro-Bold
FullName: Atkinson Hyperlegible Pro Bold
FamilyName: Atkinson Hyperlegible Pro
Weight: Bold
Copyright: Copyright 2020 Braille Institute of America, Inc.
UComments: "Update by Jacob Perez+AAoA-https://jacobxperez.github.io/atkinson-hyperlegible-pro/"
Version: 1.4.1
ItalicAngle: 0
UnderlinePosition: -106
UnderlineWidth: 57
Ascent: 800
Descent: 200
InvalidEm: 0
sfntRevision: 0x00010000
LayerCount: 2
Layer: 0 0 "Back" 1
Layer: 1 0 "Fore" 0
XUID: [1021 466 782043844 10191]
StyleMap: 0x0020
FSType: 0
OS2Version: 4
OS2_WeightWidthSlopeOnly: 0
OS2_UseTypoMetrics: 1
CreationTime: 1615339189
ModificationTime: 1700109405
PfmFamily: 81
TTFWeight: 700
TTFWidth: 5
LineGap: 0
VLineGap: 0
Panose: 0 0 0 0 0 0 0 0 0 0
OS2TypoAscent: 950
OS2TypoAOffset: 0
OS2TypoDescent: -290
OS2TypoDOffset: 0
OS2TypoLinegap: 0
OS2WinAscent: 950
OS2WinAOffset: 0
OS2WinDescent: 290
OS2WinDOffset: 0
HheadAscent: 950
HheadAOffset: 0
HheadDescent: -290
HheadDOffset: 0
OS2SubXSize: 650
OS2SubYSize: 699
OS2SubXOff: 0
OS2SubYOff: 140
OS2SupXSize: 650
OS2SupYSize: 699
OS2SupXOff: 0
OS2SupYOff: 479
OS2StrikeYSize: 49
OS2StrikeYPos: 258
OS2CapHeight: 668
OS2XHeight: 496
OS2Vendor: 'NONE'
OS2CodePages: 20000003.00000000
OS2UnicodeRanges: 800000ef.0000204b.00000000.00000000
Lookup: 4 0 1 "'liga' Standard Ligatures lookup 0" { "'liga' Standard Ligatures lookup 0-1"  } ['liga' ('DFLT' <'dflt' > 'grek' <'dflt' > 'latn' <'MOL ' 'dflt' > ) ]
Lookup: 1 0 0 "'zero' Slashed Zero lookup 0" { "'zero' Slashed Zero lookup 0-1"  } ['zero' ('DFLT' <'dflt' > 'grek' <'dflt' > 'latn' <'MOL ' 'dflt' > ) ]
Lookup: 1 0 0 "'aalt' Access All Alternates lookup 0" { "'aalt' Access All Alternates lookup 0 subtable"  } ['aalt' ('DFLT' <'dflt' > 'grek' <'dflt' > 'latn' <'dflt' > ) ]
Lookup: 3 0 0 "'aalt' Access All Alternates lookup 1" { "'aalt' Access All Alternates lookup 1 subtable"  } ['aalt' ('DFLT' <'dflt' > 'grek' <'dflt' > 'latn' <'dflt' > ) ]

StartChar: .notdef
Encoding: 1114112 -1 0
Width: 527
GlyphClass: 1
Flags: W
HStem: 0 21<79 449> 680 20<78 449>
VStem: 50 21<49 650> 457 20<47 652>
DStem2: 78 680 71 650 0.513698 -0.857971<22.1432 360.147 396.696 737.787> 71 49 79 21 0.513896 0.857853<0 339.381 374.897 715.649>
LayerCount: 2
Fore
SplineSet
79 21 m 1
 449 21 l 1
 264 329 l 1
 79 21 l 1
71 49 m 1
 251 350 l 1
 71 650 l 1
 71 49 l 1
457 47 m 1
 457 652 l 1
 276 350 l 1
 457 47 l 1
263 371 m 1
 449 680 l 1
 78 680 l 1
 263 371 l 1
50 0 m 1
 50 700 l 1
 477 700 l 1
 477 0 l 1
 50 0 l 1
EndSplineSet
EndChar

StartChar: zero
Encoding: 48 48 5
Width: 652
GlyphClass: 1
Flags: W
HStem: -12 113<266.583 395.279> 567 113<266.208 396.046>
VStem: 45 156<189.039 425.974> 461 157<247.509 482.84>
DStem2: 254 534 209 431 0.570817 -0.821077<58.8842 351.204>
LayerCount: 2
Fore
SplineSet
209 431 m 1
 203.602181379 400.772215724 201 369.546039172 201 335 c 0
 201 183.899984222 247.05554679 101 331 101 c 0
 363.645700074 101 390.768322201 113.724193096 412 139 c 1
 209 431 l 1
455 246 m 1
 459.020434261 272.132822695 461 301.166453538 461 334 c 0
 461 486.173124649 415.903460105 567 331 567 c 0
 300.833105022 567 274.884773446 555.879286467 254 534 c 1
 455 246 l 1
618 335 m 0
 618 114.975609129 512.979827608 -12 331 -12 c 0
 149.837141876 -12 45 115.197511297 45 335 c 0
 45 555.875890547 147.897087836 680 331 680 c 0
 514.923195968 680 618 556.092343586 618 335 c 0
EndSplineSet
Substitution2: "'zero' Slashed Zero lookup 0-1" zero.alt1
Substitution2: "'aalt' Access All Alternates lookup 0 subtable" zero.alt1
Substitution2: "'tnum' Tabular Numbers lookup 14 subtable" zero.tf
EndChar

StartChar: one
Encoding: 49 49 6
Width: 448
GlyphClass: 1
Flags: W
HStem: 0 21G<199 350> 448 123<47 179.622> 648 20G<218.941 350>
VStem: 199 151<0 448>
LayerCount: 2
Fore
SplineSet
47 571 m 1
 168.557259751 571 202.882726058 588.710479956 235 668 c 1
 350 668 l 1
 350 0 l 1
 199 0 l 1
 199 448 l 1
 47 448 l 1
 47 571 l 1
EndSplineSet
Substitution2: "'tnum' Tabular Numbers lookup 14 subtable" one.tf
Substitution2: "'sups' Superscript lookup 9 subtable" uni00B9
AlternateSubs2: "'aalt' Access All Alternates lookup 1 subtable" uni00B9 one.tf
EndChar

StartChar: two
Encoding: 50 50 7
Width: 586
GlyphClass: 1
Flags: W
HStem: 0 125<228 547> 567 113<234.23 364.98>
VStem: 391 153<418.078 539.465>
LayerCount: 2
Fore
SplineSet
59 535 m 1
 93.896948501 626.729121774 184.641134169 680 306 680 c 0
 451.620730768 680 544 604.31110294 544 485 c 0
 544 363.183470296 448.332114294 254.194739745 228 125 c 1
 547 125 l 1
 547 0 l 1
 34 0 l 1
 34 125 l 1
 304.747536041 316.528812532 391 404.230897735 391 488 c 0
 391 535.614804868 354.450152504 567 299 567 c 0
 245.535638516 567 208.897089937 537.545480554 197 485 c 1
 59 535 l 1
EndSplineSet
Substitution2: "'tnum' Tabular Numbers lookup 14 subtable" two.tf
Substitution2: "'sups' Superscript lookup 9 subtable" uni00B2
AlternateSubs2: "'aalt' Access All Alternates lookup 1 subtable" uni00B2 two.tf
EndChar

StartChar: three
Encoding: 51 51 8
Width: 605
GlyphClass: 1
Flags: W
HStem: -12 113<217.31 368.113> 291 106<211 337.721> 567 113<215.672 361.083>
VStem: 390 153<439.478 539.232> 398 156<129.981 246.275>
LayerCount: 2
Fore
SplineSet
554 195 m 0xe8
 554 70.8212376792 448.773016862 -12 291 -12 c 0
 164.677439548 -12 70.9033303466 43.24676201 33 140 c 1
 171 190 l 1
 186.068100033 132.741219875 230.291822106 101 295 101 c 0
 358.965521427 101 398 133.970870251 398 188 c 0xe8
 398 257.700863739 337.544286594 291 211 291 c 1
 211 397 l 1
 325.896761061 397 390 429.946916103 390 489 c 0
 390 536.125071757 348.833429009 567 286 567 c 0
 227.274082037 567 189.056395426 538.249079797 177 485 c 1
 40 535 l 1
 76.0296109216 627.075672355 169.103428504 680 295 680 c 0
 442.82663278 680 543 610.120997866 543 507 c 0xf0
 543 445 507 385 450 352 c 1
 510.185197195 329.932094362 554 263.788593974 554 195 c 0xe8
EndSplineSet
Substitution2: "'tnum' Tabular Numbers lookup 14 subtable" three.tf
Substitution2: "'sups' Superscript lookup 9 subtable" uni00B3
AlternateSubs2: "'aalt' Access All Alternates lookup 1 subtable" uni00B3 three.tf
EndChar

StartChar: four
Encoding: 52 52 9
Width: 626
GlyphClass: 1
Flags: W
HStem: 0 21G<348 500> 141 134<188 348 500 592> 648 20G<332.375 500>
VStem: 348 152<0 141 275 469>
DStem2: 23 252 188 275 0.615644 0.788024<119.706 371.086>
LayerCount: 2
Fore
SplineSet
188 275 m 1
 348 275 l 1
 348 469 l 1
 188 275 l 1
348 0 m 1
 348 141 l 1
 23 141 l 1
 23 252 l 1
 348 668 l 1
 500 668 l 1
 500 275 l 1
 592 275 l 1
 592 141 l 1
 500 141 l 1
 500 0 l 1
 348 0 l 1
EndSplineSet
Substitution2: "'tnum' Tabular Numbers lookup 14 subtable" four.tf
Substitution2: "'sups' Superscript lookup 9 subtable" uni2074
AlternateSubs2: "'aalt' Access All Alternates lookup 1 subtable" four.tf uni2074
EndChar

StartChar: five
Encoding: 53 53 10
Width: 612
GlyphClass: 1
Flags: W
HStem: -12 113<214.691 361.258> 341 113<221.03 363.312> 544 124<213 534>
VStem: 408 157<146.847 294.995>
LayerCount: 2
Fore
SplineSet
565 221 m 0
 565 82.0314799662 456.036482443 -12 295 -12 c 0
 175.258147925 -12 83.0908339352 42.7923795767 41 139 c 1
 173 187 l 1
 188.925116142 130.266773744 227.720606918 101 287 101 c 0
 361.808443196 101 408 146.809808401 408 221 c 0
 408 295.118686497 362.883375055 341 290 341 c 0
 241.115317073 341 204.056815573 319.101794568 180 276 c 1
 45 326 l 1
 87 668 l 1
 534 668 l 1
 534 544 l 1
 213 544 l 1
 198 419 l 1
 225.784140381 439.838105286 279.599340295 454 331 454 c 0
 469.796200461 454 565 359.203054305 565 221 c 0
EndSplineSet
Substitution2: "'tnum' Tabular Numbers lookup 14 subtable" five.tf
Substitution2: "'aalt' Access All Alternates lookup 0 subtable" five.tf
EndChar

StartChar: six
Encoding: 54 54 11
Width: 632
GlyphClass: 1
Flags: W
HStem: -12 113<255.715 383.445> 338 114<252.739 383.901> 570 110<265.765 395.607>
VStem: 51 161<154.633 379.092 403 462.511> 425 153<142.597 295.604>
LayerCount: 2
Fore
SplineSet
212 220 m 0
 212 147.638495257 254.327373847 101 320 101 c 0
 384.033902241 101 425 147.038090815 425 219 c 0
 425 291.985849663 384.012605582 338 319 338 c 0
 253.855862487 338 212 291.841198379 212 220 c 0
578 227 m 0
 578 87.7528281789 470.734406519 -12 321 -12 c 0
 144.198059175 -12 51 97.7666030286 51 306 c 0
 51 538.470803018 160.363470395 680 340 680 c 0
 435.247576637 680 507.095805619 645.836871513 544 583 c 1
 408 534 l 1
 394.937433754 556.105881339 364.833509989 570 330 570 c 0
 253.056876304 570 210 510.079180476 210 403 c 1
 246.207409937 436.190125776 292.346430632 452 353 452 c 0
 482 452 578 356 578 227 c 0
EndSplineSet
Substitution2: "'tnum' Tabular Numbers lookup 14 subtable" six.tf
Substitution2: "'aalt' Access All Alternates lookup 0 subtable" six.tf
EndChar

StartChar: seven
Encoding: 55 55 12
Width: 543
GlyphClass: 1
Flags: W
HStem: 0 21G<83 267.466> 543 125<15 354>
LayerCount: 2
Fore
SplineSet
83 0 m 1
 354 543 l 1
 15 543 l 1
 15 668 l 1
 515 668 l 1
 515 543 l 1
 258 0 l 1
 83 0 l 1
EndSplineSet
Substitution2: "'tnum' Tabular Numbers lookup 14 subtable" seven.tf
Substitution2: "'aalt' Access All Alternates lookup 0 subtable" seven.tf
EndChar

StartChar: eight
Encoding: 56 56 13
Width: 625
GlyphClass: 1
Flags: W
HStem: -12 126<236.276 388.908> 294 123<263.89 361.48> 555 125<263.194 362.279>
VStem: 38 157<151.377 260.155> 120 124<435.844 533.934> 380 125<435.027 537.194> 430 157<152.166 261.335>
LayerCount: 2
Fore
SplineSet
195 206 m 0xf2
 195 151.211690713 242.728038089 114 313 114 c 0
 381.337299205 114 430 152.264687805 430 206 c 0
 430 260.076947343 384.897759535 294 313 294 c 0
 240.295187259 294 195 260.220538316 195 206 c 0xf2
244 486 m 0xec
 244 448 275 417 313 417 c 0
 349.949288618 417 380 447.947747542 380 486 c 0
 380 525.568115832 351.421213924 555 313 555 c 0
 275 555 244 524 244 486 c 0xec
587 206 m 0xe2
 587 73.0656863107 480.082577756 -12 313 -12 c 0
 144.867556949 -12 38 73.1054362612 38 207 c 0xf2
 38 282.894777152 70.8874569186 331.937476066 152 377 c 1
 130.776012367 411.362646644 120 448.405189156 120 487 c 0
 120 598 202 680 313 680 c 0
 423.712586527 680 505 598.289214582 505 487 c 0xec
 505 447.166491228 494.092534277 411.138801415 472 378 c 1
 552.921397916 333.043667824 587 282.073932534 587 206 c 0xe2
EndSplineSet
Substitution2: "'tnum' Tabular Numbers lookup 14 subtable" eight.tf
Substitution2: "'aalt' Access All Alternates lookup 0 subtable" eight.tf
EndChar

StartChar: nine
Encoding: 57 57 14
Width: 561
GlyphClass: 1
Flags: W
HStem: 0 21G<170 353> 202 133<214.595 278> 544 135<213.212 341.297>
VStem: 38 135<375.818 505.888> 382 134<379.438 504.731>
LayerCount: 2
Fore
SplineSet
382 445 m 0
 382 500.757216894 335.262850582 544 275 544 c 0
 216.076902684 544 173 500.078452166 173 440 c 0
 173 380 218 335 278 335 c 0
 334.863697881 335 382 384.855704164 382 445 c 0
275 679 m 0
 408.277193414 679 516 571.724176014 516 439 c 0
 516 400.498159032 506.330158531 365.686729745 481 313 c 0
 428 201 376 95 330 0 c 1
 170 0 l 1
 203.708160098 57.7854173111 237.412623555 120.825247111 278 202 c 1
 267 202 l 1
 138.31734364 207.985239831 38 312.683253499 38 441 c 0
 38 573.278593824 143.277198587 679 275 679 c 0
EndSplineSet
Substitution2: "'tnum' Tabular Numbers lookup 14 subtable" nine.tf
Substitution2: "'aalt' Access All Alternates lookup 0 subtable" nine.tf
EndChar

StartChar: A
Encoding: 65 65 15
Width: 690
GlyphClass: 2
Flags: W
HStem: 0 21G<5 183.723 506.277 685> 119 128<260 430> 648 20G<250.425 439.575>
DStem2: 5 0 177 0 0.35419 0.935173<60.9207 186.374 321.306 484.629> 432 668 344 501 0.35419 -0.935173<125.005 393> 685 0 473 119 0.35419 -0.935173<-558.903 -321.306 -186.374 -60.9207>
AnchorPoint: "Anchor-2" 685 0 basechar 0
AnchorPoint: "Anchor-1" 345 0 basechar 0
AnchorPoint: "Anchor-0" 345 668 basechar 0
LayerCount: 2
Fore
SplineSet
260 247 m 1
 430 247 l 1
 344 501 l 1
 260 247 l 1
5 0 m 1
 258 668 l 1
 432 668 l 1
 685 0 l 1
 513 0 l 1
 473 119 l 1
 217 119 l 1
 177 0 l 1
 5 0 l 1
EndSplineSet
Substitution2: "Single Substitution lookup 12 subtable" ordfeminine
Substitution2: "'aalt' Access All Alternates lookup 0 subtable" ordfeminine
EndChar

StartChar: B
Encoding: 66 66 16
Width: 639
GlyphClass: 1
Flags: W
HStem: 0 131<202 424.71> 282 122<202 407.095> 539 129<202 404.207>
VStem: 44 158<131 282 404 539> 426 164<423.996 520.588> 450 167<156.069 258.041>
AnchorPoint: "Anchor-1" 284 0 basechar 0
AnchorPoint: "Anchor-0" 286 668 basechar 0
LayerCount: 2
Fore
SplineSet
450 207 m 0xf4
 450 255.265050253 413.640468344 282 348 282 c 2
 202 282 l 1
 202 131 l 1
 348 131 l 2
 413.881629714 131 450 157.91172688 450 207 c 0xf4
426 472 m 0xf8
 426 514.282787554 394.64234242 539 341 539 c 2
 202 539 l 1
 202 404 l 1
 341 404 l 2
 393.750266525 404 426 429.79978678 426 472 c 0xf8
617 206 m 0xf4
 617 68.8332827977 526.781619634 0 347 0 c 2
 44 0 l 1
 44 668 l 1
 336 668 l 2
 511.086218058 668 590 613.940952528 590 494 c 0xf8
 590 433.752918007 562.788033653 385.873635447 511 355 c 1
 580.8137159 331.063868834 617 280.198243071 617 206 c 0xf4
EndSplineSet
EndChar

StartChar: C
Encoding: 67 67 17
Width: 673
GlyphClass: 2
Flags: W
HStem: -12 130<292.154 458.906> 550 130<289.746 454.217>
VStem: 35 167<221.586 445.212>
AnchorPoint: "Anchor-1" 357 0 basechar 0
AnchorPoint: "Anchor-0" 357 668 basechar 0
LayerCount: 2
Fore
SplineSet
651 142 m 1
 596.100395516 44.1788865551 493.227369486 -12 369 -12 c 0
 161.228267063 -12 35 118.763414382 35 334 c 0
 35 545.949706777 165.950864478 680 373 680 c 0
 495.003225826 680 594.001401292 623.997382492 647 525 c 1
 507 474 l 1
 481.126224456 522.762115449 431.309567184 550 368 550 c 0
 268.930545204 550 202 462.909652024 202 334 c 0
 202 202.428265743 267.666428911 118 370 118 c 0
 434.940013061 118 485.975950376 144.955600694 512 193 c 1
 651 142 l 1
EndSplineSet
EndChar

StartChar: D
Encoding: 68 68 18
Width: 686
GlyphClass: 2
Flags: W
HStem: 0 133<202 395.777> 537 131<202 392.017>
VStem: 44 158<133 537> 488 163<220.026 448.202>
AnchorPoint: "Anchor-1" 343 0 basechar 0
AnchorPoint: "Anchor-0" 326 668 basechar 0
LayerCount: 2
Fore
SplineSet
488 334 m 0
 488 477.147099961 422.839946263 537 267 537 c 2
 202 537 l 1
 202 133 l 1
 267 133 l 2
 424.114450841 133 488 191.104051497 488 334 c 0
651 334 m 0
 651 110.735063252 522.693205154 0 264 0 c 2
 44 0 l 1
 44 668 l 1
 264 668 l 2
 522.193149923 668 651 556.833364533 651 334 c 0
EndSplineSet
EndChar

StartChar: E
Encoding: 69 69 19
Width: 580
GlyphClass: 2
Flags: W
HStem: 0 139<202 558> 274 139<202 419> 529 139<202 558>
VStem: 44 158<139 274 413 529>
AnchorPoint: "Anchor-2" 522 0 basechar 0
AnchorPoint: "Anchor-1" 290 0 basechar 0
AnchorPoint: "Anchor-0" 303 668 basechar 0
LayerCount: 2
Fore
SplineSet
44 0 m 1
 44 668 l 1
 558 668 l 1
 558 529 l 1
 202 529 l 1
 202 413 l 1
 419 413 l 1
 419 274 l 1
 202 274 l 1
 202 139 l 1
 558 139 l 1
 558 0 l 1
 44 0 l 1
EndSplineSet
EndChar

StartChar: F
Encoding: 70 70 20
Width: 544
GlyphClass: 1
Flags: W
HStem: 0 21G<44 202> 274 139<202 522> 529 139<202 522>
VStem: 44 158<0 274 413 529>
AnchorPoint: "Anchor-0" 273 668 basechar 0
LayerCount: 2
Fore
SplineSet
44 0 m 1
 44 668 l 1
 522 668 l 1
 522 529 l 1
 202 529 l 1
 202 413 l 1
 522 413 l 1
 522 274 l 1
 202 274 l 1
 202 0 l 1
 44 0 l 1
EndSplineSet
EndChar

StartChar: G
Encoding: 71 71 21
Width: 719
GlyphClass: 2
Flags: W
HStem: -12 130<291.066 473.09> 0 21G<573.054 683> 250 128<375 525> 550 130<291.698 461.706>
VStem: 35 167<222.557 446.544> 525 158<166.229 250>
AnchorPoint: "Anchor-1" 350 0 basechar 0
AnchorPoint: "Anchor-0" 370 668 basechar 0
LayerCount: 2
Fore
SplineSet
376 118 m 0xbc
 469.809823158 118 525 159.85563747 525 231 c 2
 525 250 l 1
 375 250 l 1
 375 378 l 1
 683 378 l 1
 683 0 l 1
 579 0 l 1x7c
 557 74 l 1
 513.738494061 16.6533525929 445.436897764 -12 352 -12 c 0
 157.031608058 -12 35 121.965298435 35 336 c 0
 35 544.211811439 169.209256136 680 375 680 c 0
 496.242868945 680 592.103857587 630.822243745 644 542 c 1
 508 486 l 1
 483.098383991 526.838650255 434.242411872 550 373 550 c 0
 268.660973485 550 202 466.57632558 202 336 c 0
 202 200.344629637 267.724612646 118 376 118 c 0xbc
EndSplineSet
EndChar

StartChar: H
Encoding: 72 72 22
Width: 679
GlyphClass: 2
Flags: W
HStem: 0 21G<44 202 477 635> 274 139<202 477> 648 20G<44 202 477 635>
VStem: 44 158<0 274 413 668> 477 158<0 274 413 668>
AnchorPoint: "Anchor-1" 340 0 basechar 0
AnchorPoint: "Anchor-0" 340 668 basechar 0
LayerCount: 2
Fore
SplineSet
44 0 m 1
 44 668 l 1
 202 668 l 1
 202 413 l 1
 477 413 l 1
 477 668 l 1
 635 668 l 1
 635 0 l 1
 477 0 l 1
 477 274 l 1
 202 274 l 1
 202 0 l 1
 44 0 l 1
EndSplineSet
EndChar

StartChar: I
Encoding: 73 73 23
Width: 458
GlyphClass: 2
Flags: W
HStem: 0 124<57 151 309 401> 544 124<57 151 309 401>
VStem: 57 344<0 124 544 668>
AnchorPoint: "Anchor-2" 331 0 basechar 0
AnchorPoint: "Anchor-1" 229 0 basechar 0
AnchorPoint: "Anchor-0" 231 668 basechar 0
LayerCount: 2
Fore
SplineSet
57 0 m 1
 57 124 l 1
 151 124 l 1
 151 544 l 1
 57 544 l 1
 57 668 l 1
 401 668 l 1
 401 544 l 1
 309 544 l 1
 309 124 l 1
 401 124 l 1
 401 0 l 1
 57 0 l 1
EndSplineSet
EndChar

StartChar: J
Encoding: 74 74 24
Width: 560
GlyphClass: 1
Flags: W
HStem: -12 125<199.88 321.022> 648 20G<358 516>
VStem: 358 158<154.549 668>
AnchorPoint: "Anchor-0" 441 668 basechar 0
LayerCount: 2
Fore
SplineSet
516 256 m 2
 516 84.7604577951 421.766867595 -12 255 -12 c 0
 123.117621929 -12 35.0267914357 53.8919412092 5 175 c 1
 150 228 l 1
 166.067521209 153.68771441 203.217173496 113 255 113 c 0
 326.654292101 113 358 156.518798345 358 256 c 2
 358 668 l 1
 516 668 l 1
 516 256 l 2
EndSplineSet
EndChar

StartChar: K
Encoding: 75 75 25
Width: 659
GlyphClass: 2
Flags: W
HStem: 0 21G<44 202 451.588 649> 648 20G<44 202 424.811 636>
VStem: 44 158<0 197 403 668> 443 193<475 668> 466 183<0 183>
DStem2: 202 403 372 382 0.677631 0.735402<99.7539 358.191> 372 382 270 272 0.587037 -0.80956<29.1738 364.433>
AnchorPoint: "Anchor-1" 319 0 basechar 0
AnchorPoint: "Anchor-0" 330 668 basechar 0
LayerCount: 2
Fore
SplineSet
44 0 m 1xe8
 44 668 l 1
 202 668 l 1
 202 403 l 1
 443 668 l 1
 636 668 l 1xf0
 372 382 l 1
 649 0 l 1
 466 0 l 1
 270 272 l 1
 202 197 l 1
 202 0 l 1
 44 0 l 1xe8
EndSplineSet
EndChar

StartChar: L
Encoding: 76 76 26
Width: 537
GlyphClass: 2
Flags: W
HStem: 0 139<202 522> 648 20G<44 202>
VStem: 44 158<139 668>
AnchorPoint: "Anchor-1" 269 0 basechar 0
AnchorPoint: "Anchor-0" 127 668 basechar 0
LayerCount: 2
Fore
SplineSet
44 0 m 1
 44 668 l 1
 202 668 l 1
 202 139 l 1
 522 139 l 1
 522 0 l 1
 44 0 l 1
EndSplineSet
EndChar

StartChar: M
Encoding: 77 77 27
Width: 842
GlyphClass: 1
Flags: W
HStem: 0 21G<44 197 348.981 491.057 644 798> 648 20G<44 286.804 555.113 798>
VStem: 44 153<0 525> 644 154<0 525>
DStem2: 281 668 197 525 0.288184 -0.957575<112.726 498.736> 420 189 485 0 0.289856 0.95707<0 386.503>
AnchorPoint: "Anchor-0" 420 668 basechar 0
LayerCount: 2
Fore
SplineSet
44 0 m 1
 44 668 l 1
 281 668 l 1
 420 189 l 1
 561 668 l 1
 798 668 l 1
 798 0 l 1
 644 0 l 1
 644 525 l 1
 485 0 l 1
 355 0 l 1
 197 525 l 1
 197 0 l 1
 44 0 l 1
EndSplineSet
EndChar

StartChar: N
Encoding: 78 78 28
Width: 700
GlyphClass: 2
Flags: W
HStem: 0 21G<44 196 443.16 656> 648 20G<44 255.84 503 656>
VStem: 44 152<0 476> 503 153<192 668>
DStem2: 245 668 196 476 0.476521 -0.879163<145.45 541.424>
AnchorPoint: "Anchor-1" 322 0 basechar 0
AnchorPoint: "Anchor-0" 365 668 basechar 0
LayerCount: 2
Fore
SplineSet
44 0 m 1
 44 668 l 1
 245 668 l 1
 503 192 l 1
 503 668 l 1
 656 668 l 1
 656 0 l 1
 454 0 l 1
 196 476 l 1
 196 0 l 1
 44 0 l 1
EndSplineSet
EndChar

StartChar: O
Encoding: 79 79 29
Width: 764
GlyphClass: 2
Flags: W
HStem: -12 130<296.724 465.783> 550 130<296.724 465.783>
VStem: 35 167<223.429 444.571> 561 168<223.394 444.606>
AnchorPoint: "Anchor-2" 481 0 basechar 0
AnchorPoint: "Anchor-1" 382 0 basechar 0
AnchorPoint: "Anchor-0" 382 668 basechar 0
LayerCount: 2
Fore
SplineSet
202 334 m 0
 202 203.837945347 273.134223228 118 381 118 c 0
 489.66688771 118 561 203.599734748 561 334 c 0
 561 464.400265252 489.66688771 550 381 550 c 0
 273.134223228 550 202 464.162054653 202 334 c 0
729 334 m 0
 729 127.097691311 589.098275792 -12 381 -12 c 0
 174 -12 35 127 35 334 c 0
 35 541 174 680 381 680 c 0
 589.098275792 680 729 540.902308689 729 334 c 0
EndSplineSet
Substitution2: "Single Substitution lookup 12 subtable" ordmasculine
Substitution2: "'aalt' Access All Alternates lookup 0 subtable" ordmasculine
EndChar

StartChar: P
Encoding: 80 80 30
Width: 626
GlyphClass: 1
Flags: W
HStem: 0 21G<44 202> 232 131<202 405.502> 535 133<202 406.92>
VStem: 44 158<0 232 363 535> 437 167<394.992 505.335>
AnchorPoint: "Anchor-0" 292 668 basechar 0
LayerCount: 2
Fore
SplineSet
437 450 m 0
 437 509.847434046 398.235457177 535 306 535 c 2
 202 535 l 1
 202 363 l 1
 306 363 l 2
 396.672726973 363 437 389.782234758 437 450 c 0
604 450 m 0
 604 298.955442061 510.938078236 232 301 232 c 2
 202 232 l 1
 202 0 l 1
 44 0 l 1
 44 668 l 1
 301 668 l 2
 510.938078236 668 604 601.044557939 604 450 c 0
EndSplineSet
EndChar

StartChar: Q
Encoding: 81 81 31
Width: 781
GlyphClass: 1
Flags: W
HStem: -12 130<296.724 464.996> 550 130<296.724 465.783>
VStem: 35 167<223.429 444.571> 561 168<252.93 444.606>
DStem2: 421 372 338 285 0.727013 -0.686624<0 176.866 342.495 493.803>
LayerCount: 2
Fore
SplineSet
202 334 m 0
 202 203.837945347 273.134223228 118 381 118 c 0
 419.371873004 118 452.277007635 128.200591736 481 149 c 1
 338 285 l 1
 421 372 l 1
 550 251 l 1
 557.634764186 273.904292557 561 299.296526429 561 334 c 0
 561 464.400265252 489.66688771 550 381 550 c 0
 273.134223228 550 202 464.162054653 202 334 c 0
729 334 m 0
 729 260.372264822 710.183399268 192.290382175 674 135 c 1
 781 34 l 1
 698 -55 l 1
 589 48 l 1
 532.232416143 8.163099048 462.333672777 -12 381 -12 c 0
 174 -12 35 127 35 334 c 0
 35 541 174 680 381 680 c 0
 589.098275792 680 729 540.902308689 729 334 c 0
EndSplineSet
EndChar

StartChar: R
Encoding: 82 82 32
Width: 654
GlyphClass: 2
Flags: W
HStem: 0 21G<44 202 439.635 637> 252 132<202 273> 535 133<202 407.089>
VStem: 44 158<0 252 384 535> 437 167<409.527 507.981> 454 183<0 183>
DStem2: 443 269 273 252 0.58494 -0.811077<0 224.614>
AnchorPoint: "Anchor-1" 327 0 basechar 0
AnchorPoint: "Anchor-0" 307 668 basechar 0
LayerCount: 2
Fore
SplineSet
202 384 m 1xf8
 306 384 l 2
 397.414342143 384 437 406.663544575 437 459 c 0
 437 512.18719989 397.677936652 535 306 535 c 2
 202 535 l 1
 202 384 l 1xf8
604 461 m 0
 604 363.891274962 547.882634601 296.96870256 443 269 c 1
 637 0 l 1
 454 0 l 1xf4
 273 252 l 1
 202 252 l 1
 202 0 l 1
 44 0 l 1
 44 668 l 1
 301 668 l 2
 511.391497871 668 604 604.732805476 604 461 c 0
EndSplineSet
EndChar

StartChar: S
Encoding: 83 83 33
Width: 619
GlyphClass: 2
Flags: W
HStem: -12 127<225.074 406.184> 553 127<214.461 383.427>
VStem: 28 162<446.112 528.595> 434 162<141.427 229.275>
DStem2: 266 421 231 285 0.980581 -0.196116<-67.5448 186.323>
AnchorPoint: "Anchor-1" 329 0 basechar 0
AnchorPoint: "Anchor-0" 304 668 basechar 0
LayerCount: 2
Fore
SplineSet
596 209 m 0
 596 83.3048175236 474.389327866 -12 314 -12 c 0
 169.801710428 -12 66.9423619793 48.149584387 25 157 c 1
 169 209 l 1
 187.029953751 147.898490067 238.127608536 115 315 115 c 0
 389.400488998 115 434 141.235006472 434 185 c 0
 434 227.073803744 394.854791271 254.026242541 312 269 c 1
 231 285 l 2
 97.0679738514 311.986303776 28 375.950732762 28 473 c 0
 28 594.210322837 145.287336411 680 311 680 c 0
 434.831087302 680 529.949429292 626.124376607 567 535 c 1
 424 483 l 1
 407.084431072 527.776505986 361.321806219 553 297 553 c 0
 231.397902613 553 190 528.238637689 190 489 c 0
 190 456.973679377 219.038580761 430.991791327 266 421 c 2
 356 403 l 1
 526.817231529 370.035271108 596 314.112533261 596 209 c 0
EndSplineSet
EndChar

StartChar: T
Encoding: 84 84 34
Width: 617
GlyphClass: 2
Flags: W
HStem: 0 21G<230 387> 529 139<15 230 387 602>
VStem: 230 157<0 529>
AnchorPoint: "Anchor-1" 309 0 basechar 0
AnchorPoint: "Anchor-0" 309 668 basechar 0
LayerCount: 2
Fore
SplineSet
230 0 m 1
 230 529 l 1
 15 529 l 1
 15 668 l 1
 602 668 l 1
 602 529 l 1
 387 529 l 1
 387 0 l 1
 230 0 l 1
EndSplineSet
EndChar

StartChar: U
Encoding: 85 85 35
Width: 663
GlyphClass: 2
Flags: W
HStem: -12 129<250.154 413.255> 648 20G<44 202 461 619>
VStem: 44 158<169.575 668> 461 158<169.839 668>
AnchorPoint: "Anchor-2" 440 0 basechar 0
AnchorPoint: "Anchor-1" 332 0 basechar 0
AnchorPoint: "Anchor-0" 332 668 basechar 0
LayerCount: 2
Fore
SplineSet
619 292 m 2
 619 80.0766476345 532.072375424 -12 332 -12 c 0
 130.605055183 -12 44 79.4164471373 44 292 c 2
 44 668 l 1
 202 668 l 1
 202 279 l 2
 202 160.30746174 236.752901396 117 332 117 c 0
 426.380070036 117 461 160.476191118 461 279 c 2
 461 668 l 1
 619 668 l 1
 619 292 l 2
EndSplineSet
EndChar

StartChar: V
Encoding: 86 86 36
Width: 656
GlyphClass: 1
Flags: W
HStem: 0 21G<229.234 425.796> 648 20G<10 180.232 474.727 646>
VStem: 10 164<504 668> 481 165<503 668>
DStem2: 174 668 10 668 0.320479 -0.947256<0 514.136> 327 177 419 0 0.32175 0.946825<0 514.44>
LayerCount: 2
Fore
SplineSet
236 0 m 1
 10 668 l 1
 174 668 l 1
 327 177 l 1
 481 668 l 1
 646 668 l 1
 419 0 l 1
 236 0 l 1
EndSplineSet
EndChar

StartChar: W
Encoding: 87 87 37
Width: 883
GlyphClass: 1
Flags: W
HStem: 0 21G<166.18 344.298 538.66 716.82> 648 20G<10 172.017 354.767 527.276 710.983 873>
VStem: 10 158<510 668> 715 158<510 668>
DStem2: 261 205 340 0 0.210097 0.97768<0 296.903> 523 668 441 470 0.212084 -0.977251<176.105 473.464>
AnchorPoint: "Anchor-0" 441 668 basechar 0
LayerCount: 2
Fore
SplineSet
171 0 m 1
 10 668 l 1
 168 668 l 1
 261 205 l 1
 359 668 l 1
 523 668 l 1
 622 205 l 1
 715 668 l 1
 873 668 l 1
 712 0 l 1
 543 0 l 1
 441 470 l 1
 340 0 l 1
 171 0 l 1
EndSplineSet
EndChar

StartChar: X
Encoding: 88 88 38
Width: 699
GlyphClass: 1
Flags: W
HStem: 0 21G<10 214.123 484.782 689> 648 20G<24 227.167 471.729 675>
VStem: 10 190<0 190> 24 189<479 668> 486 189<479 668> 499 190<0 190>
DStem2: 10 0 200 0 0.580315 0.814392<110.26 368.564 584.377 820.244> 213 668 24 668 0.580315 -0.814392<0 235.286 451.1 709.984>
AnchorPoint: "Anchor-1" 349 0 basechar 0
AnchorPoint: "Anchor-0" 349 668 basechar 0
LayerCount: 2
Fore
SplineSet
10 0 m 1xe4
 255 343 l 1
 24 668 l 1
 213 668 l 1
 349 476 l 1
 486 668 l 1
 675 668 l 1xd8
 444 343 l 1
 689 0 l 1
 499 0 l 1
 349 211 l 1
 200 0 l 1
 10 0 l 1xe4
EndSplineSet
EndChar

StartChar: Y
Encoding: 89 89 39
Width: 687
GlyphClass: 2
Flags: W
HStem: 0 21G<265 422> 648 20G<10 205.595 480.405 677>
VStem: 10 184<484 668> 265 157<0 260> 492 185<483 668>
DStem2: 194 668 10 668 0.529999 -0.847998<0 296.905> 343 411 422 260 0.529999 0.847998<0 296.905>
AnchorPoint: "Anchor-1" 344 0 basechar 0
AnchorPoint: "Anchor-0" 344 668 basechar 0
LayerCount: 2
Fore
SplineSet
265 0 m 1
 265 260 l 1
 10 668 l 1
 194 668 l 1
 343 411 l 1
 492 668 l 1
 677 668 l 1
 422 260 l 1
 422 0 l 1
 265 0 l 1
EndSplineSet
EndChar

StartChar: Z
Encoding: 90 90 40
Width: 621
GlyphClass: 2
Flags: W
HStem: 0 139<240 589> 529 139<47 369>
DStem2: 32 121 240 139 0.636833 0.771002<146.339 529.181>
AnchorPoint: "Anchor-1" 311 0 basechar 0
AnchorPoint: "Anchor-0" 311 668 basechar 0
LayerCount: 2
Fore
SplineSet
32 0 m 1
 32 121 l 1
 369 529 l 1
 47 529 l 1
 47 668 l 1
 574 668 l 1
 574 547 l 1
 240 139 l 1
 589 139 l 1
 589 0 l 1
 32 0 l 1
EndSplineSet
EndChar

StartChar: a
Encoding: 97 97 41
Width: 553
GlyphClass: 2
Flags: W
HStem: -12 104<144.246 300.562> 0 21G<373 520> 220 90<230.657 353> 407 103<206.857 332.224>
VStem: 24 157<106.485 184.392> 356 147<127.147 220 309.175 385.275>
AnchorPoint: "Anchor-2" 520 0 basechar 0
AnchorPoint: "Anchor-1" 277 0 basechar 0
AnchorPoint: "Anchor-0" 285 496 basechar 0
LayerCount: 2
Fore
SplineSet
181 145 m 0xbc
 181 113.978568366 210.028297843 92 251 92 c 0
 322.754528664 92 356 128.728330238 356 208 c 2
 356 220 l 1
 225.574752409 207.960746376 181 188.857281058 181 145 c 0xbc
361 60 m 1
 325.690947718 11.5761568704 271.334808267 -12 195 -12 c 0xbc
 95.2225004537 -12 24 48.8098541885 24 134 c 0
 24 239.752435069 123.461980049 292.960059654 353 310 c 1
 353 382.729218648 332.232218019 407 270 407 c 0
 224.804886359 407 193.957101213 385.836984609 184 348 c 1
 56 394 l 1
 91.8563639107 466.70873793 176.572885375 510 283 510 c 0
 433.958940115 510 503 445.038639108 503 303 c 2
 503 194 l 2
 503 123.938491209 509.863441281 45.614514234 520 0 c 1
 379 0 l 1x7c
 361 60 l 1
EndSplineSet
Substitution2: "Single Substitution lookup 12 subtable" ordfeminine
Substitution2: "'aalt' Access All Alternates lookup 0 subtable" ordfeminine
EndChar

StartChar: b
Encoding: 98 98 42
Width: 596
GlyphClass: 1
Flags: W
HStem: -12 118<263.771 365.357> 0 21G<50 188.672> 392 118<267.057 365.652> 648 20G<50 202>
VStem: 50 152<428 668> 50 145<155.628 342.161> 414 158<162.298 340.727>
AnchorPoint: "Anchor-1" 353 0 basechar 0
AnchorPoint: "Anchor-0" 355 496 basechar 0
LayerCount: 2
Fore
SplineSet
305 392 m 0xb6
 235.384123548 392 195 339.500639387 195 249 c 0
 195 158 235 106 305 106 c 0
 369.10277402 106 414 166.137568744 414 252 c 0
 414 335.743287382 370.20013089 392 305 392 c 0xb6
572 252 m 0
 572 92.9383510145 484.948867908 -12 353 -12 c 0
 289.12652739 -12 230.055623791 18.904644929 202 67 c 1xba
 183 0 l 1
 50 0 l 1x76
 50 668 l 1
 202 668 l 1
 202 428 l 1x7a
 231.18217969 477.307820855 291.38363153 510 353 510 c 0
 486.133750257 510 572 408.842500302 572 252 c 0
EndSplineSet
EndChar

StartChar: c
Encoding: 99 99 43
Width: 520
GlyphClass: 2
Flags: W
HStem: -12 118<225.696 353.602> 392 118<223.003 349.494>
VStem: 24 155<156.686 342.047>
AnchorPoint: "Anchor-1" 275 0 basechar 0
AnchorPoint: "Anchor-0" 280 496 basechar 0
LayerCount: 2
Fore
SplineSet
500 108 m 1
 456.881018267 30.7869396866 377.725179846 -12 278 -12 c 0
 120.288854189 -12 24 87.7006639828 24 251 c 0
 24 407.00590556 125.005791459 510 278 510 c 0
 383.369537938 510 463.136071778 463.706922325 502 380 c 1
 375 334 l 1
 360.944654445 372.15022365 330.827752397 392 287 392 c 0
 218.774476059 392 179 339.703929626 179 250 c 0
 179 159.166596224 218.874947168 106 287 106 c 0
 327.851198155 106 357.934075463 121.886463298 376 153 c 1
 500 108 l 1
EndSplineSet
EndChar

StartChar: d
Encoding: 100 100 44
Width: 596
GlyphClass: 2
Flags: W
HStem: -12 118<230.736 332.898> 0 21G<412.03 563> 392 118<230.524 329.488> 648 20G<394 546>
VStem: 24 158<162.132 340.781> 394 152<428 668> 401 145<154.216 342.06>
AnchorPoint: "Anchor-1" 243 0 basechar 0
AnchorPoint: "Anchor-0" 240 496 basechar 0
LayerCount: 2
Fore
SplineSet
182 252 m 0xba
 182 165.363314419 226.725784836 106 292 106 c 0
 361.18192925 106 401 158.238386397 401 249 c 0
 401 339.261642525 360.800832414 392 292 392 c 0
 226 392 182 336 182 252 c 0xba
398 67 m 1
 361.018564621 16.0255890719 306.031649353 -12 243 -12 c 0
 111.051132092 -12 24 92.9383510145 24 252 c 0
 24 408.842500302 109.866249743 510 243 510 c 0
 305.537582726 510 365.246254501 477.575423275 394 428 c 1
 394 668 l 1
 546 668 l 1xbc
 546 194 l 2
 546 129.235088596 551.959855577 61.2226190756 563 0 c 1
 418 0 l 1x7a
 398 67 l 1
EndSplineSet
EndChar

StartChar: e
Encoding: 101 101 45
Width: 566
GlyphClass: 2
Flags: W
HStem: -12 118<222.517 372.977> 210 90<177 403> 397 113<220.489 365.593>
VStem: 24 153<154.562 210 300 354.528> 403 142<300 353.33>
AnchorPoint: "Anchor-2" 404 10 basechar 0
AnchorPoint: "Anchor-1" 283 0 basechar 0
AnchorPoint: "Anchor-0" 284 496 basechar 0
LayerCount: 2
Fore
SplineSet
403 300 m 1
 402.002288089 358.865002767 359.149559239 397 294 397 c 0
 228.211183783 397 185.025801192 361.196734092 177 300 c 1
 403 300 l 1
513 99 m 1
 464.958620867 28.9396554318 384.923438627 -12 296 -12 c 0
 130.262266431 -12 24 90.7462355562 24 251 c 0
 24 400.473988635 136.486173834 510 290 510 c 0
 443.184830455 510 545 399.800051787 545 234 c 0
 545 226 544 218 544 210 c 1
 177 210 l 1
 181.974377966 147.322837632 227.667900348 106 292 106 c 0
 335.43345075 106 371.206536517 119.236041734 392 143 c 1
 513 99 l 1
EndSplineSet
EndChar

StartChar: f
Encoding: 102 102 46
Width: 367
GlyphClass: 1
Flags: W
HStem: 0 21G<87 239> 380 116<5 87 239 347> 608 120<246.533 347>
VStem: 87 152<0 380 496 601.877>
AnchorPoint: "Anchor-0" 80 668 basechar 0
LayerCount: 2
Fore
SplineSet
305 608 m 2
 250.866552511 608 239 599.909168742 239 563 c 2
 239 496 l 1
 347 496 l 1
 347 380 l 1
 239 380 l 1
 239 0 l 1
 87 0 l 1
 87 380 l 1
 5 380 l 1
 5 496 l 1
 87 496 l 1
 87 577 l 2
 87 688.735785803 136.665330541 728 278 728 c 2
 347 728 l 1
 347 608 l 1
 305 608 l 2
EndSplineSet
EndChar

StartChar: g
Encoding: 103 103 47
Width: 597
GlyphClass: 2
Flags: W
HStem: -203 116<219.061 364.818> 18 118<227.212 326.391> 392 119<226.009 323.972> 476 20G<409.118 546>
VStem: 24 158<184.476 345.985> 395 151<-55.7985 96 168.021 359.005>
AnchorPoint: "Anchor-1" 299 -251 basechar 0
AnchorPoint: "Anchor-0" 297 496 basechar 0
LayerCount: 2
Fore
SplineSet
292 392 m 0xec
 223.179892843 392 182 345.204667224 182 267 c 0
 182 187.104515445 224.912188542 136 292 136 c 0
 364.047251741 136 401 179.055036963 401 263 c 0
 401 347.013762012 362.988372553 392 292 392 c 0xec
546 37 m 2
 546 -121.209554354 459.779238548 -203 293 -203 c 0
 188.720158098 -203 111.895755587 -161.794184108 73 -85 c 1
 197 -40 l 1
 213.239886779 -70.4497877103 245.636047006 -87 289 -87 c 0
 357.893656563 -87 395 -54.0943746879 395 7 c 2
 395 96 l 1
 354.881524003 45.8519050032 298.820638291 18 238 18 c 0
 116.674100878 18 24 122.366627624 24 259 c 0
 24 408.756064907 108.797549343 511 233 511 c 0xec
 298.747211266 511 358.860804404 480.201060306 395 428 c 1
 415 496 l 1
 546 496 l 1xdc
 546 37 l 2
EndSplineSet
EndChar

StartChar: h
Encoding: 104 104 48
Width: 572
GlyphClass: 2
Flags: W
HStem: 0 21G<50 202 370 522> 392 118<266.514 414.006> 648 20G<50 202>
VStem: 50 152<0 356.09 430 668> 370 152<0 370.297>
AnchorPoint: "Anchor-1" 286 0 basechar 0
AnchorPoint: "Anchor-0" 126 668 basechar 0
LayerCount: 2
Fore
SplineSet
294 392 m 0
 231.773512396 392 202 347.663356541 202 255 c 2
 202 0 l 1
 50 0 l 1
 50 668 l 1
 202 668 l 1
 202 430 l 1
 232.067720616 479.11061034 291.143678342 510 355 510 c 0
 473.012019565 510 522 448.985030357 522 302 c 2
 522 0 l 1
 370 0 l 1
 370 264 l 2
 370 361.842184079 352.093796797 392 294 392 c 0
EndSplineSet
EndChar

StartChar: i
Encoding: 105 105 49
Width: 315
GlyphClass: 1
Flags: W
HStem: 0 21G<118 271> 380 116<24 118> 578 180<135.982 252.786>
VStem: 105 180<608.982 725.786> 118 153<0 380>
AnchorPoint: "Anchor-2" 271 0 basechar 0
LayerCount: 2
Fore
SplineSet
118 0 m 1xe8
 118 380 l 1
 24 380 l 1
 24 496 l 1
 271 496 l 1
 271 0 l 1
 118 0 l 1xe8
285 668 m 0xf0
 285 618 245 578 195 578 c 0
 145 578 105 618 105 668 c 0
 105 718 145 758 195 758 c 0
 246 758 285 719 285 668 c 0xf0
EndSplineSet
Substitution2: "Single Substitution lookup 4 subtable" dotlessi
Substitution2: "Single Substitution lookup 3 subtable" dotlessi
EndChar

StartChar: j
Encoding: 106 106 50
Width: 259
GlyphClass: 1
Flags: W
HStem: -161 120<-70 52.7097> 476 20G<55 207> 578 180<72.982 191.018>
VStem: 42 180<608.982 727.018> 55 152<-32.9106 496>
LayerCount: 2
Fore
SplineSet
207 -24 m 2xe8
 207 -120.810627621 151.262914218 -161 17 -161 c 2
 -70 -161 l 1
 -70 -41 l 1
 -11 -41 l 2
 42.5790451866 -41 55 -33.660344883 55 -2 c 2
 55 496 l 1
 207 496 l 1
 207 -24 l 2xe8
222 668 m 0xf0
 222 618 182 578 132 578 c 0
 82 578 42 618 42 668 c 0
 42 718 82 758 132 758 c 0
 182 758 222 718 222 668 c 0xf0
EndSplineSet
EndChar

StartChar: k
Encoding: 107 107 51
Width: 567
GlyphClass: 2
Flags: W
HStem: 0 21G<50 202 368.667 563> 476 20G<350.34 548> 648 20G<50 202>
VStem: 50 152<0 125 308 668> 368 180<316 496> 383 180<0 180>
DStem2: 354 289 254 180 0.586002 -0.810309<29.7235 251.173>
AnchorPoint: "Anchor-1" 284 0 basechar 0
AnchorPoint: "Anchor-0" 284 796 basechar 0
LayerCount: 2
Fore
SplineSet
50 0 m 1xf4
 50 668 l 1
 202 668 l 1
 202 308 l 1
 368 496 l 1
 548 496 l 1xf8
 354 289 l 1
 563 0 l 1
 383 0 l 1
 254 180 l 1
 202 125 l 1
 202 0 l 1
 50 0 l 1xf4
EndSplineSet
EndChar

StartChar: l
Encoding: 108 108 52
Width: 314
GlyphClass: 2
Flags: W
HStem: -18 124<204.416 307> 648 20G<50 202>
VStem: 50 148<113.577 668>
AnchorPoint: "Anchor-1" 167 0 basechar 0
AnchorPoint: "Anchor-0" 129 680 basechar 0
LayerCount: 2
Fore
SplineSet
198 162 m 2
 198 117.939366907 212.071396712 106 264 106 c 2
 307 106 l 1
 307 -18 l 1
 210 -18 l 2
 89.6097458365 -18 50 21.1146240135 50 140 c 2
 50 668 l 1
 202 668 l 1
 198 162 l 2
EndSplineSet
EndChar

StartChar: m
Encoding: 109 109 53
Width: 886
GlyphClass: 2
Flags: W
HStem: 0 21G<50 202 366 519 684 836> 392 118<266.614 390.045 571.897 727.555> 476 20G<50 188.758>
VStem: 50 152<0 357.182> 366 153<0 359.193> 684 152<0 369.9>
AnchorPoint: "Anchor-1" 443 0 basechar 0
AnchorPoint: "Anchor-0" 451 496 basechar 0
LayerCount: 2
Fore
SplineSet
292 392 m 0xdc
 231.048862149 392 202 349.072237047 202 259 c 2
 202 0 l 1
 50 0 l 1
 50 496 l 1
 183 496 l 1xbc
 202 430 l 1
 231 478 291 510 352 510 c 0
 428.090388712 510 476.027273122 482.933595877 499 427 c 1
 537.390284302 480.544343894 597.721146205 510 669 510 c 0
 786.110605111 510 836 447.862310557 836 302 c 2
 836 0 l 1
 684 0 l 1
 684 264 l 2
 684 362.038965844 665.97656539 392 607 392 c 0
 546.876857715 392 519 350.818278376 519 262 c 2
 519 0 l 1
 366 0 l 1
 366 264 l 2
 366 362.797427983 349.117263053 392 292 392 c 0xdc
EndSplineSet
EndChar

StartChar: n
Encoding: 110 110 54
Width: 572
GlyphClass: 2
Flags: W
HStem: 0 21G<50 202 370 522> 392 118<266.514 414.006> 476 20G<50 188.758>
VStem: 50 152<0 356.09> 370 152<0 370.297>
AnchorPoint: "Anchor-1" 286 0 basechar 0
AnchorPoint: "Anchor-0" 305 496 basechar 0
LayerCount: 2
Fore
SplineSet
294 392 m 0xd8
 231.773512396 392 202 347.663356541 202 255 c 2
 202 0 l 1
 50 0 l 1
 50 496 l 1
 183 496 l 1xb8
 202 430 l 1
 232.067720616 479.11061034 291.143678342 510 355 510 c 0
 473.012019565 510 522 448.985030357 522 302 c 2
 522 0 l 1
 370 0 l 1
 370 264 l 2
 370 361.842184079 352.093796797 392 294 392 c 0xd8
EndSplineSet
EndChar

StartChar: o
Encoding: 111 111 55
Width: 573
GlyphClass: 2
Flags: W
HStem: -12 118<222.596 351.104> 392 118<222.205 351.22>
VStem: 24 155<153.424 346.026> 394 155<153.269 345.836>
AnchorPoint: "Anchor-2" 375 0 basechar 0
AnchorPoint: "Anchor-1" 287 0 basechar 0
AnchorPoint: "Anchor-0" 287 496 basechar 0
LayerCount: 2
Fore
SplineSet
287 106 m 0
 356.923631362 106 394 155.897169009 394 250 c 0
 394 342.449123422 356.662367649 392 287 392 c 0
 216.133741139 392 179 343.176007021 179 250 c 0
 179 156.833262047 217.124946535 106 287 106 c 0
549 250 m 0
 549 91 446 -12 287 -12 c 0
 127.19651213 -12 24 90.8041299546 24 250 c 0
 24 409.081758308 126.082682943 510 287 510 c 0
 447.111555556 510 549 408.889329941 549 250 c 0
EndSplineSet
Substitution2: "Single Substitution lookup 12 subtable" ordmasculine
Substitution2: "'aalt' Access All Alternates lookup 0 subtable" ordmasculine
EndChar

StartChar: p
Encoding: 112 112 56
Width: 596
GlyphClass: 1
Flags: W
HStem: -161 21G<50 202> -12 118<268.81 365.827> 392 118<268.222 365.376> 476 20G<50 187.882>
VStem: 50 152<-161 71> 50 145<157.117 345.949> 414 158<158.093 336.787>
AnchorPoint: "Anchor-0" 348 496 basechar 0
LayerCount: 2
Fore
SplineSet
414 248 m 0xe6
 414 332.775353658 369.170232977 392 305 392 c 0
 234.366985823 392 195 341.538681808 195 251 c 0
 195 160.60802498 236.426777571 106 305 106 c 0
 371.007042417 106 414 162.009174099 414 248 c 0xe6
353 -12 m 0
 292.42707202 -12 231.20653799 21.6510220165 202 71 c 1
 202 -161 l 1
 50 -161 l 1xea
 50 496 l 1xd6
 182 496 l 1
 202 428 l 1xda
 231.18217969 477.307820855 291.38363153 510 353 510 c 0
 485.034353073 510 572 405.958906417 572 248 c 0
 572 90.0502248263 486.042310627 -12 353 -12 c 0
EndSplineSet
EndChar

StartChar: q
Encoding: 113 113 57
Width: 601
GlyphClass: 1
Flags: W
HStem: -172 138<556.148 672.629> -12 118<230.348 327.727> 392 118<230.801 328.331> 476 20G<408.118 546>
VStem: 24 158<158.039 336.845> 394 152<-24.6656 70> 401 145<156.975 345.84>
LayerCount: 2
Fore
SplineSet
292 392 m 0xea
 227.034718334 392 182 333.045459636 182 248 c 0
 182 161.754393124 225.190022843 106 292 106 c 0
 360.203586434 106 401 160.270458414 401 251 c 0
 401 341.27542691 361.78738676 392 292 392 c 0xea
674 -155 m 1
 640.814924848 -165.736347843 599.916960766 -172 563 -172 c 0
 451.68805727 -172 394 -116.70138889 394 -10 c 2
 394 70 l 1
 365.054847448 21.0926732748 304.11590032 -12 243 -12 c 0
 109.957689373 -12 24 90.0502248263 24 248 c 0
 24 405.958906417 110.965646927 510 243 510 c 0
 305.537582726 510 365.246254501 477.575423275 394 428 c 1xec
 414 496 l 1
 546 496 l 1xda
 546 38 l 2xdc
 546 -17.4320833367 559.346377312 -34 604 -34 c 0
 624.526568197 -34 648.808302667 -30.5311807901 674 -24 c 1
 674 -155 l 1
EndSplineSet
EndChar

StartChar: r
Encoding: 114 114 58
Width: 372
GlyphClass: 2
Flags: W
HStem: 0 21G<50 202> 361 149<260.751 357> 476 20G<50 175.934>
VStem: 50 152<0 326.289>
AnchorPoint: "Anchor-1" 128 0 basechar 0
AnchorPoint: "Anchor-0" 221 496 basechar 0
LayerCount: 2
Fore
SplineSet
316 361 m 0xd0
 238.986485882 361 202 324.986842694 202 250 c 2
 202 0 l 1
 50 0 l 1
 50 496 l 1
 170 496 l 1xb0
 197 405 l 1
 224.846373732 476.604961024 271.599428298 510 344 510 c 2
 357 510 l 1
 357 358 l 1
 340.432262974 360.366819575 331.778797167 361 316 361 c 0xd0
EndSplineSet
EndChar

StartChar: s
Encoding: 115 115 59
Width: 534
GlyphClass: 2
Flags: W
HStem: -12 111<181.625 348.709> 399 111<186.214 337.538>
VStem: 33 145<331.065 388.365> 361 146<114.395 173.684>
DStem2: 331 302 195 205 0.983353 -0.181706<-158.222 54.7671>
AnchorPoint: "Anchor-1" 267 0 basechar 0
AnchorPoint: "Anchor-0" 268 496 basechar 0
LayerCount: 2
Fore
SplineSet
507 162 m 0
 507 55.1542716106 413.215586199 -12 264 -12 c 0
 145.392547442 -12 59.1263835414 32.7306035039 21 114 c 1
 150 161 l 1
 163.944962324 121.157250503 205.757838273 99 267 99 c 0
 324.108740784 99 361 117.053169404 361 145 c 0
 361 167.779807289 338.529901387 180.911683102 284 190 c 2
 195 205 l 2
 91.0082289963 221.998654876 33 274.993827045 33 353 c 0
 33 448.01315829 123.019107706 510 261 510 c 0
 369 510 447 471 481 400 c 1
 353 353 l 1
 344.976125036 384.092515485 314.837080255 399 260 399 c 0
 204.824859292 399 178 385.914702784 178 359 c 0
 178 338.90150932 196.209138755 326.961090464 239 319 c 2
 331 302 l 1
 456.817040937 280.031945233 507 240.113682342 507 162 c 0
EndSplineSet
EndChar

StartChar: t
Encoding: 116 116 60
Width: 379
GlyphClass: 2
Flags: W
HStem: 0 124<253.025 355> 380 116<13 95 247 355>
VStem: 95 152<130.035 380 496 620>
AnchorPoint: "Anchor-1" 239 0 basechar 0
AnchorPoint: "Anchor-0" 170 620 basechar 0
LayerCount: 2
Fore
SplineSet
247 180 m 2
 247 135.68677862 260.356318423 124 311 124 c 2
 355 124 l 1
 355 0 l 1
 259 0 l 2
 130.071415757 0 95 29.939013451 95 140 c 2
 95 380 l 1
 13 380 l 1
 13 496 l 1
 95 496 l 1
 95 620 l 1
 247 620 l 1
 247 496 l 1
 355 496 l 1
 355 380 l 1
 247 380 l 1
 247 180 l 2
EndSplineSet
EndChar

StartChar: u
Encoding: 117 117 61
Width: 570
GlyphClass: 2
Flags: W
HStem: -12 118<161.445 310.643> 0 21G<381 519> 476 20G<50 202 366 519>
VStem: 50 152<129.234 496> 366 153<134.632 496>
AnchorPoint: "Anchor-2" 519 0 basechar 0
AnchorPoint: "Anchor-1" 285 0 basechar 0
AnchorPoint: "Anchor-0" 285 496 basechar 0
LayerCount: 2
Fore
SplineSet
366 70 m 1x78
 332.213508099 12.3642196991 289.427561311 -12 222 -12 c 0
 100.890449282 -12 50 50.1336880764 50 198 c 2
 50 496 l 1
 202 496 l 1
 202 219 l 2
 202 137.93588326 224.044238003 106 280 106 c 0xb8
 340.333830847 106 366 144.49925373 366 235 c 2
 366 496 l 1
 519 496 l 1
 519 0 l 1
 387 0 l 1
 366 70 l 1x78
EndSplineSet
EndChar

StartChar: v
Encoding: 118 118 62
Width: 526
GlyphClass: 1
Flags: W
HStem: 0 158<177 348> 476 20G<0 163.272 362.728 526>
VStem: 0 157<339 496> 369 157<339 496>
LayerCount: 2
Fore
SplineSet
177 0 m 1
 0 496 l 1
 157 496 l 1
 263 158 l 1
 369 496 l 1
 526 496 l 1
 348 0 l 1
 177 0 l 1
EndSplineSet
EndChar

StartChar: w
Encoding: 119 119 63
Width: 723
GlyphClass: 1
Flags: W
HStem: 0 21G<119 293.989 428.955 604> 476 20G<0 154.464 285.19 436.81 567.536 723>
VStem: 0 150<346 496> 572 151<345 496>
DStem2: 150 496 0 496 0.242536 -0.970143<0 344.158> 225 160 290 0 0.195586 0.980686<0 218.814> 433 496 361 356 0.198234 -0.980155<122.949 342.019> 497 160 599 0 0.242536 0.970143<0 344.158>
LayerCount: 2
Fore
SplineSet
124 0 m 1
 0 496 l 1
 150 496 l 1
 225 160 l 1
 289 496 l 1
 433 496 l 1
 497 160 l 1
 572 496 l 1
 723 496 l 1
 599 0 l 1
 433 0 l 1
 361 356 l 1
 290 0 l 1
 124 0 l 1
EndSplineSet
EndChar

StartChar: x
Encoding: 120 120 64
Width: 533
GlyphClass: 1
Flags: W
HStem: 0 21G<0 180.126 353.014 533> 476 20G<15 195.215 337.95 518>
VStem: 0 166<0 166> 367 166<0 166>
DStem2: 0 0 166 0 0.578747 0.815507<96.072 271.143 460.341 608.21> 181 496 15 496 0.578747 -0.815507<0 148.449 337.646 512.138>
AnchorPoint: "Anchor-1" 267 0 basechar 0
AnchorPoint: "Anchor-0" 267 496 basechar 0
LayerCount: 2
Fore
SplineSet
0 0 m 1
 184 259 l 1
 15 496 l 1
 181 496 l 1
 267 375 l 1
 352 496 l 1
 518 496 l 1
 349 259 l 1
 533 0 l 1
 367 0 l 1
 267 143 l 1
 166 0 l 1
 0 0 l 1
EndSplineSet
EndChar

StartChar: y
Encoding: 121 121 65
Width: 518
GlyphClass: 2
Flags: W
HStem: -161 110<65 175.535> 476 20G<0 169.258 348.871 518>
DStem2: 190 3 328 0 0.357717 0.93383<-59.2246 0 195.931 384.733>
AnchorPoint: "Anchor-1" 429 0 basechar 0
AnchorPoint: "Anchor-0" 260 496 basechar 0
LayerCount: 2
Fore
SplineSet
65 -161 m 1
 65 -51 l 1
 95 -51 l 2
 163.725201927 -51 175.155356384 -44.5028595717 190 3 c 1
 0 496 l 1
 163 496 l 1
 260 186 l 1
 355 496 l 1
 518 496 l 1
 328 0 l 2
 278.025015724 -130.934458803 238.062122456 -161 114 -161 c 2
 65 -161 l 1
EndSplineSet
EndChar

StartChar: z
Encoding: 122 122 66
Width: 516
GlyphClass: 2
Flags: W
HStem: 0 121<226 496> 375 121<44 287>
DStem2: 30 121 226 121 0.711246 0.702943<139.404 361.338>
AnchorPoint: "Anchor-1" 258 0 basechar 0
AnchorPoint: "Anchor-0" 268 496 basechar 0
LayerCount: 2
Fore
SplineSet
30 0 m 1
 30 121 l 1
 287 375 l 1
 44 375 l 1
 44 496 l 1
 482 496 l 1
 482 375 l 1
 226 121 l 1
 496 121 l 1
 496 0 l 1
 30 0 l 1
EndSplineSet
EndChar

StartChar: circumflex
Encoding: 710 710 67
Width: 467
GlyphClass: 1
Flags: W
HStem: 635 91<188.5 279.5>
LayerCount: 2
Fore
SplineSet
37 574 m 1
 184 706 l 2
 199.649630296 719.563012923 215.742097988 726 234 726 c 0
 252.250808064 726 270.188577681 718.824892153 284 706 c 2
 430 574 l 1
 302 574 l 1
 234 635 l 1
 166 574 l 1
 37 574 l 1
EndSplineSet
EndChar

StartChar: caron
Encoding: 711 711 68
Width: 467
GlyphClass: 1
Flags: W
HStem: 568 91<188.5 279.5>
LayerCount: 2
Fore
SplineSet
234 568 m 0
 214.39009598 568 197.58394393 574.386337779 184 587 c 2
 37 720 l 1
 166 720 l 1
 234 659 l 1
 302 720 l 1
 430 720 l 1
 284 587 l 2
 269.082075018 574.071131682 253.105412696 568 234 568 c 0
EndSplineSet
EndChar

StartChar: breve
Encoding: 728 728 69
Width: 373
GlyphClass: 1
Flags: W
HStem: 569 77<154.634 247.779>
VStem: 57 85<658.393 689> 259 85<658.175 689>
LayerCount: 2
Fore
SplineSet
344 689 m 1
 332.083214528 619.48541808 271.500712832 569 200 569 c 0
 129.887463662 569 68.9807822862 620.110501854 57 689 c 1
 142 689 l 1
 148.071593916 664.713624335 173.31322674 646 200 646 c 0
 228.151327872 646 253.032011018 664.133379242 259 689 c 1
 344 689 l 1
EndSplineSet
EndChar

StartChar: dotaccent
Encoding: 729 729 70
Width: 201
GlyphClass: 1
Flags: W
HStem: 578 141<50.875 150.625>
VStem: 30 141<598.375 698.125>
LayerCount: 2
Fore
SplineSet
171 648 m 0
 171 609 140 578 101 578 c 0
 61.7210508402 578 30 609.274275476 30 648 c 0
 30 687 62 719 101 719 c 0
 139.725724524 719 171 687.27894916 171 648 c 0
EndSplineSet
EndChar

StartChar: ring
Encoding: 730 730 71
Width: 295
GlyphClass: 1
Flags: W
HStem: 535 86<107.696 186.494> 715 85<107.552 186.762>
VStem: 15 85<628.548 707.448> 194 86<628.506 707.613>
LayerCount: 2
Fore
SplineSet
100 668 m 0
 100 642 121 621 147 621 c 0
 173 621 194 642 194 668 c 0
 194 695 174 715 147 715 c 0
 121 715 100 694 100 668 c 0
280 668 m 0
 280 595 220 535 147 535 c 0
 74.7743034367 535 15 595.227139069 15 668 c 0
 15 741 74 800 147 800 c 0
 220.776645067 800 280 741.22193345 280 668 c 0
EndSplineSet
EndChar

StartChar: ogonek
Encoding: 731 731 72
Width: 295
GlyphClass: 1
Flags: W
HStem: -174 76<165.644 257.303>
VStem: 37 126<-93.5376 -39.6503>
LayerCount: 2
Fore
SplineSet
258 -164 m 1
 243.586196805 -169.147786855 205.253712962 -174 179 -174 c 0
 92.921332687 -174 37 -138.95071402 37 -85 c 0
 37 -46.4052338705 65.4560897518 -16.1706385092 117 0 c 1
 258 0 l 1
 173.585572784 -42.7157342538 163 -50.2927758256 163 -68 c 0
 163 -87.2835894637 179.431829489 -98 209 -98 c 0
 232 -98 243 -91 258 -89 c 1
 258 -164 l 1
EndSplineSet
EndChar

StartChar: quoteleft
Encoding: 8216 8216 73
Width: 277
GlyphClass: 1
Flags: W
HStem: 339 329<124 160.954>
VStem: 41 195<376.548 496.5>
DStem2: 48 472 161 531 0.361528 0.932361<95.862 210.219>
LayerCount: 2
Fore
SplineSet
236 437 m 0
 236 382.721376135 192.724760356 339 139 339 c 0
 85 339 41 383 41 437 c 0
 41 449.020500415 43.3767306095 460.904153463 48 472 c 2
 124 668 l 1
 214 668 l 1
 161 531 l 1
 205.416648738 520.905307105 236 482.574173523 236 437 c 0
EndSplineSet
EndChar

StartChar: quoteright
Encoding: 8217 8217 74
Width: 277
GlyphClass: 1
Flags: W
HStem: 351 329<116.595 153>
VStem: 41 195<522.5 642.781>
DStem2: 63 351 153 351 0.365652 0.930751<32.9087 145.962>
LayerCount: 2
Fore
SplineSet
139 680 m 0
 193.219559921 680 236 636.778524457 236 582 c 0
 236 569.832774043 233.946127337 557.851850178 230 547 c 2
 153 351 l 1
 63 351 l 1
 116 487 l 1
 71.8687712279 498.032807193 41 537.133250748 41 582 c 0
 41 637 84 680 139 680 c 0
EndSplineSet
EndChar

StartChar: quotesinglbase
Encoding: 8218 8218 75
Width: 277
GlyphClass: 1
Flags: W
HStem: -146 330<116.595 153>
VStem: 41 195<26.375 146.781>
DStem2: 63 -146 153 -146 0.364043 0.931382<32.7639 146.894>
LayerCount: 2
Fore
SplineSet
139 184 m 0
 193.219559921 184 236 140.778524457 236 86 c 0
 236 73.8327740429 233.946127337 61.8518501779 230 51 c 2
 153 -146 l 1
 63 -146 l 1
 116 -9 l 1
 71.8687712279 2.03280719302 41 41.1332507484 41 86 c 0
 41 141 84 184 139 184 c 0
EndSplineSet
EndChar

StartChar: quotedblleft
Encoding: 8220 8220 76
Width: 498
GlyphClass: 1
Flags: W
HStem: 339 329<124 160.954 345 379.735>
VStem: 41 195<376.548 497.305> 263 194<376.431 496.5>
DStem2: 51 480 161 531 0.361968 0.932191<87.3582 201.675> 270 472 382 531 0.357382 0.933958<95.1303 209.859>
LayerCount: 2
Fore
SplineSet
457 437 m 0
 457 382.221475543 414.219559921 339 360 339 c 0
 306.275239644 339 263 382.721376135 263 437 c 0
 263 449.020500415 265.376730609 460.904153463 270 472 c 2
 345 668 l 1
 436 668 l 1
 382 531 l 1
 426.416648738 520.905307105 457 482.574173523 457 437 c 0
236 437 m 0
 236 382.721376135 192.724760356 339 139 339 c 0
 85 339 41 383 41 437 c 0
 41 446.082056225 43.1513094351 455.332686796 51 480 c 1
 124 668 l 1
 214 668 l 1
 161 531 l 1
 205.416648738 520.905307105 236 482.574173523 236 437 c 0
EndSplineSet
EndChar

StartChar: quotedblright
Encoding: 8221 8221 77
Width: 498
GlyphClass: 1
Flags: W
HStem: 351 329<116.595 153 337.595 374>
VStem: 41 195<522.5 642.781> 262 195<522.5 642.781>
DStem2: 63 351 153 351 0.365652 0.930751<32.9087 145.962> 284 351 374 351 0.365652 0.930751<32.9087 145.962>
LayerCount: 2
Fore
SplineSet
360 680 m 0
 414.219559921 680 457 636.778524457 457 582 c 0
 457 569.832774043 454.946127337 557.851850178 451 547 c 2
 374 351 l 1
 284 351 l 1
 337 487 l 1
 292.868771228 498.032807193 262 537.133250748 262 582 c 0
 262 637 305 680 360 680 c 0
139 680 m 0
 193.219559921 680 236 636.778524457 236 582 c 0
 236 569.832774043 233.946127337 557.851850178 230 547 c 2
 153 351 l 1
 63 351 l 1
 116 487 l 1
 71.8687712279 498.032807193 41 537.133250748 41 582 c 0
 41 637 84 680 139 680 c 0
EndSplineSet
EndChar

StartChar: quotedblbase
Encoding: 8222 8222 78
Width: 498
GlyphClass: 1
Flags: W
HStem: -146 330<116.595 153 340.265 374>
VStem: 41 195<26.375 146.781> 263 194<26.375 146.995>
DStem2: 63 -146 153 -146 0.364043 0.931382<32.7639 146.894> 285 -146 374 -146 0.364043 0.931382<32.3998 146.894>
LayerCount: 2
Fore
SplineSet
360 184 m 0
 414.719670434 184 457 141.283790748 457 86 c 0
 457 73.8327740429 454.946127337 61.8518501779 451 51 c 2
 374 -146 l 1
 285 -146 l 1
 338 -9 l 1
 293.868771228 2.03280719302 263 41.1332507484 263 86 c 0
 263 140.778524457 305.780440079 184 360 184 c 0
139 184 m 0
 193.219559921 184 236 140.778524457 236 86 c 0
 236 73.8327740429 233.946127337 61.8518501779 230 51 c 2
 153 -146 l 1
 63 -146 l 1
 116 -9 l 1
 71.8687712279 2.03280719302 41 41.1332507484 41 86 c 0
 41 141 84 184 139 184 c 0
EndSplineSet
EndChar

StartChar: dagger
Encoding: 8224 8224 79
Width: 594
GlyphClass: 1
Flags: W
HStem: 0 21G<225 369> 380 116<41 225 369 553> 648 20G<225 369>
VStem: 225 144<0 380 496 668>
LayerCount: 2
Fore
SplineSet
225 0 m 1
 225 380 l 1
 41 380 l 1
 41 496 l 1
 225 496 l 1
 225 668 l 1
 369 668 l 1
 369 496 l 1
 553 496 l 1
 553 380 l 1
 369 380 l 1
 369 0 l 1
 225 0 l 1
EndSplineSet
EndChar

StartChar: daggerdbl
Encoding: 8225 8225 80
Width: 594
GlyphClass: 1
Flags: W
HStem: 0 21G<225 369> 173 115<41 225 369 553> 380 116<41 225 369 553> 648 20G<225 369>
VStem: 225 144<0 173 288 380 496 668>
LayerCount: 2
Fore
SplineSet
225 0 m 1
 225 173 l 1
 41 173 l 1
 41 288 l 1
 225 288 l 1
 225 380 l 1
 41 380 l 1
 41 496 l 1
 225 496 l 1
 225 668 l 1
 369 668 l 1
 369 496 l 1
 553 496 l 1
 553 380 l 1
 369 380 l 1
 369 288 l 1
 553 288 l 1
 553 173 l 1
 369 173 l 1
 369 0 l 1
 225 0 l 1
EndSplineSet
EndChar

StartChar: bullet
Encoding: 8226 8226 81
Width: 438
GlyphClass: 1
Flags: W
HStem: 88 332<136.23 301.77>
VStem: 53 332<171.23 336.77>
LayerCount: 2
Fore
SplineSet
385 254 m 0
 385 162 311 88 219 88 c 0
 127 88 53 162 53 254 c 0
 53 346 127 420 219 420 c 0
 311 420 385 346 385 254 c 0
EndSplineSet
EndChar

StartChar: ellipsis
Encoding: 8230 8230 82
Width: 803
GlyphClass: 1
Flags: W
HStem: -12 196<78.5485 198.951 341.761 461.875 604.548 725.161>
VStem: 41 195<25.5485 146.781> 305 194<25.1255 146.875> 567 195<25.5485 146.875>
LayerCount: 2
Fore
SplineSet
499 86 m 0
 499 31 456 -12 401 -12 c 0
 348.051011048 -12 305 31.9479071115 305 86 c 0
 305 141.062513858 347.061210915 184 401 184 c 0
 456 184 499 141 499 86 c 0
236 86 m 0
 236 31.721376135 192.724760356 -12 139 -12 c 0
 85 -12 41 32 41 86 c 0
 41 141 84 184 139 184 c 0
 193.219559921 184 236 140.778524457 236 86 c 0
762 86 m 0
 762 31.2214755433 719.219559921 -12 665 -12 c 0
 611 -12 567 32 567 86 c 0
 567 141 610 184 665 184 c 0
 719.719670434 184 762 141.283790748 762 86 c 0
EndSplineSet
EndChar

StartChar: perthousand
Encoding: 8240 8240 83
Width: 1406
GlyphClass: 1
Flags: W
HStem: -12 119<701.724 810.276 1130.72 1238.89> 0 21G<192 332.012> 264 118<701.766 810.323 1130.67 1236.67> 286 118<167.064 275.325> 561 119<169.291 275.458> 648 20G<645.018 786>
VStem: 24 119<428.718 534.709> 192 126<0 126> 300 118<428.675 534.752> 559 118<131.587 237.411> 659 127<541 668> 835 118<131.587 237.494> 988 118<131.587 239.848> 1263 119<131.63 239.893>
DStem2: 192 0 318 0 0.573791 0.819001<72.2977 815.054>
LayerCount: 2
Fore
SplineSet
1106 186 m 0xa21c
 1106 142 1141 107 1185 107 c 0
 1228.22173654 107 1263 142.224138632 1263 186 c 0
 1263 229 1228 264 1185 264 c 0
 1141.22413863 264 1106 229.221736541 1106 186 c 0xa21c
677 186 m 0xa25c
 677 142 712 107 756 107 c 0
 800 107 835 142 835 186 c 0
 835 228.728175043 799.275972159 264 756 264 c 0
 712.724027841 264 677 228.728175043 677 186 c 0xa25c
1382 186 m 0
 1382 76.7232167887 1293.72488027 -12 1185 -12 c 0
 1076.27511973 -12 988 76.7232167887 988 186 c 0
 988 294.723485343 1075.721803 382 1185 382 c 0
 1294.77814788 382 1382 295.220898395 1382 186 c 0
953 186 m 0
 953 76.7232167887 864.724880266 -12 756 -12 c 0
 647.275119734 -12 559 76.7232167887 559 186 c 0
 559 294.723485343 646.721802997 382 756 382 c 0
 865.778147877 382 953 295.220898395 953 186 c 0
143 483 m 0
 143 439.224138632 177.778263459 404 221 404 c 0
 265 404 300 439 300 483 c 0
 300 526.221736541 264.775861368 561 221 561 c 0x1a9c
 178 561 143 526 143 483 c 0
192 0 m 1x473c
 659 668 l 1
 786 668 l 1
 318 0 l 1
 192 0 l 1x473c
418 483 m 0x1a9c
 418 374 330 286 221 286 c 0
 112 286 24 374 24 483 c 0
 24 593 111 680 221 680 c 0
 331 680 418 593 418 483 c 0x1a9c
EndSplineSet
EndChar

StartChar: guilsinglleft
Encoding: 8249 8249 84
Width: 404
GlyphClass: 1
Flags: W
VStem: 189 174<40 214 287 461>
LayerCount: 2
Fore
SplineSet
189 40 m 1
 41 250 l 1
 189 461 l 1
 362 461 l 1
 214 250 l 1
 363 40 l 1
 189 40 l 1
EndSplineSet
EndChar

StartChar: guilsinglright
Encoding: 8250 8250 85
Width: 404
GlyphClass: 1
Flags: W
VStem: 41 175<40 215 285 460>
LayerCount: 2
Fore
SplineSet
41 40 m 1
 191 249 l 1
 42 460 l 1
 216 460 l 1
 363 249 l 1
 216 40 l 1
 41 40 l 1
EndSplineSet
EndChar

StartChar: fraction
Encoding: 8260 8260 86
Width: 624
GlyphClass: 1
Flags: W
HStem: 0 21G<15 155.982> 648 20G<468.988 609>
VStem: 15 127<0 127> 483 126<542 668>
DStem2: 15 0 142 0 0.573791 0.819001<72.8715 815.627>
LayerCount: 2
Fore
SplineSet
15 0 m 1
 483 668 l 1
 609 668 l 1
 142 0 l 1
 15 0 l 1
EndSplineSet
EndChar

StartChar: ordfeminine
Encoding: 170 170 87
Width: 395
GlyphClass: 1
Flags: W
HStem: 395 72<126.916 233.79> 523 61<158.886 238> 623 68<134.247 236.729>
VStem: 53 104<469.385 518.377> 240 97<474.525 526 588 618.916>
LayerCount: 2
Fore
SplineSet
157 495 m 0
 157 478.015148573 169.98213939 467 190 467 c 0
 219.88105344 467 240 483.89991511 240 509 c 2
 240 526 l 1
 203 523 l 2
 171.436225175 521.027264073 157 512.239996575 157 495 c 0
249 435 m 1
 233.973734552 408.954473224 202.925031629 395 160 395 c 0
 96.2341921801 395 53 433.789555601 53 491 c 0
 53 548.650667008 87.2962180459 569.914322197 203 584 c 2
 238 588 l 1
 238 614.125178063 227.857346358 623 198 623 c 0
 175.49731175 623 161.93513325 614.654044 159 599 c 1
 72 630 l 1
 90.9347027499 669.862532105 138.753892414 691 210 691 c 0
 296.703996663 691 337.018272841 656.066847622 337.018272841 580.794832578 c 0
 337.018272841 579.869323497 337.01217813 578.937715987 337 578 c 1
 337 518 l 2
 337 457 338 434 342 403 c 1
 258 403 l 1
 249 435 l 1
EndSplineSet
EndChar

StartChar: guillemotleft
Encoding: 171 171 88
Width: 669
GlyphClass: 1
Flags: W
VStem: 201 174<40 214 287 461> 440 176<40 216 285 461>
LayerCount: 2
Fore
SplineSet
201 40 m 1
 53 251 l 1
 201 461 l 1
 374 461 l 1
 226 251 l 1
 375 40 l 1
 201 40 l 1
440 40 m 1
 294 251 l 1
 440 461 l 1
 615 461 l 1
 466 251 l 1
 616 40 l 1
 440 40 l 1
EndSplineSet
EndChar

StartChar: logicalnot
Encoding: 172 172 89
Width: 618
GlyphClass: 1
Flags: W
HStem: 295 127<53 437>
VStem: 437 128<56 295>
LayerCount: 2
Fore
SplineSet
437 56 m 1
 437 295 l 1
 53 295 l 1
 53 422 l 1
 565 422 l 1
 565 56 l 1
 437 56 l 1
EndSplineSet
EndChar

StartChar: registered
Encoding: 174 174 90
Width: 798
GlyphClass: 1
Flags: W
HStem: -12 69<293.226 503.532> 300 75<338 370> 453 76<338 450.251> 610 69<293.42 503.549>
VStem: 53 70<228.688 438.774> 241 97<161 300 375 453> 458 101<381.92 446.057> 471 108<161 269> 675 70<228.616 439.057>
DStem2: 472 310 370 300 0.583299 -0.812258<0 120.443>
LayerCount: 2
Fore
SplineSet
458 414 m 0xfe80
 458 441.265396424 437.53966556 453 390 453 c 2
 338 453 l 1
 338 375 l 1
 390 375 l 2
 437.53966556 375 458 386.734603576 458 414 c 0xfe80
559 415 m 0
 559 361 530 326 472 310 c 1
 579 161 l 1
 471 161 l 1xfd80
 370 300 l 1
 338 300 l 1
 338 161 l 1
 241 161 l 1
 241 529 l 1
 392 529 l 2
 507.364338152 529 559 493.751703888 559 415 c 0
123 334 m 0
 123 180.94726926 246.052343128 57 398 57 c 0
 551 57 675 181 675 334 c 0
 675 486.723922227 551.277269772 610 398 610 c 0
 246.775299048 610 123 485.774608956 123 334 c 0
745 334 m 0
 745 142.776607256 589.776061509 -12 398 -12 c 0
 207.775961367 -12 53 143.224587342 53 334 c 0
 53 524 208 679 398 679 c 0
 589.550925502 679 745 524.446885586 745 334 c 0
EndSplineSet
EndChar

StartChar: macron
Encoding: 175 175 91
Width: 405
GlyphClass: 1
Flags: W
HStem: 570 98<53 352>
VStem: 53 299<570 668>
LayerCount: 2
Fore
SplineSet
53 570 m 1
 53 668 l 1
 352 668 l 1
 352 570 l 1
 53 570 l 1
EndSplineSet
EndChar

StartChar: degree
Encoding: 176 176 92
Width: 404
GlyphClass: 1
Flags: W
HStem: 354 90<150.319 254.159> 590 89<150.362 254.019>
VStem: 40 89<467.06 568.638> 275 89<466.593 569.019>
LayerCount: 2
Fore
SplineSet
129 517 m 0
 129 477 162 444 202 444 c 0
 243 444 275 476 275 517 c 0
 275 558 243 590 202 590 c 0
 162 590 129 557 129 517 c 0
364 517 m 0
 364 425.718967762 292.721025905 354 202 354 c 0
 112.775966831 354 40 427.225201194 40 517 c 0
 40 606 113 679 202 679 c 0
 292 679 364 607 364 517 c 0
EndSplineSet
EndChar

StartChar: plusminus
Encoding: 177 177 93
Width: 618
GlyphClass: 1
Flags: W
HStem: 0 128<53 565> 283 108<53 245 373 565> 475 20G<245 373>
VStem: 245 128<180 283 391 495>
LayerCount: 2
Fore
SplineSet
53 0 m 1
 53 128 l 1
 565 128 l 1
 565 0 l 1
 53 0 l 1
245 180 m 1
 245 283 l 1
 53 283 l 1
 53 391 l 1
 245 391 l 1
 245 495 l 1
 373 495 l 1
 373 391 l 1
 565 391 l 1
 565 283 l 1
 373 283 l 1
 373 180 l 1
 245 180 l 1
EndSplineSet
EndChar

StartChar: uni00B2
Encoding: 178 178 94
Width: 407
GlyphClass: 1
Flags: W
HStem: 403 87<195 353> 709 76<163.785 248.329>
VStem: 251 102<622.668 704.581>
LayerCount: 2
Fore
SplineSet
354 677 m 0
 354 615.257524178 317.51233081 572.344353495 195 490 c 1
 353 490 l 1
 353 403 l 1
 53 403 l 1
 53 484 l 1
 208.423544891 589.925600658 251 630.566762353 251 673 c 0
 251 695.303245158 234.639987272 709 208 709 c 0
 180.359368595 709 161.079525066 693.357862797 155 666 c 1
 64 699 l 1
 84.8589012144 754.623736572 137.487543666 785 213 785 c 0
 301.888920854 785 354 745.085130867 354 677 c 0
EndSplineSet
EndChar

StartChar: uni00B3
Encoding: 179 179 95
Width: 413
GlyphClass: 1
Flags: W
HStem: 395 77<154.501 249.377> 491 20G<88.8485 148.536> 552 84<167 242.743> 675 21G<93.0606 150.477> 709 76<131.712 244.251>
VStem: 247 103<643.157 703.803> 255 105<478.685 543.899>
LayerCount: 2
Fore
SplineSet
360 510 m 0xfa
 360 442.305444532 295.417784421 395 203 395 c 0
 129.704534397 395 76.9038257173 424.216392136 53 478 c 1
 144 511 l 1
 153.072907527 486.805579927 176.230353054 472 205 472 c 0
 236.626028344 472 255 486.699177325 255 512 c 0xfa
 255 539.972609953 233.050013165 552 182 552 c 2
 167 552 l 1
 167 636 l 1
 182 636 l 2
 224.881659433 636 247 648.930722178 247 674 c 0
 247 695.653425102 229.458787277 709 201 709 c 0
 174.823266197 709 153.953194916 695.859584749 147 675 c 1
 58 708 l 1
 79.9319812454 757.845411921 131.772558486 785 205 785 c 0
 294.279606241 785 350 745.80358508 350 683 c 0xfc
 350 647.091784732 331.076966635 615.038483317 301 600 c 1
 338.244177947 585.907608345 360 552.720761144 360 510 c 0xfa
EndSplineSet
EndChar

StartChar: acute
Encoding: 180 180 96
Width: 314
GlyphClass: 1
Flags: W
HStem: 574 153<161.049 194.972>
VStem: 53 208
LayerCount: 2
Fore
SplineSet
205 727 m 0
 237 727 261 703 261 671 c 0
 261 653.62961046 254.731413105 639.772734166 242 629 c 0
 237 626 237 626 167 574 c 1
 53 574 l 1
 54 575 163 708 164 709 c 0
 173.904076188 720.884891426 187.832934607 727 205 727 c 0
EndSplineSet
EndChar

StartChar: uni03BC
Encoding: 956 956 97
Width: 570
GlyphClass: 1
Flags: W
HStem: -162 21G<50 202> -12 118<221.286 340.184> 0 21G<374.953 519> 475 20G<50 202 366 519>
VStem: 50 152<-162 18 123.97 495> 366 153<132.148 495>
LayerCount: 2
Fore
SplineSet
368 43 m 1xbc
 348.908108862 7.83072685174 316.81838723 -12 279 -12 c 0
 249.833097261 -12 223.875177054 -1.88652459471 202 18 c 1
 202 -162 l 1
 50 -162 l 1
 50 495 l 1
 202 495 l 1
 202 230 l 2
 202 134.05332398 218.967736278 106 277 106 c 0xdc
 342.157367642 106 366 139.218948453 366 230 c 2
 366 495 l 1
 519 495 l 1
 519 0 l 1
 381 0 l 1
 368 43 l 1xbc
EndSplineSet
EndChar

StartChar: paragraph
Encoding: 182 182 98
Width: 515
GlyphClass: 1
Flags: W
HStem: -162 21G<166 261 353 448> 600 67<261 353 448 495>
VStem: 24 237<391.603 564.315> 166 95<-162 301.287> 353 95<-162 600>
LayerCount: 2
Fore
SplineSet
24 478 m 0xe8
 24 583 108 667 213 667 c 2
 495 667 l 1
 495 600 l 1
 448 600 l 1
 448 -162 l 1
 353 -162 l 1
 353 600 l 1
 261 600 l 1
 261 -162 l 1
 166 -162 l 1
 166 295 l 1xd8
 81.2661171251 317.927991837 24 391.728692075 24 478 c 0xe8
EndSplineSet
EndChar

StartChar: periodcentered
Encoding: 183 183 99
Width: 301
GlyphClass: 1
Flags: W
HStem: 151 194<90.4306 211.068>
VStem: 53 195<188.049 308.161>
LayerCount: 2
Fore
SplineSet
248 248 m 0
 248 194 205 151 151 151 c 0
 96.721376135 151 53 194.275239644 53 248 c 0
 53 302.219559921 96.2214755433 345 151 345 c 0
 206 345 248 303 248 248 c 0
EndSplineSet
EndChar

StartChar: cedilla
Encoding: 184 184 100
Width: 321
GlyphClass: 1
Flags: W
HStem: -187 50<84.0565 192.783>
VStem: 194 94<-134.575 -85.8769>
LayerCount: 2
Fore
SplineSet
123 -90 m 0
 112.495762408 -90 103 -79.5546613517 103 -68 c 0
 103 -63.3484692283 103.449489743 -61.3257653858 105 -59 c 2
 157 25 l 1
 198 0 l 1
 168 -48 l 1
 176.781810215 -46.0484866188 188.664658562 -45 202 -45 c 0
 253.661766996 -45 288 -69.7554703054 288 -107 c 0
 288 -156.066949324 238.893782052 -187 161 -187 c 0
 132.406105819 -187 101.431889114 -182.424263441 73 -174 c 1
 89 -124 l 1
 104.915464568 -131.427216798 131.064678053 -137 150 -137 c 0
 179.166902739 -137 194 -127.897872135 194 -110 c 0
 194 -93.9188274052 179.884745616 -84 157 -84 c 0
 144 -84 136 -90 123 -90 c 0
EndSplineSet
EndChar

StartChar: uni00B9
Encoding: 185 185 101
Width: 291
GlyphClass: 1
Flags: W
HStem: 647 87<53 136.419>
VStem: 137 101<403 647> 159 79<748.872 779>
LayerCount: 2
Fore
SplineSet
53 734 m 1xc0
 122.545359989 734 147.927322871 744.775361601 159 779 c 1
 238 779 l 1xa0
 238 403 l 1
 137 403 l 1
 137 647 l 1
 53 647 l 1
 53 734 l 1xc0
EndSplineSet
EndChar

StartChar: ordmasculine
Encoding: 186 186 102
Width: 409
GlyphClass: 1
Flags: W
HStem: 395 77<171.604 246.756> 612 77<173.429 246.914>
VStem: 57 103<483.021 601.182> 258 102<482.504 601.699>
LayerCount: 2
Fore
SplineSet
160 542 m 0
 160 499.071402292 178.949981604 472 209 472 c 0
 239.900074516 472 258 497.857036406 258 542 c 0
 258 586.142963594 239.900074516 612 209 612 c 0
 178.949981604 612 160 584.928597708 160 542 c 0
360 542 m 0
 360 451.231655901 302.238231013 395 209 395 c 0
 114.952375552 395 57 451.046047409 57 542 c 0
 57 633.937509666 113.935364155 689 209 689 c 0
 303.251853156 689 360 633.755115324 360 542 c 0
EndSplineSet
EndChar

StartChar: guillemotright
Encoding: 187 187 103
Width: 669
GlyphClass: 1
Flags: W
VStem: 53 175<40 215 286 461> 294 174<40 214 287 461>
LayerCount: 2
Fore
SplineSet
53 40 m 1
 203 251 l 1
 54 461 l 1
 228 461 l 1
 375 251 l 1
 228 40 l 1
 53 40 l 1
294 40 m 1
 442 251 l 1
 294 461 l 1
 468 461 l 1
 616 251 l 1
 468 40 l 1
 294 40 l 1
EndSplineSet
EndChar

StartChar: onequarter
Encoding: 188 188 104
Width: 853
GlyphClass: 1
Flags: W
HStem: 0 21G<110 251.033 641 742> 74 87<563 641 742 800> 535 88<53 136.861> 647 20G<153.496 238 563.967 705>
VStem: 110 127<0 127> 137 101<292 535> 159 79<637.299 667> 578 127<540 667> 641 101<0 74 161 256>
DStem2: 110 0 237 0 0.574368 0.818597<72.9447 814.809> 460 152 563 161 0.630199 0.776433<71.8984 194.815>
LayerCount: 2
Fore
SplineSet
563 161 m 1xf080
 641 161 l 1
 641 256 l 1
 563 161 l 1xf080
641 0 m 1
 641 74 l 1
 460 74 l 1
 460 152 l 1
 641 375 l 1
 742 375 l 1
 742 161 l 1
 800 161 l 1
 800 74 l 1
 742 74 l 1
 742 0 l 1
 641 0 l 1
53 623 m 1
 123.954554631 623 147.992947294 632.978200728 159 667 c 1
 238 667 l 1xf2
 238 292 l 1
 137 292 l 1
 137 535 l 1xf4
 53 535 l 1
 53 623 l 1
110 0 m 1xf9
 578 667 l 1
 705 667 l 1
 237 0 l 1
 110 0 l 1xf9
EndSplineSet
Ligature2: "'frac' Diagonal Fractions lookup 10 subtable" one slash four
EndChar

StartChar: onehalf
Encoding: 189 189 105
Width: 856
GlyphClass: 1
Flags: W
HStem: 0 87<644 802> 306 75<613.649 696.327> 535 88<53 136.861> 647 20G<153.496 238 563.967 705>
VStem: 110 127<0 127> 137 101<292 535> 159 79<637.299 667> 578 127<540 667> 700 102<218.237 301.204>
DStem2: 110 0 237 0 0.574368 0.818597<72.9447 814.809>
LayerCount: 2
Fore
SplineSet
803 274 m 0xf080
 803 212.802298928 769.250966635 173.110039561 644 87 c 1
 802 87 l 1
 802 0 l 1
 502 0 l 1
 502 81 l 1
 553 118 577 130 626 169 c 0
 675.750838697 208.597606309 700 240.383669099 700 266 c 0
 700 291.058170297 683.937533069 306 657 306 c 0
 629.415736043 306 609.856204336 290.424817345 603 263 c 1
 512 296 l 1
 532.942705087 350.849941896 585.793983412 381 661 381 c 0
 749.957948459 381 803 341.031693557 803 274 c 0xf080
53 623 m 1
 123.954554631 623 147.992947294 632.978200728 159 667 c 1
 238 667 l 1xf2
 238 292 l 1
 137 292 l 1
 137 535 l 1xf4
 53 535 l 1
 53 623 l 1
110 0 m 1xf9
 578 667 l 1
 705 667 l 1
 237 0 l 1
 110 0 l 1xf9
EndSplineSet
Ligature2: "'frac' Diagonal Fractions lookup 10 subtable" one slash two
EndChar

StartChar: threequarters
Encoding: 190 190 106
Width: 959
GlyphClass: 1
Flags: W
HStem: 0 21G<200 341.033 748 849> 74 87<669 748 849 906> 290 76<154.226 251.68> 446 84<167 242.636> 603 76<130.882 243.512> 647 20G<653.967 795>
VStem: 200 127<0 127> 247 103<537.221 597.476> 255 105<371.298 437.671> 668 127<540 667> 748 101<0 74 161 256>
DStem2: 200 0 327 0 0.574368 0.818597<72.9447 814.809> 567 152 669 161 0.630199 0.776433<71.2682 194.815>
LayerCount: 2
Fore
SplineSet
669 161 m 1xf020
 748 161 l 1
 748 256 l 1
 669 161 l 1xf020
748 0 m 1
 748 74 l 1
 567 74 l 1
 567 152 l 1
 748 375 l 1
 849 375 l 1
 849 161 l 1
 906 161 l 1
 906 74 l 1
 849 74 l 1
 849 0 l 1
 748 0 l 1
200 0 m 1xf640
 668 667 l 1
 795 667 l 1
 327 0 l 1
 200 0 l 1xf640
360 404 m 0xf880
 360 337.098695863 295.136006574 290 203 290 c 0
 130.523652267 290 76.8437733767 319.34500046 53 372 c 1
 144 404 l 1
 153.072326645 379.807128946 175.236402059 366 205 366 c 0
 236.789798571 366 255 379.839753086 255 404 c 0xf880
 255 433.171500262 232.702845693 446 182 446 c 2
 167 446 l 1
 167 530 l 1
 182 530 l 2
 225.166826616 530 247 543.099904031 247 569 c 0
 247 588.97826579 228.029418422 603 201 603 c 0
 174.823266197 603 153.953194916 589.859584749 147 569 c 1
 58 602 l 1
 81.097908935 653.217102421 131.32433279 679 208 679 c 0
 294.657161066 679 350 639.24669316 350 577 c 0xf9
 350 541.091784732 331.076966635 509.038483317 301 494 c 1
 338.244177947 479.907608345 360 446.720761144 360 404 c 0xf880
EndSplineSet
LCarets2: 2 0 0
Ligature2: "'frac' Diagonal Fractions lookup 10 subtable" three slash four
EndChar

StartChar: less
Encoding: 60 60 107
Width: 573
GlyphClass: 1
Flags: W
HStem: 490 20G<486.27 533>
LayerCount: 2
Fore
SplineSet
533 -12 m 1
 40 200 l 1
 40 299 l 1
 533 510 l 1
 533 368 l 1
 209 250 l 1
 533 130 l 1
 533 -12 l 1
EndSplineSet
EndChar

StartChar: equal
Encoding: 61 61 108
Width: 618
GlyphClass: 1
Flags: W
HStem: 96 129<53 565> 283 127<53 565>
LayerCount: 2
Fore
SplineSet
53 96 m 1
 53 225 l 1
 565 225 l 1
 565 96 l 1
 53 96 l 1
53 283 m 1
 53 410 l 1
 565 410 l 1
 565 283 l 1
 53 283 l 1
EndSplineSet
EndChar

StartChar: greater
Encoding: 62 62 109
Width: 573
GlyphClass: 1
Flags: W
HStem: 490 20G<40 86.7299>
LayerCount: 2
Fore
SplineSet
40 -12 m 1
 40 130 l 1
 365 250 l 1
 40 368 l 1
 40 510 l 1
 533 299 l 1
 533 200 l 1
 40 -12 l 1
EndSplineSet
EndChar

StartChar: question
Encoding: 63 63 110
Width: 614
GlyphClass: 1
Flags: W
HStem: -12 195<204.049 324.161> 558 122<219.228 385.977>
VStem: 167 194<25.4306 148.294> 408 156<464.278 537.175>
LayerCount: 2
Fore
SplineSet
361 86 m 0
 361 31.2214755433 318.219559921 -12 264 -12 c 0
 210.275239644 -12 167 31.721376135 167 86 c 0
 167 141 209 183 264 183 c 0
 319 183 361 141 361 86 c 0
40 536 m 1
 77.0190548263 628.047379568 174.06943605 680 309 680 c 0
 462.798302751 680 564 612.135332433 564 509 c 0
 564 330 354 365 341 253 c 1
 340 243 l 1
 186 243 l 1
 186 255 l 1
 190.016149742 343.355294321 218.38750181 381.183763745 315 427 c 0
 397.934017158 465.968996014 408 473.978487738 408 501 c 0
 408 535.100062578 365.815904749 558 303 558 c 0
 238.249772169 558 193.06207202 532.178457058 177 486 c 1
 40 536 l 1
EndSplineSet
EndChar

StartChar: at
Encoding: 64 64 111
Width: 754
GlyphClass: 1
Flags: W
HStem: -12 70<275.746 487.921> 153 87<526.48 612.573> 155 95<310.935 396.327> 427 91<323.485 418.61> 610 70<275.604 486.125>
VStem: 35 69<228.379 438.942> 200 97<262.775 399.348> 419 94<272.333 426.533> 642 77<272.213 456.431>
LayerCount: 2
Fore
SplineSet
297 319 m 0xbf80
 297 277.799793388 319.159255599 250 352 250 c 0
 390.697112061 250 419 287.59637353 419 339 c 2
 419 423 l 1
 410.024829748 425.692551076 397.930927198 427 382 427 c 0
 324.772919983 427 297 391.71205461 297 319 c 0xbf80
104 333 m 0
 104 180.111095567 227.887256957 58 383 58 c 0
 429.833482409 58 473.849865832 69.9142090467 516 94 c 1
 516 16 l 1
 473.559003689 -2.75299836987 428.644995771 -12 380 -12 c 0
 189.775961367 -12 35 143.224587342 35 334 c 0
 35 525.223392744 190.223938491 680 382 680 c 0
 569.95151757 680 719 534.047480113 719 350 c 1
 714.002292723 228.055942453 653.043151645 153 559 153 c 0xdf80
 510.886303381 153 470.959964689 178.096555749 454 219 c 1
 425.300016691 178.424161529 382.477721396 155 337 155 c 0xbf80
 256.329964849 155 200 221.609155515 200 317 c 0
 200 446.755264741 268.763575325 518 394 518 c 0
 430.675702567 518 471.632632593 511.116482348 513 498 c 1
 513 309 l 2
 513 268.055539655 534.956509295 240 567 240 c 0xdf80
 610.922445971 240 637.99291881 281.868997992 642 356 c 1
 642 499.74055048 528.267811912 610 380 610 c 0
 227.276077773 610 104 486.277269772 104 333 c 0
EndSplineSet
EndChar

StartChar: colon
Encoding: 58 58 112
Width: 243
GlyphClass: 1
Flags: W
HStem: -12 195<61.5485 181.951> 316 194<61.1255 182.161>
VStem: 24 195<25.5485 146.161 352.761 472.781>
LayerCount: 2
Fore
SplineSet
219 86 m 0
 219 31.721376135 175.724760356 -12 122 -12 c 0
 68 -12 24 32 24 86 c 0
 24 140.219559921 67.2214755433 183 122 183 c 0
 177 183 219 141 219 86 c 0
219 412 m 0
 219 358.278070359 176.281533075 316 122 316 c 0
 67.9479071115 316 24 359.051011048 24 412 c 0
 24 467 67 510 122 510 c 0
 176.219559921 510 219 466.778524457 219 412 c 0
EndSplineSet
EndChar

StartChar: semicolon
Encoding: 59 59 113
Width: 243
GlyphClass: 1
Flags: W
HStem: 316 194<61.1255 182.161>
VStem: 24 195<25.8123 146.161 352.761 472.781>
DStem2: 46 -146 136 -146 0.365652 0.930751<32.9087 146.893>
LayerCount: 2
Fore
SplineSet
122 183 m 0
 177 183 219 141 219 86 c 0
 219 73 217 61 213 50 c 2
 136 -146 l 1
 46 -146 l 1
 99 -9 l 1
 54.8687712279 2.03280719302 24 41.1332507484 24 86 c 0
 24 140.219559921 67.2214755433 183 122 183 c 0
219 412 m 0
 219 358.278070359 176.281533075 316 122 316 c 0
 67.9479071115 316 24 359.051011048 24 412 c 0
 24 467 67 510 122 510 c 0
 176.219559921 510 219 466.778524457 219 412 c 0
EndSplineSet
EndChar

StartChar: bracketleft
Encoding: 91 91 114
Width: 333
GlyphClass: 1
Flags: W
HStem: -161 115<172 300> 552 116<172 300>
VStem: 44 256<-161 -46 552 668> 44 128<-46 552>
LayerCount: 2
Fore
SplineSet
44 -161 m 1xe0
 44 668 l 1
 300 668 l 1
 300 552 l 1xe0
 172 552 l 1
 172 -46 l 1xd0
 300 -46 l 1
 300 -161 l 1
 44 -161 l 1xe0
EndSplineSet
EndChar

StartChar: backslash
Encoding: 92 92 115
Width: 442
GlyphClass: 1
Flags: W
HStem: 0 21G<268.186 427> 648 20G<15 175.754>
DStem2: 168 668 15 668 0.363926 -0.931428<0 661.498>
LayerCount: 2
Fore
SplineSet
276 0 m 1
 15 668 l 1
 168 668 l 1
 427 0 l 1
 276 0 l 1
EndSplineSet
EndChar

StartChar: bracketright
Encoding: 93 93 116
Width: 333
GlyphClass: 1
Flags: W
HStem: -161 115<33 161> 552 116<33 161>
VStem: 33 256<-161 -46 552 668> 161 128<-46 552>
LayerCount: 2
Fore
SplineSet
33 -161 m 1xe0
 33 -46 l 1xe0
 161 -46 l 1
 161 552 l 1xd0
 33 552 l 1
 33 668 l 1
 289 668 l 1
 289 -161 l 1
 33 -161 l 1xe0
EndSplineSet
EndChar

StartChar: asciicircum
Encoding: 94 94 117
Width: 589
GlyphClass: 1
Flags: W
HStem: 648 20G<227.607 361.393>
DStem2: 53 312 196 312 0.461117 0.887339<65.9398 283.734> 351 668 295 506 0.461117 -0.887339<117.926 335.26>
LayerCount: 2
Fore
SplineSet
53 312 m 1
 238 668 l 1
 351 668 l 1
 536 312 l 1
 393 312 l 1
 295 506 l 1
 196 312 l 1
 53 312 l 1
EndSplineSet
EndChar

StartChar: underscore
Encoding: 95 95 118
Width: 430
GlyphClass: 1
Flags: W
HStem: -128 128<10 420>
LayerCount: 2
Fore
SplineSet
10 -128 m 1
 10 0 l 1
 420 0 l 1
 420 -128 l 1
 10 -128 l 1
EndSplineSet
EndChar

StartChar: grave
Encoding: 96 96 119
Width: 314
GlyphClass: 1
Flags: W
HStem: 574 154<119.028 152.719>
VStem: 53 208
LayerCount: 2
Fore
SplineSet
53 671 m 0
 53 702.277248768 78.2714748948 728 109 728 c 0
 126.37038954 728 140.227265834 721.731413105 151 709 c 2
 261 574 l 1
 147 574 l 1
 77 626 77 626 72 629 c 0
 59.3025174895 641.697482511 53 655.629363277 53 671 c 0
EndSplineSet
EndChar

StartChar: exclam
Encoding: 33 33 120
Width: 283
GlyphClass: 1
Flags: W
HStem: -12 195<81.5485 201.951> 648 20G<44 238>
VStem: 44 195<25.5485 146.161 453.977 668>
LayerCount: 2
Fore
SplineSet
239 86 m 0
 239 31.721376135 195.724760356 -12 142 -12 c 0
 88 -12 44 32 44 86 c 0
 44 140.219559921 87.2214755433 183 142 183 c 0
 197 183 239 141 239 86 c 0
85 243 m 1
 44 495 l 1
 44 668 l 1
 238 668 l 1
 238 495 l 1
 196 243 l 1
 85 243 l 1
EndSplineSet
EndChar

StartChar: quotedbl
Encoding: 34 34 121
Width: 410
GlyphClass: 1
Flags: W
HStem: 434 234<54 168 243 356>
VStem: 54 114<434 551> 243 113<434 543.2>
LayerCount: 2
Fore
SplineSet
54 434 m 1
 40 668 l 1
 182 668 l 1
 168 434 l 1
 54 434 l 1
243 434 m 1
 228 668 l 1
 370 668 l 1
 356 434 l 1
 243 434 l 1
EndSplineSet
EndChar

StartChar: numbersign
Encoding: 35 35 122
Width: 783
GlyphClass: 1
Flags: W
HStem: 0 21G<134 277.835 411 554.835> 127 140<44 152 313 429 591 699> 401 140<84 192 352 469 630 738> 648 20G<228.008 371 505.008 649>
DStem2: 134 0 275 0 0.143702 0.989621<20.262 128.269 289.952 405.173 566.712 675.006> 411 0 552 0 0.143702 0.989621<20.262 128.269 290.095 405.173 566.856 675.006>
LayerCount: 2
Fore
SplineSet
313 267 m 1
 450 267 l 1
 469 401 l 1
 332 401 l 1
 313 267 l 1
134 0 m 1
 152 127 l 1
 24 127 l 1
 44 266 l 1
 172 266 l 1
 192 401 l 1
 64 401 l 1
 84 541 l 1
 212 541 l 1
 231 668 l 1
 371 668 l 1
 352 541 l 1
 489 541 l 1
 508 668 l 1
 649 668 l 1
 630 541 l 1
 759 541 l 1
 738 402 l 1
 610 402 l 1
 591 267 l 1
 719 267 l 1
 699 127 l 1
 570 127 l 1
 552 0 l 1
 411 0 l 1
 429 127 l 1
 293 127 l 1
 275 0 l 1
 134 0 l 1
EndSplineSet
EndChar

StartChar: dollar
Encoding: 36 36 123
Width: 619
GlyphClass: 1
Flags: W
HStem: -11 128<222.655 272 345 404.998> 552 126<213.267 272>
VStem: 28 162<446.259 529.426> 272 73<-87 -8.82412 120 261 420 548 675.864 747> 434 162<141.808 229.839>
LayerCount: 2
Fore
SplineSet
345 117 m 1
 402.648534904 124.079644637 434 149.442627637 434 189 c 0
 434 222.174393756 405.681867823 245.083444505 345 261 c 1
 345 117 l 1
272 552 m 1
 221.14048599 546.016527764 190 522.091520235 190 489 c 0
 190 454.121851724 219.817395 429.031604712 272 420 c 1
 272 552 l 1
596 209 m 0
 596 92.2011218955 494.257200924 3.02416652973 345 -11 c 1
 345 -87 l 1
 272 -87 l 1
 272 -10 l 1
 149.297727331 1.0633196669 62.7843395278 59.5561770074 25 157 c 1
 169 209 l 1
 182.765282697 160.82151056 217.055047747 131.192490274 272 120 c 1
 272 277 l 1
 231 286 l 2
 92.85951231 317.031558829 28 377.098496338 28 474 c 0
 28 584.451213985 125.597038315 666.048737822 272 678 c 1
 272 747 l 1
 345 747 l 1
 345 678 l 1
 454.328108363 669.054972952 532.789133095 618.514763328 567 535 c 1
 424 483 l 1
 411.114100758 515.710359614 385.358982295 536.901279869 345 548 c 1
 345 405 l 1
 356 403 l 1
 520.706542388 375.049798867 596 314.187587298 596 209 c 0
EndSplineSet
EndChar

StartChar: percent
Encoding: 37 37 124
Width: 977
GlyphClass: 1
Flags: W
HStem: -12 119<701.724 810.276> 0 21G<192 332.012> 264 118<701.766 810.323> 286 118<167.057 275.331> 561 119<167.112 275.276> 648 20G<645.018 786>
VStem: 24 119<428.195 536.37> 192 126<0 126> 300 118<428.152 536.413> 559 118<131.587 237.411> 659 127<541 668> 835 118<131.587 237.494>
DStem2: 192 0 318 0 0.573791 0.819001<72.2977 815.054>
LayerCount: 2
Fore
SplineSet
677 186 m 0xa250
 677 142 712 107 756 107 c 0
 800 107 835 142 835 186 c 0
 835 228.728175043 799.275972159 264 756 264 c 0
 712.724027841 264 677 228.728175043 677 186 c 0xa250
953 186 m 0
 953 76.7232167887 864.724880266 -12 756 -12 c 0
 647.275119734 -12 559 76.7232167887 559 186 c 0
 559 294.723485343 646.721802997 382 756 382 c 0
 865.778147877 382 953 295.220898395 953 186 c 0
143 482 m 0
 143 439 178 404 221 404 c 0
 264.775861368 404 300 438.778263459 300 482 c 0
 300 526 265 561 221 561 c 0x1a90
 177.778263459 561 143 525.775861368 143 482 c 0
192 0 m 1x4730
 659 668 l 1
 786 668 l 1
 318 0 l 1
 192 0 l 1x4730
418 482 m 0x1a90
 418 373.276514657 330.278197003 286 221 286 c 0
 111.721802997 286 24 373.276514657 24 482 c 0
 24 591.276783211 112.275119734 680 221 680 c 0
 329.724880266 680 418 591.276783211 418 482 c 0x1a90
EndSplineSet
EndChar

StartChar: ampersand
Encoding: 38 38 125
Width: 702
GlyphClass: 1
Flags: W
HStem: -13 125<216.539 368.5> 0 21G<504.642 698> 592 114<273.351 376.469>
VStem: 24 159<144.324 249.95> 121 139<480.748 580.175> 394 127<476.038 574.216> 546 127<314.118 389>
DStem2: 395 352 266 290 0.652386 -0.757887<0 143.176 274.634 349.629>
LayerCount: 2
Fore
SplineSet
183 197 m 0xb6
 183 149.067942246 227.917624134 112 286 112 c 0
 318.294749691 112 356.324211532 124.19812927 392 146 c 1
 266 290 l 1
 212.575001155 268.831604231 183 235.693349925 183 197 c 0xb6
323 592 m 0
 285.599097061 592 260 569.651581931 260 537 c 0x2e
 260 506.741417955 282.337588018 470.713050185 322 437 c 1
 367.90647262 460.951203106 394 493.930522434 394 528 c 0
 394 564.978875691 364.02344022 592 323 592 c 0
476 53 m 1
 405.513564063 9.31826505332 334.50090253 -13 266 -13 c 0
 130.882333105 -13 24 77.0991568325 24 191 c 0xb6
 24 272.507061232 81.6226514017 343.258924345 182 385 c 1
 141.580516995 437.545327907 121 488.490542107 121 536 c 0
 121 634.947121186 207.93528702 706 329 706 c 0
 431.017143378 706 521 623.984375475 521 531 c 0
 521 465.251960369 476.082447537 401.440516791 395 352 c 1
 489 244 l 1
 516.168901787 286.262736113 535.067751424 334.338757119 546 389 c 1
 673 389 l 1
 657.898721491 298.392328946 620.681198662 207.581573244 573 145 c 1
 698 0 l 1
 522 0 l 1x6e
 476 53 l 1
EndSplineSet
EndChar

StartChar: quotesingle
Encoding: 39 39 126
Width: 222
GlyphClass: 1
Flags: W
HStem: 434 234<54 168>
VStem: 54 114<434 551>
LayerCount: 2
Fore
SplineSet
54 434 m 1
 40 668 l 1
 182 668 l 1
 168 434 l 1
 54 434 l 1
EndSplineSet
EndChar

StartChar: parenleft
Encoding: 40 40 127
Width: 366
GlyphClass: 1
Flags: W
HStem: -161 21G<132.641 331> 648 20G<108.995 289>
VStem: 35 141<116.12 454.547> 145 144<524 668> 180 151<-161 -10>
LayerCount: 2
Fore
SplineSet
176 276 m 0xe0
 176 131.212826296 228.849738219 -17.7893388751 331 -161 c 1
 180 -161 l 1
 85.2816028627 -29.3912797671 35 123.53414687 35 280 c 0xe8
 35 414.981818778 72.9903000998 548.98396822 145 668 c 1
 289 668 l 1xd0
 213.420200864 553.635830255 176 423.824160001 176 276 c 0xe0
EndSplineSet
EndChar

StartChar: parenright
Encoding: 41 41 128
Width: 366
GlyphClass: 1
Flags: W
HStem: -161 21G<35 234.019> 648 20G<77 257.005>
VStem: 35 152<-161 -9> 77 144<524 668> 190 141<115.946 456.061>
LayerCount: 2
Fore
SplineSet
331 280 m 0xc8
 331 125.062493888 281.037937527 -27.9463224352 187 -161 c 1
 35 -161 l 1
 137.148210733 -19.7951204568 190 129.212827347 190 276 c 0xe8
 190 426.323184113 152.837132419 555.242158377 77 668 c 1
 221 668 l 1xd0
 293.009558254 550.984467838 331 416.981818769 331 280 c 0xc8
EndSplineSet
EndChar

StartChar: asterisk
Encoding: 42 42 129
Width: 434
GlyphClass: 1
Flags: W
HStem: 351 317
VStem: 173 88<567 668>
LayerCount: 2
Fore
SplineSet
158 351 m 1
 87 402 l 1
 146 484 l 1
 50 515 l 1
 77 598 l 1
 173 567 l 1
 173 668 l 1
 261 668 l 1
 261 567 l 1
 355 598 l 1
 383 515 l 1
 288 484 l 1
 347 402 l 1
 276 351 l 1
 217 432 l 1
 158 351 l 1
EndSplineSet
EndChar

StartChar: plus
Encoding: 43 43 130
Width: 618
GlyphClass: 1
Flags: W
HStem: 0 21G<245 373> 184 128<53 245 373 565> 476 20G<245 373>
VStem: 245 128<0 184 312 496>
LayerCount: 2
Fore
SplineSet
245 0 m 1
 245 184 l 1
 53 184 l 1
 53 312 l 1
 245 312 l 1
 245 496 l 1
 373 496 l 1
 373 312 l 1
 565 312 l 1
 565 184 l 1
 373 184 l 1
 373 0 l 1
 245 0 l 1
EndSplineSet
EndChar

StartChar: comma
Encoding: 44 44 131
Width: 243
GlyphClass: 1
Flags: W
HStem: -146 329<99.664 136>
VStem: 24 195<25.8123 146.161>
DStem2: 46 -146 136 -146 0.365652 0.930751<32.9087 146.893>
LayerCount: 2
Fore
SplineSet
122 183 m 0
 176.219559921 183 219 139.778524457 219 85 c 0
 219 72.8327740429 216.946127337 60.8518501779 213 50 c 2
 136 -146 l 1
 46 -146 l 1
 99 -9 l 1
 54.8687712279 2.03280719302 24 41.1332507484 24 86 c 0
 24 140.219559921 67.2214755433 183 122 183 c 0
EndSplineSet
EndChar

StartChar: hyphen
Encoding: 45 45 132
Width: 374
GlyphClass: 1
Flags: W
HStem: 184 129<24 350>
VStem: 24 326<184 313>
LayerCount: 2
Fore
SplineSet
24 184 m 1
 24 313 l 1
 350 313 l 1
 350 184 l 1
 24 184 l 1
EndSplineSet
EndChar

StartChar: period
Encoding: 46 46 133
Width: 243
GlyphClass: 1
Flags: W
HStem: -12 195<61.5485 181.951>
VStem: 24 195<25.5485 146.161>
LayerCount: 2
Fore
SplineSet
219 86 m 0
 219 31.721376135 175.724760356 -12 122 -12 c 0
 68 -12 24 32 24 86 c 0
 24 140.219559921 67.2214755433 183 122 183 c 0
 177 183 219 141 219 86 c 0
EndSplineSet
EndChar

StartChar: slash
Encoding: 47 47 134
Width: 442
GlyphClass: 1
Flags: W
HStem: 0 21G<15 175.754> 648 20G<268.186 427>
DStem2: 15 0 168 0 0.363926 0.931428<55.6807 717.178>
LayerCount: 2
Fore
SplineSet
15 0 m 1
 276 668 l 1
 427 668 l 1
 168 0 l 1
 15 0 l 1
EndSplineSet
EndChar

StartChar: braceleft
Encoding: 123 123 135
Width: 370
GlyphClass: 1
Flags: W
HStem: -161 120<243.258 336> 193 123<24 78.8511> 548 120<243.302 336>
VStem: 94 144<-33.6231 177.549 330.028 541.367>
LayerCount: 2
Fore
SplineSet
238 3 m 2
 238 -29.7467369568 254.624138587 -41 303 -41 c 2
 336 -41 l 1
 336 -161 l 1
 285 -161 l 2
 149.036807062 -161 94 -114.031415962 94 2 c 2
 94 97 l 2
 94 169.842960762 77.1146588889 193 24 193 c 1
 24 316 l 1
 76.9361936108 316 94 338.914254294 94 410 c 2
 94 506 l 2
 94 621.175466327 149.206703281 668 285 668 c 2
 336 668 l 1
 336 548 l 1
 303 548 l 2
 254.624138587 548 238 536.746736957 238 504 c 2
 238 381 l 2
 238 312.281607372 209.268052069 274.074229804 144 256 c 1
 144 253 l 1
 207.951451082 238.011378653 238 198.0532019 238 128 c 2
 238 3 l 2
EndSplineSet
EndChar

StartChar: bar
Encoding: 124 124 136
Width: 234
GlyphClass: 1
Flags: W
HStem: -161 21G<44 190> 648 20G<44 190>
VStem: 44 146<-161 668>
LayerCount: 2
Fore
SplineSet
44 -161 m 1
 44 668 l 1
 190 668 l 1
 190 -161 l 1
 44 -161 l 1
EndSplineSet
EndChar

StartChar: braceright
Encoding: 125 125 137
Width: 370
GlyphClass: 1
Flags: W
HStem: -161 120<34 127.742> 193 123<292.047 346> 548 120<34 127.852>
VStem: 133 144<-33.6231 177.884 329.892 541.497>
LayerCount: 2
Fore
SplineSet
277 2 m 2
 277 -114.031415962 221.963192938 -161 86 -161 c 2
 34 -161 l 1
 34 -41 l 1
 68 -41 l 2
 116.875096302 -41 133 -30.0846805737 133 3 c 2
 133 128 l 2
 133 199.182921286 161.1663765 237.040954215 226 253 c 1
 226 256 l 1
 160.335486613 274.903420521 133 311.644665968 133 381 c 2
 133 504 l 2
 133 537.084680574 116.875096302 548 68 548 c 2
 34 548 l 1
 34 668 l 1
 86 668 l 2
 222.38301422 668 277 621.675645569 277 506 c 2
 277 410 l 2
 277 339.079683011 293.941469444 316 346 316 c 1
 346 193 l 1
 294.124909289 193 277 169.17403925 277 97 c 2
 277 2 l 2
EndSplineSet
EndChar

StartChar: asciitilde
Encoding: 126 126 138
Width: 533
GlyphClass: 1
Flags: W
HStem: 167 123<287.355 379.111> 227 123<152.64 246.628>
LayerCount: 2
Fore
SplineSet
493 333 m 1x80
 485.99312005 217.886972248 444.915684621 167 359 167 c 0x80
 287 167 258 227 186 227 c 0
 157.238593389 227 145 206.403342832 145 158 c 2
 145 146 l 1
 40 184 l 1
 46.9839031382 297.737851107 89.8010853637 350 176 350 c 0x40
 246 350 277 290 347 290 c 0
 373.731449602 290 387 311.561394397 387 355 c 2
 387 370 l 1
 493 333 l 1x80
EndSplineSet
EndChar

StartChar: exclamdown
Encoding: 161 161 139
Width: 283
GlyphClass: 1
Flags: W
HStem: -161 21G<45 238> 325 194<81.1255 202.161>
VStem: 45 193<-161 49.0244 359.964 483.609>
LayerCount: 2
Fore
SplineSet
45 -161 m 1
 45 12 l 1
 86 265 l 1
 197 265 l 1
 238 12 l 1
 238 -161 l 1
 45 -161 l 1
239 421 m 0
 239 367.278070359 196.281533075 325 142 325 c 0
 87.9479071115 325 44 368.051011048 44 421 c 0
 44 476 87 519 142 519 c 0
 196.219559921 519 239 475.778524457 239 421 c 0
EndSplineSet
EndChar

StartChar: cent
Encoding: 162 162 140
Width: 520
GlyphClass: 1
Flags: W
VStem: 24 155<157.767 344.047> 244 73<-87 -8.49197 115 383 505.468 571>
LayerCount: 2
Fore
SplineSet
244 383 m 1
 200.99513451 362.997736981 179 317.992307907 179 250 c 0
 179 181.384096608 201.762927562 134.107247055 244 115 c 1
 244 383 l 1
500 107 m 1
 463.964849226 41.9365333255 399.919153827 0.989285446891 317 -10 c 1
 317 -87 l 1
 244 -87 l 1
 244 -11 l 1
 105.245895121 2.97523358489 24 99.731708684 24 251 c 0
 24 393.268292208 110.252016892 494.026330123 244 508 c 1
 244 571 l 1
 317 571 l 1
 317 507 l 1
 404.248716468 495.96855309 468.096513383 451.792780089 502 379 c 1
 375 334 l 1
 363.68499754 362.801824444 344.278313723 381.18710385 318 388 c 1
 318 109 l 1
 344.084484882 115.019496511 363.041901058 129.074132642 376 152 c 1
 500 107 l 1
EndSplineSet
EndChar

StartChar: sterling
Encoding: 163 163 141
Width: 617
GlyphClass: 1
Flags: W
HStem: -12 125<328.455 555.021> 24 110<226.881 352.519> 295 73<50 125 324 450> 558 121<265.535 412.917>
VStem: 82 160<418.245 533.999> 173 158<189.904 294.42>
LayerCount: 2
Fore
SplineSet
240 24 m 0x74
 192.120862512 24 149.196126912 12.5534038399 105 -12 c 1
 50 104 l 1
 140.311131447 148.152108708 173 187.219293076 173 251 c 0xb4
 173 266.912619303 169.630258043 281.739483914 163 295 c 1
 50 295 l 1
 50 368 l 1
 125 368 l 1
 92.7770488168 430.431967917 82 464.266888621 82 503 c 0
 82 609.928581838 180.897712369 679 334 679 c 0
 452.608685082 679 546.874025748 625.29504496 585 536 c 1
 449 486 l 1
 435.957669324 531.146529263 393.812638862 558 336 558 c 0
 279.161664952 558 242 531.117093439 242 490 c 0xb8
 242 468.179998554 247.391380512 447.288399069 258 428 c 0
 266.960053192 411.708994197 275.066578014 396.509260155 290 368 c 1
 450 368 l 1
 450 295 l 1
 324 295 l 1
 328.765973718 283.561663077 331 270.795798608 331 255 c 0
 331 206 295 158 226 115 c 1
 249.512125121 128.289462025 274.758714064 134 310 134 c 0x74
 370 134 393 113 453 113 c 0
 487.887190808 113 520.886268992 122.931761395 556 144 c 1
 600 23 l 1
 551.888821712 -1.05558914417 501.857229228 -12 440 -12 c 0xb4
 363 -12 317 24 240 24 c 0x74
EndSplineSet
EndChar

StartChar: currency
Encoding: 164 164 142
Width: 596
GlyphClass: 1
Flags: W
HStem: 102 119<236.849 359.151> 419 120<236.779 359.914>
VStem: 79 120<258.957 381.836> 397 119<258.77 381.632>
DStem2: 105 565 53 513 0.707107 -0.707107<0 98.7662 520.581 619.426> 53 127 105 75 0.707107 0.707107<0 98.9995 520.441 619.426>
LayerCount: 2
Fore
SplineSet
199 321 m 0
 199 265.721955641 243.274736084 221 298 221 c 0
 352.725263916 221 397 265.721955641 397 321 c 0
 397 375.722495303 353.280888112 419 298 419 c 0
 242.719111888 419 199 375.722495303 199 321 c 0
516 321 m 0
 516 275.224731799 502.128583386 231.182984049 476 194 c 1
 543 127 l 1
 491 75 l 1
 424 142 l 1
 387.403147508 115.294188722 345.526453034 102 298 102 c 0
 250.473546966 102 208.596852492 115.294188722 172 142 c 1
 105 75 l 1
 53 127 l 1
 120 194 l 1
 93.1872813565 231.736418832 79 275.682387911 79 321 c 0
 79 365.158675548 93.0965031198 408.135819206 120 446 c 1
 53 513 l 1
 105 565 l 1
 172 498 l 1
 207.62711624 524.72033718 251.510958077 539 298 539 c 0
 344.489213192 539 386.586665033 525.301622813 424 498 c 1
 491 565 l 1
 543 513 l 1
 476 446 l 1
 502.893247352 409.146290665 516 368.187688641 516 321 c 0
EndSplineSet
EndChar

StartChar: yen
Encoding: 165 165 143
Width: 687
GlyphClass: 1
Flags: W
HStem: 0 21G<265 422> 75 74<136 265 422 552> 212 74<136 249 438 552> 647 20G<10 205.641 480.359 677>
VStem: 10 184<483 667> 265 157<0 75 149 212> 492 185<482 667>
DStem2: 194 667 10 667 0.531397 -0.847123<0 296.042> 343 411 438 286 0.531397 0.847123<0 296.042>
LayerCount: 2
Fore
SplineSet
265 0 m 1
 265 75 l 1
 136 75 l 1
 136 149 l 1
 265 149 l 1
 265 212 l 1
 136 212 l 1
 136 286 l 1
 249 286 l 1
 10 667 l 1
 194 667 l 1
 343 411 l 1
 492 667 l 1
 677 667 l 1
 438 286 l 1
 552 286 l 1
 552 212 l 1
 422 212 l 1
 422 149 l 1
 552 149 l 1
 552 75 l 1
 422 75 l 1
 422 0 l 1
 265 0 l 1
EndSplineSet
EndChar

StartChar: brokenbar
Encoding: 166 166 144
Width: 216
GlyphClass: 1
Flags: W
HStem: -161 21G<44 172> 648 20G<44 172>
VStem: 44 128<-161 150 358 668>
LayerCount: 2
Fore
SplineSet
44 -161 m 1
 44 150 l 1
 172 150 l 1
 172 -161 l 1
 44 -161 l 1
44 358 m 1
 44 668 l 1
 172 668 l 1
 172 358 l 1
 44 358 l 1
EndSplineSet
EndChar

StartChar: section
Encoding: 167 167 145
Width: 578
GlyphClass: 1
Flags: W
HStem: -173 117<220.505 338.755> 565 115<220.23 344.103>
VStem: 21 149<271.339 340.577> 68 149<497.739 556.918> 351 151<-43.1854 36.688> 398 153<195.17 266.777>
DStem2: 356 184 162 125 0.895856 -0.444345<-215.681 13.9143> 278 474 211 352 0.89735 -0.44132<-19.2655 211.208>
LayerCount: 2
Fore
SplineSet
356 184 m 1xe4
 385.356353914 196.721086696 398 210.568889552 398 230 c 0
 398 255.437438357 380.979742954 270.46831471 321 298 c 1
 211 352 l 1
 183.70227335 338.856650132 170 323.817569625 170 307 c 0
 170 285 185 270 231 246 c 1
 356 184 l 1xe4
502 5 m 0xc8
 502 -101.004444484 410.994382072 -173 277 -173 c 0
 171.815140343 -173 95.9439062131 -123.843989155 64 -35 c 1
 194 12 l 1
 206.095800419 -32.3512682039 236.3522661 -56 281 -56 c 0
 323.928597708 -56 351 -37.0500183959 351 -7 c 0
 351 22.2030797336 328.642210852 45.1651334527 277 69 c 1
 162 125 l 2
 65.8242000198 171.084237491 21 225.127599217 21 295 c 0xe8
 21 342.291113919 52.3355403629 388.201324218 107 421 c 1
 81.2295816903 453.708607855 68 489.665932449 68 527 c 0
 68 618.257163143 154.359262009 680 282 680 c 0
 382.959825296 680 454.986462468 641.029065878 489 568 c 1
 359 521 l 1
 346.029394576 550.932166364 321.090962221 565 281 565 c 0
 241.234980392 565 217 552.125166667 217 531 c 0
 217 512.407290358 234.024637158 496.499022849 278 474 c 2
 400 414 l 2
 509.250755061 361.360999834 551 315.464478908 551 248 c 0xd4
 551 194.273857836 518.308161994 147.169489097 458 114 c 1
 487.41296445 82.5585552433 502 46.4224899031 502 5 c 0xc8
EndSplineSet
EndChar

StartChar: dieresis
Encoding: 168 168 146
Width: 452
GlyphClass: 1
Flags: W
HStem: 578 141<79.875 179.625 273.875 374.17>
VStem: 59 141<598.375 698.125> 253 140<598.269 698.125>
LayerCount: 2
Fore
SplineSet
393 648 m 0
 393 608.71699481 362.721819402 578 324 578 c 0
 284.72105084 578 253 609.274275476 253 648 c 0
 253 687 285 719 324 719 c 0
 362.936639994 719 393 688.065238254 393 648 c 0
200 648 m 0
 200 609 169 578 130 578 c 0
 90.7210508402 578 59 609.274275476 59 648 c 0
 59 687 91 719 130 719 c 0
 168.725724524 719 200 687.27894916 200 648 c 0
EndSplineSet
EndChar

StartChar: copyright
Encoding: 169 169 147
Width: 798
GlyphClass: 1
Flags: W
HStem: -12 69<293.226 503.532> 145 85<355.662 463.987> 437 85<356.488 458.564> 610 69<293.42 503.549>
VStem: 53 70<228.688 438.774> 218 112<257.572 410.899> 675 70<228.616 439.057>
LayerCount: 2
Fore
SplineSet
563 231 m 1
 530.911602234 175.84806634 472.802454013 145 401 145 c 0
 286.872983863 145 218 216.131114481 218 334 c 0
 218 445.989071264 291.989361482 522 401 522 c 0
 477.888336929 522 534.957793201 489.088779819 564 428 c 1
 472 394 l 1
 460.88127943 422.302197814 438.663671474 437 407 437 c 0
 359.077641468 437 330 398.10393414 330 334 c 0
 330 269.084390683 358.937481563 230 407 230 c 0
 438.324370263 230 460.132554223 241.23451901 473 264 c 1
 563 231 l 1
123 334 m 0
 123 180.94726926 246.052343128 57 398 57 c 0
 551 57 675 181 675 334 c 0
 675 486.723922227 551.277269772 610 398 610 c 0
 246.775299048 610 123 485.774608956 123 334 c 0
745 334 m 0
 745 142.776607256 589.776061509 -12 398 -12 c 0
 207.775961367 -12 53 143.224587342 53 334 c 0
 53 524 208 679 398 679 c 0
 589.550925502 679 745 524.446885586 745 334 c 0
EndSplineSet
EndChar

StartChar: questiondown
Encoding: 191 191 148
Width: 614
GlyphClass: 1
Flags: W
HStem: -172 122<228.112 394.772> 324 195<289.932 410.372>
VStem: 50 156<-29.1359 43.793> 253 194<360.932 481.995>
LayerCount: 2
Fore
SplineSet
574 -28 m 1
 536.980945174 -120.047379568 439.93056395 -172 305 -172 c 0
 151.701629701 -172 50 -103.800083612 50 -1 c 0
 50 177 260 144 273 255 c 1
 274 265 l 1
 428 265 l 1
 428 253 l 1
 425.991989812 166.655561918 397.607643159 128.80976638 299 81 c 0
 213.671987558 40.3203661612 206 34.2157739111 206 7 c 0
 206 -27.1000625782 248.184095251 -50 311 -50 c 0
 375.750227831 -50 420.93792798 -24.1784570579 437 22 c 1
 574 -28 l 1
447 421 m 0
 447 366 405 324 350 324 c 0
 296 324 253 367 253 421 c 0
 253 475.778524457 295.780440079 519 350 519 c 0
 404.719670434 519 447 476.283790748 447 421 c 0
EndSplineSet
EndChar

StartChar: germandbls
Encoding: 223 223 149
Width: 621
GlyphClass: 1
Flags: W
HStem: -12 126<319.254 411.397> 0 21G<44 197> 298 117<278 387.735> 556 123<230.634 389.702>
VStem: 44 153<0 519.66> 410 147<437.181 534.783> 443 156<143.849 260.369>
LayerCount: 2
Fore
SplineSet
504 370 m 1x7c
 565.167975579 337.911881664 599 278.794870569 599 204 c 0
 599 67.2189270288 510.245461384 -12 357 -12 c 2
 338 -12 l 2
 328.696938457 -12 324.4267859 -11.7752551286 319 -11 c 1
 278 123 l 1
 300.162063166 116.955800955 322.166359163 114 345 114 c 0
 402.083358328 114 443 149.071407147 443 198 c 0xba
 443 264.209118397 397.720218653 298 309 298 c 2
 278 298 l 1
 278 415 l 1
 304 415 l 2
 374.585117424 415 410 438.721289273 410 486 c 0
 410 530.973687854 376.035719231 556 315 556 c 0
 227.1968388 556 197 522.22048541 197 424 c 2
 197 0 l 1
 44 0 l 1
 44 435 l 2
 44 602.347460779 130.391181499 679 319 679 c 0
 466.075277429 679 557 607.941183201 557 493 c 0
 557 444.707150351 536.801628752 397.831685001 504 370 c 1x7c
EndSplineSet
EndChar

StartChar: AE
Encoding: 198 198 150
Width: 1016
GlyphClass: 1
Flags: W
HStem: 0 139<639 994> 119 128<341 481> 275 138<639 857> 528 139<639 994>
DStem2: 5 0 177 0 0.580892 0.813981<99.9134 243.248 396.233 602.496>
AnchorPoint: "Anchor-0" 698 668 basechar 0
LayerCount: 2
Fore
SplineSet
341 247 m 1x70
 481 247 l 1
 481 453 l 1
 341 247 l 1x70
5 0 m 1xb0
 481 667 l 1
 994 667 l 1
 994 528 l 1
 639 528 l 1
 639 413 l 1
 857 413 l 1
 857 275 l 1
 639 275 l 1
 639 139 l 1
 994 139 l 1
 994 0 l 1
 481 0 l 1xb0
 481 119 l 1
 257 119 l 1x70
 177 0 l 1
 5 0 l 1xb0
EndSplineSet
EndChar

StartChar: florin
Encoding: 402 402 151
Width: 377
GlyphClass: 1
Flags: W
HStem: -174 141<16.1144 143.585> 381 115<15 97 249 357> 608 121<256.759 357>
VStem: 97 152<-25.5883 381 496 602.699>
LayerCount: 2
Fore
SplineSet
249 -16 m 2
 249 -119.828095174 195.170955331 -174 92 -174 c 0
 71.3774134775 -174 44.0005122972 -170.444558288 15 -164 c 1
 15 -31 l 1
 33.7958336777 -32.7087121525 38.1651513899 -33 45 -33 c 0
 83.1390353345 -33 97 -13.8078950786 97 39 c 2
 97 381 l 1
 15 381 l 1
 15 496 l 1
 97 496 l 1
 97 578 l 2
 97 688.840380833 147.79792888 729 288 729 c 2
 357 729 l 1
 357 608 l 1
 315 608 l 2
 261 608 249 600 249 564 c 2
 249 496 l 1
 357 496 l 1
 357 381 l 1
 249 381 l 1
 249 -16 l 2
EndSplineSet
EndChar

StartChar: integral
Encoding: 8747 8747 152
Width: 486
GlyphClass: 1
Flags: W
HStem: -174 144<81.9195 141.934> 536 144<344.613 408.672>
VStem: 41 113<-104.605 -42.2918> 172 135<208.004 559.132> 180 135<-53.1315 297.996> 333 112<548.292 610.12>
LayerCount: 2
Fore
SplineSet
315 118 m 2xec
 315 107 l 2
 315 -80.6668150787 257.206497593 -174 141 -174 c 0
 92.0555453394 -174 41 -128.050009195 41 -84 c 0
 41.9981556357 -54.0553309284 66.9444247467 -30 97 -30 c 0
 128.777088699 -30 154 -54.7804040855 154 -86 c 0
 154 -92.8343882279 153.050316468 -98.8490505949 151 -105 c 1
 171.92496112 -95.0357327998 180 -65.2416238304 180 2 c 0xec
 180 85 172 305 172 388 c 2
 172 399 l 2
 172 586.666815079 229.793502407 680 346 680 c 0
 399.950008678 680 445 639.045462434 445 590 c 0
 444.001844364 560.055330928 419.055575253 536 389 536 c 0
 357 536 333 560 333 592 c 0
 333 598.834388228 333.949683532 604.849050595 336 611 c 1
 316.860359488 601.933854494 307 565.552528109 307 504 c 0xf4
 307 421 315 201 315 118 c 2xec
EndSplineSet
EndChar

StartChar: approxequal
Encoding: 8776 8776 153
Width: 532
GlyphClass: 1
Flags: W
HStem: 59 123<285.805 378.507> 118 125<152.296 244.721> 257 123<287.048 378.441> 317 124<152.254 244.721>
VStem: 41 104<92.4423 113.534 291.442 312.187> 387 104<187.673 208.558 385.776 406.49>
LayerCount: 2
Fore
SplineSet
41 95 m 1x4c
 52.3758596435 197.382736791 93.6779763325 243 175 243 c 0x4c
 245 243 277 182 347 182 c 0
 373.048410051 182 386.001853261 202.077836976 387 244 c 1
 491 206 l 1
 480.981022443 104.808326673 439.847014818 59 359 59 c 0x8c
 287 59 257 118 185 118 c 0
 157.90154272 118 145.996386916 99.8446373985 145 57 c 1
 41 95 l 1x4c
185 317 m 0x1c
 157.90154272 317 145.996386916 298.844637399 145 256 c 1
 41 294 l 1
 50.9350407832 394.34391191 93.4650802664 441 175 441 c 0x1c
 245 441 277 380 347 380 c 0x2c
 372.942655175 380 385.997782162 399.909068656 387 441 c 1x1c
 491 404 l 1
 481.042946176 303.433756383 439.3473282 257 359 257 c 0x2c
 287 257 257 317 185 317 c 0x1c
EndSplineSet
EndChar

StartChar: notequal
Encoding: 8800 8800 154
Width: 594
GlyphClass: 1
Flags: W
HStem: 0 21G<47 214.167> 96 129<41 114 357 553> 283 127<41 245 487 553> 475 20G<380.118 547>
LayerCount: 2
Fore
SplineSet
47 0 m 1
 114 96 l 1
 41 96 l 1
 41 225 l 1
 204 225 l 1
 245 283 l 1
 41 283 l 1
 41 410 l 1
 335 410 l 1
 394 495 l 1
 547 495 l 1
 487 410 l 1
 553 410 l 1
 553 283 l 1
 397 283 l 1
 357 225 l 1
 553 225 l 1
 553 96 l 1
 268 96 l 1
 200 0 l 1
 47 0 l 1
EndSplineSet
EndChar

StartChar: lessequal
Encoding: 8804 8804 155
Width: 594
GlyphClass: 1
Flags: W
HStem: 0 128<41 553> 490 20G<470.419 553>
LayerCount: 2
Fore
SplineSet
41 0 m 1
 41 128 l 1
 553 128 l 1
 553 0 l 1
 41 0 l 1
553 136 m 1
 41 260 l 1
 41 386 l 1
 553 510 l 1
 553 381 l 1
 216 324 l 1
 553 265 l 1
 553 136 l 1
EndSplineSet
EndChar

StartChar: greaterequal
Encoding: 8805 8805 156
Width: 594
GlyphClass: 1
Flags: W
HStem: 0 128<41 553> 490 20G<41 123.581>
LayerCount: 2
Fore
SplineSet
41 0 m 1
 41 128 l 1
 553 128 l 1
 553 0 l 1
 41 0 l 1
41 136 m 1
 41 265 l 1
 378 324 l 1
 41 381 l 1
 41 510 l 1
 553 386 l 1
 553 260 l 1
 41 136 l 1
EndSplineSet
EndChar

StartChar: lozenge
Encoding: 9674 9674 157
Width: 607
GlyphClass: 1
Flags: W
DStem2: 41 313 179 313 0.546521 0.837445<75.4199 302.012> 179 313 41 313 0.545572 -0.838064<0 226.591> 304 716 304 502 0.545061 -0.838396<179.417 405.461> 304 124 304 -91 0.544112 0.839013<0 226.043>
LayerCount: 2
Fore
SplineSet
304 124 m 1
 428 313 l 1
 304 502 l 1
 179 313 l 1
 304 124 l 1
304 -91 m 1
 41 313 l 1
 304 716 l 1
 566 313 l 1
 304 -91 l 1
EndSplineSet
EndChar

StartChar: summation
Encoding: 8721 8721 158
Width: 617
GlyphClass: 1
Flags: W
HStem: -162 128<211 576> 540 128<211 576>
DStem2: 211 540 41 540 0.641239 -0.767341<0 262.423> 41 -34 211 -34 0.638606 0.769534<108.563 372.975>
LayerCount: 2
Fore
SplineSet
41 -162 m 1
 41 -34 l 1
 278 254 l 1
 41 540 l 1
 41 668 l 1
 576 668 l 1
 576 540 l 1
 211 540 l 1
 450 254 l 1
 211 -34 l 1
 576 -34 l 1
 576 -162 l 1
 41 -162 l 1
EndSplineSet
EndChar

StartChar: minus
Encoding: 8722 8722 159
Width: 594
GlyphClass: 1
Flags: W
HStem: 184 128<41 553>
LayerCount: 2
Fore
SplineSet
41 184 m 1
 41 312 l 1
 553 312 l 1
 553 184 l 1
 41 184 l 1
EndSplineSet
EndChar

StartChar: uni2215
Encoding: 8725 8725 160
Width: 651
GlyphClass: 1
Flags: W
HStem: 0 21G<15 182.012> 648 20G<468.988 636>
VStem: 15 153<0 153> 483 153<515 668>
DStem2: 15 0 168 0 0.573791 0.819001<87.7901 815.627>
LayerCount: 2
Fore
SplineSet
15 0 m 1
 483 668 l 1
 636 668 l 1
 168 0 l 1
 15 0 l 1
EndSplineSet
EndChar

StartChar: uni2219
Encoding: 8729 8729 161
Width: 277
GlyphClass: 1
Flags: W
HStem: 157 194<78.5485 198.951>
VStem: 41 195<194.548 314.658>
LayerCount: 2
Fore
SplineSet
236 255 m 0
 236 200.721376135 192.724760356 157 139 157 c 0
 85 157 41 201 41 255 c 0
 41 308.938789085 83.9374861419 351 139 351 c 0
 193.781421858 351 236 309.216664931 236 255 c 0
EndSplineSet
EndChar

StartChar: radical
Encoding: 8730 8730 162
Width: 709
GlyphClass: 1
Flags: W
HStem: -162 21G<284.373 454.277> 93 132<41 183> 648 20G<518.679 668>
VStem: 524 144<524 668>
DStem2: 354 29 449 -162 0.255124 0.966908<0 661.226>
LayerCount: 2
Fore
SplineSet
293 -162 m 1
 183 93 l 1
 41 93 l 1
 41 225 l 1
 274 225 l 1
 354 29 l 1
 524 668 l 1
 668 668 l 1
 449 -162 l 1
 293 -162 l 1
EndSplineSet
EndChar

StartChar: infinity
Encoding: 8734 8734 163
Width: 749
GlyphClass: 1
Flags: W
HStem: 97 107<172.191 276.985 471.741 576.809> 306 106<171.505 277.711 470.021 577.753>
VStem: 41 120<216.431 295.074> 588 120<216.431 295.312>
LayerCount: 2
Fore
SplineSet
441 256 m 1
 469.58231533 220.518505108 497.536708589 204 529 204 c 0
 563.019232971 204 588 226.016947212 588 256 c 0
 588 285.754528762 563.300525089 306 527 306 c 0
 498.11987644 306 469.116949224 289.137833013 441 256 c 1
161 256 m 0
 161 226.016947212 185.980767029 204 220 204 c 0
 251.463291411 204 279.41768467 220.518505108 308 256 c 1
 279.235599257 289.723780181 251.240501169 306 222 306 c 0
 186.309443284 306 161 285.254554685 161 256 c 0
374 176 m 1
 321.604843939 120.582046473 273.545230239 97 213 97 c 0
 113.968352386 97 41 164.02906789 41 255 c 0
 41 344.102295982 117.114623613 412 217 412 c 0
 275.210723197 412 325.176411445 387.812787855 374 336 c 1
 423.525626678 387.506651745 474.446008576 412 532 412 c 0
 632.94586571 412 708 345.048300662 708 255 c 0
 708 164.02906789 635.031647614 97 536 97 c 0
 475.107544039 97 426.092088523 120.902598678 374 176 c 1
EndSplineSet
EndChar

StartChar: uni03A9
Encoding: 937 937 164
Width: 656
GlyphClass: 1
Flags: W
HStem: 0 115<35 172 484 621> 564 116<246.607 409.105>
VStem: 35 121<312.171 474.004> 353 268<0 115> 499 122<309.696 473.955>
LayerCount: 2
Fore
SplineSet
156 392 m 0xe8
 156 307.714092925 219.283592297 234.959486815 303 223 c 1
 303 0 l 1
 35 0 l 1
 35 115 l 1
 172 115 l 1
 172 139 l 1
 87.106243581 192.932504078 35 286.875877542 35 386 c 0
 35 548.776509274 165.777152322 680 328 680 c 0
 490.222847678 680 621 548.776509274 621 386 c 0xe8
 621 286.375591694 569.32222069 193.204704909 484 139 c 1
 484 115 l 1
 621 115 l 1
 621 0 l 1
 353 0 l 1
 353 223 l 1xf0
 436.885277539 234.983611077 499 306.883529542 499 392 c 0
 499 487.777877251 423.221029127 564 328 564 c 0
 232 564 156 488 156 392 c 0xe8
EndSplineSet
EndChar

StartChar: estimated
Encoding: 8494 8494 165
Width: 604
GlyphClass: 1
Flags: W
HStem: -12 70<213.498 389.812> 249 66<178 426> 440 70<213.598 389.052>
VStem: 41 137<147.164 249 315 350.625>
LayerCount: 2
Fore
SplineSet
303 440 m 0
 255.738784891 440 211.813604954 423.835533783 178 394 c 1
 178 315 l 1
 426 315 l 1
 426 394 l 1
 391.324925756 424.712208616 350.446700969 440 303 440 c 0
518 103 m 1
 468.887955845 30.8353636911 388.804449814 -12 303 -12 c 0
 157.722120353 -12 41 104.276616077 41 249 c 0
 41 393.223348428 158.224071693 510 303 510 c 0
 446.724239054 510 563 393.277024588 563 249 c 1
 178 249 l 1
 178 104 l 1
 211.813604954 74.1644662168 255.738784891 58 303 58 c 0
 359.700366586 58 413.808276647 83.7656714579 450 128 c 1
 518 103 l 1
EndSplineSet
EndChar

StartChar: partialdiff
Encoding: 8706 8706 166
Width: 597
GlyphClass: 1
Flags: W
HStem: -16 123<234.224 359.061> 315 120<233.695 358.953> 561 119<172 327.92>
VStem: 41 151<148.852 274.647> 399 157<165.362 397.995>
LayerCount: 2
Fore
SplineSet
192 211 m 0
 192 153 238 107 296 107 c 0
 353.721416039 107 399 152.718181864 399 211 c 0
 399 269.781713294 354.216504513 315 296 315 c 0
 237 315 192 270 192 211 c 0
172 680 m 1
 443.715150287 680 556 573.27091108 556 315 c 0
 556 105.808671717 458.84746425 -16 292 -16 c 0
 152.094285967 -16 41 84.9143314758 41 212 c 0
 41 336.221058023 140.221896874 435 265 435 c 0
 338.513413416 435 402.739326273 406.334197087 442 356 c 1
 432.98027769 495.304600125 357.670916858 561 207 561 c 0
 189.372521918 561 181.196945086 560.766412091 172 560 c 1
 172 680 l 1
EndSplineSet
EndChar

StartChar: uni0394
Encoding: 916 916 167
Width: 715
GlyphClass: 1
Flags: W
HStem: 0 115<229 485> 660 20G<347.706 366.324>
DStem2: 41 0 229 115 0.421425 0.906863<183.517 512.239> 357 680 357 418 0.422521 -0.906353<237.465 566.172>
LayerCount: 2
Fore
SplineSet
229 115 m 1
 485 115 l 1
 357 418 l 1
 229 115 l 1
41 0 m 1
 357 680 l 1
 674 0 l 1
 41 0 l 1
EndSplineSet
EndChar

StartChar: product
Encoding: 8719 8719 168
Width: 614
GlyphClass: 1
Flags: W
HStem: -161 21G<41 169 445 573> 552 116<169 445>
VStem: 41 128<-161 552> 445 128<-161 552>
LayerCount: 2
Fore
SplineSet
41 -161 m 1
 41 668 l 1
 573 668 l 1
 573 -161 l 1
 445 -161 l 1
 445 552 l 1
 169 552 l 1
 169 -161 l 1
 41 -161 l 1
EndSplineSet
EndChar

StartChar: pi
Encoding: 960 960 169
Width: 626
GlyphClass: 1
Flags: W
HStem: 0 105<518.977 602> 380 116<13 104 232 386 514 602>
VStem: 104 128<0 380> 386 128<109.508 380>
LayerCount: 2
Fore
SplineSet
524 0 m 2
 415.618210248 0 386 25.3257160093 386 118 c 2
 386 380 l 1
 232 380 l 1
 232 0 l 1
 104 0 l 1
 104 380 l 1
 13 380 l 1
 13 496 l 1
 602 496 l 1
 602 380 l 1
 514 380 l 1
 514 151 l 2
 514 115.018178868 525.978257342 105 569 105 c 2
 602 105 l 1
 602 0 l 1
 524 0 l 2
EndSplineSet
EndChar

StartChar: hungarumlaut
Encoding: 733 733 170
Width: 490
GlyphClass: 1
Flags: W
HStem: 574 153<146.003 151 349.003 354>
LayerCount: 2
Fore
SplineSet
392 727 m 0
 424 727 448 703 448 671 c 0
 448 652.729551081 441.509496557 638.382122418 429 629 c 2
 354 574 l 1
 240 574 l 1
 349 707 l 2
 360.016229954 720.019180854 375.024991117 727 392 727 c 0
189 727 m 0
 221 727 245 703 245 671 c 0
 245 652.729551081 238.509496557 638.382122418 226 629 c 2
 151 574 l 1
 37 574 l 1
 146 707 l 2
 157.016229954 720.019180854 172.024991117 727 189 727 c 0
EndSplineSet
EndChar

StartChar: tilde
Encoding: 732 732 171
Width: 444
GlyphClass: 1
Flags: W
HStem: 569 79<226.99 326.085> 607 82<130.692 225.378>
LayerCount: 2
Fore
SplineSet
407 649 m 0x40
 407 609.857058426 349.800118203 569 295 569 c 0x80
 241 569 223 607 169 607 c 0
 146.467502605 607 130.085562714 594.427813572 126 574 c 1
 37 574 l 1
 48.9550126611 648.718829132 92.7388940398 689 162 689 c 0x40
 221 689 227 648 286 648 c 0x80
 323 648 328 689 365 689 c 0
 390.10008489 689 407 672.904842752 407 649 c 0x40
EndSplineSet
EndChar

StartChar: endash
Encoding: 8211 8211 172
Width: 508
GlyphClass: 1
Flags: W
HStem: 185 128<41 467>
LayerCount: 2
Fore
SplineSet
41 185 m 1
 41 313 l 1
 467 313 l 1
 467 185 l 1
 41 185 l 1
EndSplineSet
EndChar

StartChar: emdash
Encoding: 8212 8212 173
Width: 842
GlyphClass: 1
Flags: W
HStem: 185 128<41 801>
LayerCount: 2
Fore
SplineSet
41 185 m 1
 41 313 l 1
 801 313 l 1
 801 185 l 1
 41 185 l 1
EndSplineSet
EndChar

StartChar: trademark
Encoding: 8482 8482 174
Width: 935
GlyphClass: 1
Flags: W
HStem: 301 367<162 271 415 522 787 894> 575 93<41 162 271 391>
VStem: 162 109<301 575> 415 107<301 558> 787 107<301 558>
DStem2: 654 432 703 301 0.310675 0.950516<0 161.085>
LayerCount: 2
Fore
SplineSet
162 301 m 1xb8
 162 575 l 1
 41 575 l 1
 41 668 l 1
 391 668 l 1
 391 575 l 1
 271 575 l 1x78
 271 301 l 1
 162 301 l 1xb8
415 301 m 1xb8
 415 668 l 1xb8
 588 668 l 1
 654 432 l 1
 721 668 l 1x78
 894 668 l 1
 894 301 l 1
 787 301 l 1
 787 558 l 1
 703 301 l 1
 606 301 l 1
 522 558 l 1
 522 301 l 1
 415 301 l 1xb8
EndSplineSet
EndChar

StartChar: uni2113
Encoding: 8467 8467 175
Width: 504
GlyphClass: 1
Flags: W
HStem: -12 122<272.849 384.94> 573 107<266.849 334.044>
VStem: 106 151<125.288 157 265 279.483 373 566.973> 339 124<443.95 569.21>
LayerCount: 2
Fore
SplineSet
299 573 m 0
 269.91660344 573 257 550.857251247 257 501 c 2
 257 373 l 1
 311.403057777 413.555006706 339 463.364121938 339 521 c 0
 339 556.050018129 325.961552407 573 299 573 c 0
455 52 m 1
 409.966986958 10.9699214508 348.953133104 -12 285 -12 c 0
 173.907032143 -12 112.994149374 41.086087776 106 144 c 1
 106 157 l 1
 41 112 l 1
 41 218 l 1
 106 265 l 1
 106 452 l 2
 106 603.30119584 170.252068397 680 297 680 c 0
 401.655666563 680 463 625.307461755 463 532 c 0
 463 442.174654433 412.302322068 376.218452075 257 264 c 1
 257 191 l 2
 257 134.911253172 276.067872798 110 319 110 c 0
 345.486336854 110 372.5007316 120.60058528 398 141 c 1
 455 52 l 1
EndSplineSet
EndChar

StartChar: Lslash
Encoding: 321 321 176
Width: 586
GlyphClass: 1
Flags: W
HStem: 0 139<251 571> 416 122<289 411> 648 20G<93 251>
VStem: 93 158<139 226 441 668>
DStem2: 13 300 93 226 0.858253 0.513227<0 30.6815 276.629 401.119>
LayerCount: 2
Fore
SplineSet
93 0 m 1
 93 226 l 1
 13 178 l 1
 13 300 l 1
 93 347 l 1
 93 668 l 1
 251 668 l 1
 251 441 l 1
 411 538 l 1
 411 416 l 1
 251 321 l 1
 251 139 l 1
 571 139 l 1
 571 0 l 1
 93 0 l 1
EndSplineSet
EndChar

StartChar: lslash
Encoding: 322 322 177
Width: 322
GlyphClass: 1
Flags: W
HStem: 0 124<218.012 319> 485 20G<286.077 319> 648 20G<59 212>
VStem: 59 153<133.956 228 440 668>
LayerCount: 2
Fore
SplineSet
212 179 m 2
 212 135.923032714 226.090856844 124 277 124 c 2
 319 124 l 1
 319 0 l 1
 224 0 l 2
 94.8056614467 0 59 30.1635572188 59 139 c 2
 59 228 l 1
 5 195 l 1
 5 317 l 1
 59 349 l 1
 59 668 l 1
 212 668 l 1
 212 440 l 1
 319 505 l 1
 319 383 l 1
 212 319 l 1
 212 179 l 2
EndSplineSet
EndChar

StartChar: oslash
Encoding: 248 248 178
Width: 573
GlyphClass: 1
Flags: W
HStem: -12 118<224.369 351.104> 392 118<222.57 340.711>
VStem: 24 155<195.845 346.76> 394 155<153.269 315.363>
DStem2: 36 22 92 -26 0.653148 0.75723<0.229281 74.9226 227.563 451.228 600.314 662.943>
AnchorPoint: "Anchor-0" 287 496 basechar 0
LayerCount: 2
Fore
SplineSet
287 106 m 0
 356.923631362 106 394 155.897169009 394 250 c 0
 394 274.162355501 391.429742809 295.366977325 386 316 c 1
 223 126 l 1
 240.138482959 112.894101266 262.199607012 106 287 106 c 0
185 194 m 1
 342 377 l 1
 325.870706542 387.080808411 307.833670717 392 287 392 c 0
 257.233919016 392 231.166990922 381.166990922 210 360 c 0
 189.296396999 339.296396999 179 302.760794746 179 250 c 0
 179 228.833009078 181.031189202 209.875243192 185 194 c 1
549 250 m 0
 549 91 446 -12 287 -12 c 0
 233.243327667 -12 180.19138921 1.88607785112 138 27 c 1
 92 -26 l 1
 36 22 l 1
 82 75 l 1
 43.6269330407 121.451607372 24 180.670801891 24 250 c 0
 24 409.081758308 126.082682943 510 287 510 c 0
 337.296536964 510 385.414369794 498.314240598 427 476 c 1
 469 524 l 1
 525 476 l 1
 486 431 l 1
 527.812708798 385.20512846 549 324.333704529 549 250 c 0
EndSplineSet
EndChar

StartChar: Oslash
Encoding: 216 216 179
Width: 763
GlyphClass: 1
Flags: W
HStem: -12 130<297.276 464.783> 549 130<296.225 465.332>
VStem: 35 167<223.509 443.982> 560 168<223.394 445.85>
DStem2: 70 36 126 -12 0.652053 0.758174<0.122628 79.6332 238.95 621.956 777.633 848.091>
AnchorPoint: "Anchor-0" 382 668 basechar 0
LayerCount: 2
Fore
SplineSet
272 157 m 1
 302.623096832 131.316112334 339.498484835 118 380 118 c 0
 488.66688771 118 560 203.599734748 560 334 c 0
 560 383.914866409 550.661074441 425.606498369 532 459 c 1
 272 157 l 1
380 549 m 0
 273.099979928 549 202 463.120810761 202 334 c 0
 202 290.498587559 210.181304567 250.614727795 226 217 c 1
 483 516 l 1
 453.878022999 538.092534277 419.833508772 549 380 549 c 0
728 334 m 0
 728 127.097691311 588.098275792 -12 380 -12 c 0
 303.67207349 -12 232.756663302 8.1622244651 176 46 c 1
 126 -12 l 1
 70 36 l 1
 120 95 l 1
 64.6020123347 156.441404502 35 239.675298007 35 334 c 0
 35 540 174 679 380 679 c 0
 455.377820673 679 523.273637045 660.825867335 578 626 c 1
 623 679 l 1
 679 631 l 1
 635 579 l 1
 695.292481844 516.697768761 728 430.532801576 728 334 c 0
EndSplineSet
EndChar

StartChar: Thorn
Encoding: 222 222 180
Width: 615
GlyphClass: 1
Flags: W
HStem: 0 21G<44 203> 128 141<203 396.72> 425 137<203 396.593> 647 20G<44 203>
VStem: 44 159<0 128 269 425 562 667> 426 167<294.852 402.176>
LayerCount: 2
Fore
SplineSet
426 346 m 0
 426 404.169374207 391.721755025 425 296 425 c 2
 203 425 l 1
 203 269 l 1
 296 269 l 2
 390.772883581 269 426 289.865292033 426 346 c 0
593 343 m 0
 593 193.748231582 500.646670057 128 291 128 c 2
 203 128 l 1
 203 0 l 1
 44 0 l 1
 44 667 l 1
 203 667 l 1
 203 562 l 1
 291 562 l 2
 500.303769773 562 593 494.779886028 593 343 c 0
EndSplineSet
EndChar

StartChar: ae
Encoding: 230 230 181
Width: 883
GlyphClass: 1
Flags: W
HStem: -12 118<538.278 690.22> -12 103<195.182 322.856> 209 90<208.922 353 493 719> 396 114<535.071 681.365> 407 103<206.857 335.393>
VStem: 24 157<103.703 186.753> 353 139<151.56 209 300 354.139> 719 143<299 353.033>
AnchorPoint: "Anchor-0" 447 496 basechar 0
LayerCount: 2
Fore
SplineSet
181 148 m 0x67
 181 112.085667242 206.894679069 91 251 91 c 0
 320.341322215 91 356 128.356710061 356 201 c 2
 356 209 l 1
 341 209 l 2
 225.794979447 209 181 191.921914086 181 148 c 0x67
719 299 m 1
 717.999295997 358.041536188 674.953615385 396 609 396 c 0x37
 543.711049408 396 499.964820887 359.73175926 492 299 c 1
 719 299 l 1
405 67 m 1
 358.961954112 11.9545103517 298.924067408 -12 207 -12 c 0
 99.9693859458 -12 24 49.0245887106 24 135 c 0
 24 245.167236816 133.333206591 300 353 300 c 1
 353 329 l 2
 353 382.783362588 327.231014036 407 270 407 c 0
 224.804886359 407 193.957101213 385.836984609 184 348 c 1
 56 394 l 1
 91.8563639107 466.70873793 176.572885375 510 283 510 c 0x6f
 358.169015426 510 411.6065174 494.35975552 447 462 c 1
 491.875776338 493.911663174 544.833218391 510 605 510 c 0
 759.971120295 510 862 400.031129657 862 233 c 0
 862 225 861 217 861 209 c 1
 493 209 l 1
 497.015298152 147.766703178 543.242523029 106 607 106 c 0
 651.081116777 106 687.040373894 119.044044249 709 143 c 1
 829 99 l 1
 780.947600402 27.9224922618 702.900926341 -12 612 -12 c 0xb7
 524.562744758 -12 455.746859892 14.2630671712 405 67 c 1
EndSplineSet
EndChar

StartChar: eth
Encoding: 240 240 182
Width: 589
GlyphClass: 1
Flags: W
HStem: -12 113<221.566 349.877> 338 114<221.939 352.252> 604 122<163 273.075>
VStem: 24 156<142.602 295.123> 394 160<167.831 383.178 403 471.035>
DStem2: 223 530 271 483 0.705367 0.708842<0.542056 74.9531 220.453 287.627>
LayerCount: 2
Fore
SplineSet
180 220 m 0
 180 147.014150337 220.987394418 101 286 101 c 0
 351.672626153 101 394 147.638495257 394 220 c 0
 394 291.009259519 350.991525662 338 286 338 c 0
 222.110128518 338 180 291.122687122 180 220 c 0
554 318 m 0
 554 107.720062181 456.772797986 -12 286 -12 c 0
 130.07757803 -12 24 81.9312904691 24 220 c 0
 24 349.338599066 125.333882818 452 253 452 c 0
 315.117394265 452 360.630379767 436.404641331 396 403 c 1
 394.986762744 464.807472608 374.47467665 512.448446762 334 547 c 1
 271 483 l 1
 223 530 l 1
 276 583 l 1
 244.122958807 596.946205522 206.166826616 604 163 604 c 1
 163 726 l 1
 245.500764528 726 313.658014469 710.195420304 370 678 c 1
 426 734 l 1
 474 686 l 1
 426 639 l 1
 505.822311918 579.133266061 554 458.312657669 554 318 c 0
EndSplineSet
EndChar

StartChar: thorn
Encoding: 254 254 183
Width: 596
GlyphClass: 1
Flags: W
HStem: -161 21G<50 202> -12 118<268.466 365.675> 392 118<268.32 365.316> 648 20G<50 202>
VStem: 50 152<-161 70 428 668> 50 145<156.379 343.124> 414 158<157.8 336.142>
LayerCount: 2
Fore
SplineSet
305 392 m 0xf6
 234.89357927 392 195 340.863684754 195 251 c 0
 195 158.863589374 235.103412629 106 305 106 c 0
 370.355021826 106 414 162.458182775 414 247 c 0
 414 332.068818891 368.948284545 392 305 392 c 0xf6
353 -12 m 0
 292.382832352 -12 230.708947354 21.4917786083 202 70 c 1
 202 -161 l 1
 50 -161 l 1
 50 668 l 1
 202 668 l 1
 202 428 l 1xfa
 231.18217969 477.307820855 291.38363153 510 353 510 c 0
 484.783346659 510 572 405.260366079 572 247 c 0
 572 89.853851695 485.876472891 -12 353 -12 c 0
EndSplineSet
EndChar

StartChar: multiply
Encoding: 215 215 184
Width: 539
GlyphClass: 1
Flags: W
DStem2: 44 112 135 22 0.706133 0.708079<0.531059 192.158 318.904 513.89> 270 337 180 248 0.706133 -0.708079<-195.692 -0.533004 126.746 317.667>
LayerCount: 2
Fore
SplineSet
135 22 m 1
 44 112 l 1
 180 248 l 1
 41 385 l 1
 132 476 l 1
 270 337 l 1
 407 476 l 1
 498 385 l 1
 359 248 l 1
 495 112 l 1
 404 22 l 1
 270 158 l 1
 135 22 l 1
EndSplineSet
EndChar

StartChar: divide
Encoding: 247 247 185
Width: 594
GlyphClass: 1
Flags: W
HStem: -12 159<244.132 349.868> 186 128<41 553> 351 159<243.845 350.155>
VStem: 218 158<12.7677 120.868 375.768 485.648>
LayerCount: 2
Fore
SplineSet
376 68 m 0
 376 23.721183908 340.725330891 -12 297 -12 c 0
 253.274669109 -12 218 23.721183908 218 68 c 0
 218 111 254 147 297 147 c 0
 340 147 376 111 376 68 c 0
41 186 m 1
 41 314 l 1
 553 314 l 1
 553 186 l 1
 41 186 l 1
376 431 m 0
 376 386.721183908 340.725330891 351 297 351 c 0
 253.274669109 351 218 386.721183908 218 431 c 0
 218 475 253 510 297 510 c 0
 341 510 376 475 376 431 c 0
EndSplineSet
EndChar

StartChar: OE
Encoding: 338 338 186
Width: 1061
GlyphClass: 1
Flags: W
HStem: -12 130<296.724 466.568> 0 139<683 1039> 275 138<683 901> 528 140<683 1039> 549 131<296.669 466.716>
VStem: 35 167<223.429 444.378> 561 122<221.549 275 413 446.286>
LayerCount: 2
Fore
SplineSet
202 334 m 0xae
 202 203.837945347 273.134223228 118 381 118 c 0
 489.66688771 118 561 203.599734748 561 334 c 0
 561 464.597493145 490.337436121 549 381 549 c 0
 272.883693876 549 202 463.860367691 202 334 c 0xae
35 334 m 0
 35 541 174 680 381 680 c 0xae
 449.699449652 680 509.521457969 665.709186902 561 637 c 1
 561 668 l 1
 1039 668 l 1
 1039 528 l 1
 683 528 l 1
 683 413 l 1
 901 413 l 1
 901 275 l 1
 683 275 l 1
 683 139 l 1
 1039 139 l 1
 1039 0 l 1
 561 0 l 1x76
 561 31 l 1
 509.521457969 2.29081309787 449.699449652 -12 381 -12 c 0
 174 -12 35 127 35 334 c 0
EndSplineSet
EndChar

StartChar: oe
Encoding: 339 339 187
Width: 937
GlyphClass: 1
Flags: W
HStem: -12 118<222.518 352.212 590.647 744.684> 209 90<547 773> 392 118<222.398 351.206 584.941 740.841>
VStem: 24 155<153.324 345.785> 394 153<152.35 209 299 345.874> 773 143<299 352.493>
LayerCount: 2
Fore
SplineSet
287 106 m 0
 356.923631362 106 394 155.897169009 394 250 c 0
 394 341.78516692 356.162062397 392 287 392 c 0
 217.014083828 392 179 342.018519412 179 250 c 0
 179 156.833262047 217.124946535 106 287 106 c 0
773 299 m 1
 772.003179484 358.809230936 730.211490536 396 664 396 c 0
 598.211183783 396 555.025801192 360.196734092 547 299 c 1
 773 299 l 1
473 55 m 1
 425.796244178 11.8135850994 359.686888529 -12 287 -12 c 0
 126.694529012 -12 24 90.3040555181 24 250 c 0
 24 409.081758308 126.082682943 510 287 510 c 0
 361.806407453 510 428.498719691 485.522502423 475 441 c 1
 523.777247418 485.795431302 588.673554797 510 660 510 c 0
 813.207641276 510 916 398.775455599 916 233 c 0
 916 225 915 217 915 209 c 1
 547 209 l 1
 552.014888225 146.815386008 597.189198952 106 661 106 c 0
 707.460601545 106 741.214902271 118.244207126 763 143 c 1
 884 99 l 1
 835.853293598 27.7829967809 757.720921542 -12 666 -12 c 0
 584.686263491 -12 520.815866998 10.1726246892 473 55 c 1
EndSplineSet
EndChar

StartChar: Aring
Encoding: 197 197 191
Width: 690
GlyphClass: 2
Flags: W
HStem: 0 21G<5 183.723 506.277 685> 119 128<260 430> 776 85<304.552 383.762>
VStem: 212 85<689.352 768.448> 391 86<689.364 768.613>
DStem2: 5 0 177 0 0.354169 0.935181<60.917 186.37 321.303 425.148> 247 639 344 501 0.354169 0.935181<-361.987 -94.7007> 443 640 344 501 0.353685 -0.935365<95.0009 363> 443 640 430 247 0.353685 -0.935365<95.0009 363 497.936 540.186>
AnchorPoint: "Anchor-2" 654 0 basechar 0
AnchorPoint: "Anchor-1" 345 0 basechar 0
AnchorPoint: "Anchor-0" 345 796 basechar 0
LayerCount: 2
Fore
SplineSet
477 729 m 0
 477 694.888367162 465.285126883 664.222964004 443 640 c 1
 685 0 l 1
 513 0 l 1
 473 119 l 1
 217 119 l 1
 177 0 l 1
 5 0 l 1
 247 639 l 1
 224.383373671 663.583289488 212 695.426250356 212 729 c 0
 212 802 271 861 344 861 c 0
 417.776645067 861 477 802.22193345 477 729 c 0
260 247 m 1
 430 247 l 1
 344 501 l 1
 260 247 l 1
297 729 m 0
 297 703 318 682 344 682 c 0
 370 682 391 703 391 729 c 0
 391 756 371 776 344 776 c 0
 318 776 297 755 297 729 c 0
EndSplineSet
EndChar

StartChar: Ccedilla
Encoding: 199 199 202
Width: 673
GlyphClass: 2
Flags: W
HStem: -187 50<260.057 368.783> -12 130<367 457.751> 550 130<289.746 454.217>
VStem: 35 167<219.019 445.212> 370 94<-134.575 -85.8769>
AnchorPoint: "Anchor-1" 357 -187 basechar 0
AnchorPoint: "Anchor-0" 357 668 basechar 0
LayerCount: 2
Fore
SplineSet
299 -90 m 0
 288.495762408 -90 279 -79.5546613517 279 -68 c 0
 279 -63.3484692283 279.449489743 -61.3257653858 281 -59 c 2
 312 -9 l 1
 138.206128314 12.9739377994 35 140.770695964 35 334 c 0
 35 545.949706777 165.950864478 680 373 680 c 0
 495.003225826 680 594.001401292 623.997382492 647 525 c 1
 507 474 l 1
 481.126224456 522.762115449 431.309567184 550 368 550 c 0
 268.930545204 550 202 462.909652024 202 334 c 0
 202 202.428265743 267.666428911 118 370 118 c 0
 434.940013061 118 485.975950376 144.955600694 512 193 c 1
 651 142 l 1
 596.100395516 44.1788865551 493.227369486 -12 369 -12 c 2
 367 -12 l 1
 344 -48 l 1
 352.781810215 -46.0484866188 364.664658562 -45 378 -45 c 0
 429.661766996 -45 464 -69.7554703054 464 -107 c 0
 464 -156.066949324 414.893782052 -187 337 -187 c 0
 308.406105819 -187 277.431889114 -182.424263441 249 -174 c 1
 265 -124 l 1
 280.915464568 -131.427216798 307.064678053 -137 326 -137 c 0
 355.166902739 -137 370 -127.897872135 370 -110 c 0
 370 -93.9188274052 355.884745616 -84 333 -84 c 0
 320 -84 312 -90 299 -90 c 0
EndSplineSet
EndChar

StartChar: ccedilla
Encoding: 231 231 203
Width: 520
GlyphClass: 2
Flags: W
HStem: -187 50<178.057 286.783> -12 118<285 353.348> 392 118<223.003 349.494>
VStem: 24 155<155.552 342.047> 288 94<-134.575 -85.8769>
AnchorPoint: "Anchor-1" 275 -187 basechar 0
AnchorPoint: "Anchor-0" 280 496 basechar 0
LayerCount: 2
Fore
SplineSet
217 -90 m 0
 206.495762408 -90 197 -79.5546613517 197 -68 c 0
 197 -63.3484692283 197.449489743 -61.3257653858 199 -59 c 2
 230 -9 l 1
 100.917827974 9.01146586413 24 106.092219617 24 251 c 0
 24 407.00590556 125.005791459 510 278 510 c 0
 383.369537938 510 463.136071778 463.706922325 502 380 c 1
 375 334 l 1
 360.944654445 372.15022365 330.827752397 392 287 392 c 0
 218.774476059 392 179 339.703929626 179 250 c 0
 179 159.166596224 218.874947168 106 287 106 c 0
 327.851198155 106 357.934075463 121.886463298 376 153 c 1
 500 108 l 1
 457.762877434 32.5765668463 381.459910058 -10.0111358751 285 -12 c 1
 262 -48 l 1
 270.781810215 -46.0484866188 282.664658562 -45 296 -45 c 0
 347.661766996 -45 382 -69.7554703054 382 -107 c 0
 382 -156.066949324 332.893782052 -187 255 -187 c 0
 226.406105819 -187 195.431889114 -182.424263441 167 -174 c 1
 183 -124 l 1
 198.915464568 -131.427216798 225.064678053 -137 244 -137 c 0
 273.166902739 -137 288 -127.897872135 288 -110 c 0
 288 -93.9188274052 273.884745616 -84 251 -84 c 0
 238 -84 230 -90 217 -90 c 0
EndSplineSet
EndChar

StartChar: Eth
Encoding: 208 208 248
AltUni2: 000189.ffffffff.0 000110.ffffffff.0
Width: 773
GlyphClass: 2
Flags: W
HStem: 0 133<289 482.777> 275 137<13 131 289 426> 537 131<289 479.017>
VStem: 131 158<133 275 412 537> 575 163<220.026 448.202>
AnchorPoint: "Anchor-1" 430 0 basechar 0
AnchorPoint: "Anchor-0" 420 668 basechar 0
LayerCount: 2
Fore
SplineSet
575 334 m 0
 575 477.147099961 509.839946263 537 354 537 c 2
 289 537 l 1
 289 412 l 1
 426 412 l 1
 426 275 l 1
 289 275 l 1
 289 133 l 1
 354 133 l 2
 511.114450841 133 575 191.104051497 575 334 c 0
738 334 m 0
 738 110.735063252 609.693205154 0 351 0 c 2
 131 0 l 1
 131 275 l 1
 13 275 l 1
 13 412 l 1
 131 412 l 1
 131 668 l 1
 351 668 l 2
 609.193149923 668 738 556.833364533 738 334 c 0
EndSplineSet
EndChar

StartChar: one.tf
Encoding: 1114115 -1 250
Width: 632
GlyphClass: 1
Flags: W
HStem: 0 124<101 253 404 532> 448 123<101 233.622> 648 20G<272.941 404>
VStem: 253 151<124 448>
LayerCount: 2
Fore
SplineSet
101 571 m 1
 222.557259751 571 256.882726058 588.710479956 289 668 c 1
 404 668 l 1
 404 124 l 1
 532 124 l 1
 532 0 l 1
 101 0 l 1
 101 124 l 1
 253 124 l 1
 253 448 l 1
 101 448 l 1
 101 571 l 1
EndSplineSet
Substitution2: "'pnum' Proportional Numbers lookup 13 subtable" one
Substitution2: "'aalt' Access All Alternates lookup 0 subtable" one
EndChar

StartChar: Aogonek
Encoding: 260 260 261
Width: 690
GlyphClass: 2
Flags: W
HStem: -174 76<592.644 684.303> 0 21G<5 183.723> 119 128<260 430> 648 20G<250.425 439.575>
VStem: 464 126<-93.5376 -39.6503>
DStem2: 5 0 177 0 0.35419 0.935173<60.9207 186.374 321.306 484.629> 432 668 344 501 0.35419 -0.935173<125.005 393> 685 0 473 119 0.35419 -0.935173<-558.903 -321.306 -186.374 -60.9207>
AnchorPoint: "Anchor-2" 654 0 basechar 0
AnchorPoint: "Anchor-1" 345 0 basechar 0
AnchorPoint: "Anchor-0" 345 668 basechar 0
LayerCount: 2
Fore
SplineSet
260 247 m 1
 430 247 l 1
 344 501 l 1
 260 247 l 1
685 -164 m 1
 670.586196805 -169.147786855 632.253712962 -174 606 -174 c 0
 519.921332687 -174 464 -138.95071402 464 -85 c 0
 464 -46.4052338705 492.456089752 -16.1706385092 544 0 c 1
 513 0 l 1
 473 119 l 1
 217 119 l 1
 177 0 l 1
 5 0 l 1
 258 668 l 1
 432 668 l 1
 685 0 l 1
 600.585572784 -42.7157342538 590 -50.2927758256 590 -68 c 0
 590 -87.2835894637 606.431829489 -98 636 -98 c 0
 659 -98 670 -91 685 -89 c 1
 685 -164 l 1
EndSplineSet
EndChar

StartChar: aogonek
Encoding: 261 261 262
Width: 553
GlyphClass: 2
Flags: W
HStem: -174 76<427.644 519.303> -12 104<144.246 301.194> 220 90<230.657 353> 407 103<206.857 332.224>
VStem: 24 157<106.485 184.392> 299 126<-93.5376 -39.6503> 356 147<127.147 220 309.175 385.275>
AnchorPoint: "Anchor-2" 518 0 basechar 0
AnchorPoint: "Anchor-1" 277 0 basechar 0
AnchorPoint: "Anchor-0" 285 496 basechar 0
LayerCount: 2
Fore
SplineSet
181 145 m 0xfa
 181 113.978568366 210.028297843 92 251 92 c 0
 281 92 306 100 326 116 c 0
 345.926538046 131.941230437 356 162.833180428 356 208 c 2
 356 220 l 1
 225.574752409 207.960746376 181 188.857281058 181 145 c 0xfa
520 -164 m 1
 505.586196805 -169.147786855 467.253712962 -174 441 -174 c 0
 354.921332687 -174 299 -138.95071402 299 -85 c 0xfc
 299 -46.4052338705 327.456089752 -16.1706385092 379 0 c 1
 361 60 l 1
 325.690947718 11.5761568704 271.334808267 -12 195 -12 c 0
 95.2225004537 -12 24 48.8098541885 24 134 c 0
 24 239.752435069 123.461980049 292.960059654 353 310 c 1
 353 382.729218648 332.232218019 407 270 407 c 0
 224.804886359 407 193.957101213 385.836984609 184 348 c 1
 56 394 l 1
 91.8563639107 466.70873793 176.572885375 510 283 510 c 0
 433.958940115 510 503 445.038639108 503 303 c 2
 503 194 l 2xfa
 503 123.938491209 509.863441281 45.614514234 520 0 c 1
 435.585572784 -42.7157342538 425 -50.2927758256 425 -68 c 0xfc
 425 -87.2835894637 441.431829489 -98 471 -98 c 0
 494 -98 505 -91 520 -89 c 1
 520 -164 l 1
EndSplineSet
EndChar

StartChar: Eogonek
Encoding: 280 280 267
Width: 580
GlyphClass: 2
Flags: W
HStem: -174 76<429.644 521.303> 0 139<202 381 481.887 558> 274 139<202 419> 529 139<202 558>
VStem: 44 158<139 274 413 529> 301 126<-93.5376 -39.6503>
AnchorPoint: "Anchor-2" 522 0 basechar 0
AnchorPoint: "Anchor-1" 290 0 basechar 0
AnchorPoint: "Anchor-0" 303 668 basechar 0
LayerCount: 2
Fore
SplineSet
522 -164 m 1
 507.586196805 -169.147786855 469.253712962 -174 443 -174 c 0
 356.921332687 -174 301 -138.95071402 301 -85 c 0
 301 -46.4052338705 329.456089752 -16.1706385092 381 0 c 1
 44 0 l 1
 44 668 l 1
 558 668 l 1
 558 529 l 1
 202 529 l 1
 202 413 l 1
 419 413 l 1
 419 274 l 1
 202 274 l 1
 202 139 l 1
 558 139 l 1
 558 0 l 1
 522 0 l 1
 437.585572784 -42.7157342538 427 -50.2927758256 427 -68 c 0
 427 -87.2835894637 443.431829489 -98 473 -98 c 0
 496 -98 507 -91 522 -89 c 1
 522 -164 l 1
EndSplineSet
EndChar

StartChar: eogonek
Encoding: 281 281 268
Width: 566
GlyphClass: 2
Flags: W
HStem: -164 76<311.644 403.303> 210 90<177 403> 397 113<220.489 365.593>
VStem: 24 153<151.614 210 300 354.528> 183 126<-83.5376 -29.5547> 403 142<300 353.33>
AnchorPoint: "Anchor-2" 509 10 basechar 0
AnchorPoint: "Anchor-1" 283 0 basechar 0
AnchorPoint: "Anchor-0" 283 496 basechar 0
LayerCount: 2
Fore
SplineSet
403 300 m 1
 402.002288089 358.865002767 359.149559239 397 294 397 c 0
 228.211183783 397 185.025801192 361.196734092 177 300 c 1
 403 300 l 1
404 -154 m 1
 389.586196805 -159.147786855 351.253712962 -164 325 -164 c 0
 238.921332687 -164 183 -128.95071402 183 -75 c 0
 183 -44.6991534053 195.322616417 -25.8044748985 228 -6 c 1
 100.11970387 18.9766203379 24 114.872521782 24 251 c 0
 24 400.473988635 136.486173834 510 290 510 c 0
 443.184830455 510 545 399.800051787 545 234 c 0
 545 226 544 218 544 210 c 1
 177 210 l 1
 181.974377966 147.322837632 227.667900348 106 292 106 c 0
 335.43345075 106 371.206536517 119.236041734 392 143 c 1
 513 99 l 1
 483.81089733 56.7261271682 449.704899678 28.8781107367 404 10 c 0
 321.921418588 -30.5448414204 309 -39.7938568307 309 -58 c 0
 309 -77.2835894637 325.431829489 -88 355 -88 c 0
 378 -88 389 -81 404 -79 c 1
 404 -154 l 1
EndSplineSet
EndChar

StartChar: Iogonek
Encoding: 302 302 275
Width: 458
GlyphClass: 2
Flags: W
HStem: -174 76<238.644 330.303> 0 124<57 151 309.153 401> 544 124<57 151 309 401>
VStem: 57 344<0 124 544 668> 110 126<-93.5376 -39.6503>
AnchorPoint: "Anchor-2" 331 0 basechar 0
AnchorPoint: "Anchor-1" 229 0 basechar 0
AnchorPoint: "Anchor-0" 231 668 basechar 0
LayerCount: 2
Fore
SplineSet
331 -164 m 1xe8
 316.586196805 -169.147786855 278.253712962 -174 252 -174 c 0
 165.921332687 -174 110 -138.95071402 110 -85 c 0xe8
 110 -46.4052338705 138.456089752 -16.1706385092 190 0 c 1
 57 0 l 1
 57 124 l 1
 151 124 l 1
 151 544 l 1
 57 544 l 1
 57 668 l 1
 401 668 l 1
 401 544 l 1
 309 544 l 1
 309 124 l 1
 401 124 l 1
 401 0 l 1xf0
 331 0 l 1
 246.585572784 -42.7157342538 236 -50.2927758256 236 -68 c 0
 236 -87.2835894637 252.431829489 -98 282 -98 c 0
 305 -98 316 -91 331 -89 c 1
 331 -164 l 1xe8
EndSplineSet
EndChar

StartChar: iogonek
Encoding: 303 303 276
Width: 315
GlyphClass: 1
Flags: W
HStem: -174 76<178.644 270.303> 380 116<24 118> 578 180<135.982 252.786>
VStem: 50 126<-93.5376 -39.6503> 105 180<608.982 725.786> 118 153<0 380>
LayerCount: 2
Fore
SplineSet
285 668 m 0xe8
 285 618 245 578 195 578 c 0
 145 578 105 618 105 668 c 0
 105 718 145 758 195 758 c 0
 246 758 285 719 285 668 c 0xe8
271 -164 m 1xe4
 256.586196805 -169.147786855 218.253712962 -174 192 -174 c 0
 105.921332687 -174 50 -138.95071402 50 -85 c 0xf0
 50 -46.4052338705 78.4560897518 -16.1706385092 130 0 c 1
 118 0 l 1
 118 380 l 1
 24 380 l 1
 24 496 l 1
 271 496 l 1
 271 0 l 1xe4
 186.585572784 -42.7157342538 176 -50.2927758256 176 -68 c 0xf0
 176 -87.2835894637 192.431829489 -98 222 -98 c 0
 245 -98 256 -91 271 -89 c 1
 271 -164 l 1xe4
EndSplineSet
EndChar

StartChar: Uogonek
Encoding: 370 370 289
Width: 663
GlyphClass: 2
Flags: W
HStem: -174 76<347.644 439.303> 648 20G<44 202 461 619>
VStem: 44 158<166.622 668> 219 126<-93.5376 -39.571> 461 158<166.731 668>
AnchorPoint: "Anchor-2" 440 0 basechar 0
AnchorPoint: "Anchor-1" 332 0 basechar 0
AnchorPoint: "Anchor-0" 332 668 basechar 0
LayerCount: 2
Fore
SplineSet
440 -164 m 1
 425.586196805 -169.147786855 387.253712962 -174 361 -174 c 0
 274.921332687 -174 219 -138.95071402 219 -85 c 0
 219 -51.8331087148 236.199730458 -28.9001347711 276 -9 c 1
 115.368555044 6.96337341177 44 99.5579211198 44 292 c 2
 44 668 l 1
 202 668 l 1
 202 279 l 2
 202 160.30746174 236.752901396 117 332 117 c 0
 426.380070036 117 461 160.476191118 461 279 c 2
 461 668 l 1
 619 668 l 1
 619 292 l 2
 619 122.444449991 561.323702501 29.0789518296 438 -1 c 1
 356.170591796 -41.914704102 345 -49.9623347507 345 -68 c 0
 345 -87.2835894637 361.431829489 -98 391 -98 c 0
 414 -98 425 -91 440 -89 c 1
 440 -164 l 1
EndSplineSet
EndChar

StartChar: uogonek
Encoding: 371 371 290
Width: 570
GlyphClass: 1
Flags: W
HStem: -174 76<426.644 518.303> -12 118<161.445 310.643> 476 20G<50 202 366 519>
VStem: 50 152<129.234 496> 298 126<-93.5376 -39.6643> 366 153<134.632 496>
LayerCount: 2
Fore
SplineSet
519 -164 m 1xf4
 504.586196805 -169.147786855 466.253712962 -174 440 -174 c 0
 353.921332687 -174 298 -138.95071402 298 -85 c 0xf8
 298 -43.3949158557 316.994260008 -24.616499711 386 2 c 1
 366 70 l 1
 332.213508099 12.3642196991 289.427561311 -12 222 -12 c 0
 100.890449282 -12 50 50.1336880764 50 198 c 2
 50 496 l 1
 202 496 l 1
 202 219 l 2
 202 137.93588326 224.044238003 106 280 106 c 0
 340.333830847 106 366 144.49925373 366 235 c 2
 366 496 l 1
 519 496 l 1
 519 0 l 1xf4
 434.585572784 -42.7157342538 424 -50.2927758256 424 -68 c 0xf8
 424 -87.2835894637 440.431829489 -98 470 -98 c 0
 493 -98 504 -91 519 -89 c 1
 519 -164 l 1xf4
EndSplineSet
EndChar

StartChar: Hbar
Encoding: 294 294 299
Width: 740
GlyphClass: 2
Flags: W
HStem: 0 21G<75 233 508 666> 274 139<233 508> 496 98<15 75 233 508 666 725> 648 20G<75 233 508 666>
VStem: 75 158<0 274 413 496 594 668> 508 158<0 274 413 496 594 668>
AnchorPoint: "Anchor-1" 371 0 basechar 0
AnchorPoint: "Anchor-0" 371 668 basechar 0
LayerCount: 2
Fore
SplineSet
233 413 m 1
 508 413 l 1
 508 496 l 1
 233 496 l 1
 233 413 l 1
75 0 m 1
 75 496 l 1
 15 496 l 1
 15 594 l 1
 75 594 l 1
 75 668 l 1
 233 668 l 1
 233 594 l 1
 508 594 l 1
 508 668 l 1
 666 668 l 1
 666 594 l 1
 725 594 l 1
 725 496 l 1
 666 496 l 1
 666 0 l 1
 508 0 l 1
 508 274 l 1
 233 274 l 1
 233 0 l 1
 75 0 l 1
EndSplineSet
EndChar

StartChar: hbar
Encoding: 295 295 300
Width: 629
GlyphClass: 1
Flags: W
HStem: 0 21G<107 259 427 579> 392 118<323.514 471.006> 555 78<13 107 259 382>
VStem: 107 152<0 356.09 430 555 633 698> 427 152<0 370.297>
LayerCount: 2
Fore
SplineSet
351 392 m 0
 288.773512396 392 259 347.663356541 259 255 c 2
 259 0 l 1
 107 0 l 1
 107 555 l 1
 13 555 l 1
 13 633 l 1
 107 633 l 1
 107 698 l 1
 259 698 l 1
 259 633 l 1
 382 633 l 1
 382 555 l 1
 259 555 l 1
 259 430 l 1
 289.067720616 479.11061034 348.143678342 510 412 510 c 0
 530.012019565 510 579 448.985030357 579 302 c 2
 579 0 l 1
 427 0 l 1
 427 264 l 2
 427 361.842184079 409.093796797 392 351 392 c 0
EndSplineSet
EndChar

StartChar: dcroat
Encoding: 273 273 319
Width: 632
GlyphClass: 1
Flags: W
HStem: -12 118<230.736 332.898> 0 21G<412.03 563> 392 118<230.524 329.488> 555 78<243 394 546 612>
VStem: 24 158<162.132 340.781> 394 152<428 555 633 698> 401 145<154.216 342.06>
LayerCount: 2
Fore
SplineSet
182 252 m 0xba
 182 165.363314419 226.725784836 106 292 106 c 0
 361.18192925 106 401 158.238386397 401 249 c 0
 401 339.261642525 360.800832414 392 292 392 c 0
 226 392 182 336 182 252 c 0xba
398 67 m 1
 361.018564621 16.0255890719 306.031649353 -12 243 -12 c 0
 111.051132092 -12 24 92.9383510145 24 252 c 0
 24 408.842500302 109.866249743 510 243 510 c 0
 305.537582726 510 365.246254501 477.575423275 394 428 c 1
 394 555 l 1
 243 555 l 1
 243 633 l 1
 394 633 l 1
 394 698 l 1
 546 698 l 1
 546 633 l 1
 612 633 l 1
 612 555 l 1
 546 555 l 1xbc
 546 194 l 2
 546 129.235088596 551.959855577 61.2226190756 563 0 c 1
 418 0 l 1x7a
 398 67 l 1
EndSplineSet
EndChar

StartChar: Scedilla
Encoding: 350 350 327
Width: 619
GlyphClass: 2
Flags: W
HStem: -187 50<232.057 340.783> 553 127<214.461 383.427>
VStem: 28 162<446.112 528.595> 342 94<-134.575 -85.8769> 434 162<140.718 229.275>
DStem2: 266 421 231 285 0.980581 -0.196116<-67.5448 186.323>
AnchorPoint: "Anchor-1" 329 -187 basechar 0
AnchorPoint: "Anchor-0" 304 668 basechar 0
LayerCount: 2
Fore
SplineSet
271 -90 m 0xf0
 260.495762408 -90 251 -79.5546613517 251 -68 c 0
 251 -63.3484692283 251.449489743 -61.3257653858 253 -59 c 2
 283 -11 l 1
 156.079066777 -3.0049805844 64.0243178052 56.9376466533 25 157 c 1
 169 209 l 1
 187.029953751 147.898490067 238.127608536 115 315 115 c 0
 389.400488998 115 434 141.235006472 434 185 c 0
 434 227.073803744 394.854791271 254.026242541 312 269 c 1
 231 285 l 2
 97.0679738514 311.986303776 28 375.950732762 28 473 c 0
 28 594.210322837 145.287336411 680 311 680 c 0
 434.831087302 680 529.949429292 626.124376607 567 535 c 1
 424 483 l 1
 407.084431072 527.776505986 361.321806219 553 297 553 c 0
 231.397902613 553 190 528.238637689 190 489 c 0
 190 456.973679377 219.038580761 430.991791327 266 421 c 2
 356 403 l 1
 526.817231529 370.035271108 596 314.112533261 596 209 c 0xe8
 596 90.2975110227 489.377290505 -0.974847299653 339 -11 c 1
 316 -48 l 1
 324.781810215 -46.0484866188 336.664658562 -45 350 -45 c 0
 401.661766996 -45 436 -69.7554703054 436 -107 c 0
 436 -156.066949324 386.893782052 -187 309 -187 c 0
 280.406105819 -187 249.431889114 -182.424263441 221 -174 c 1
 237 -124 l 1
 252.915464568 -131.427216798 279.064678053 -137 298 -137 c 0
 327.166902739 -137 342 -127.897872135 342 -110 c 0
 342 -93.9188274052 327.884745616 -84 305 -84 c 0
 292 -84 284 -90 271 -90 c 0xf0
EndSplineSet
Substitution2: "'locl' Localized Forms in Latin lookup 8 subtable" uni0218
Substitution2: "'aalt' Access All Alternates lookup 0 subtable" uni0218
EndChar

StartChar: scedilla
Encoding: 351 351 328
Width: 534
GlyphClass: 2
Flags: W
HStem: -187 50<170.057 278.783> -12 111<277 345.57> 399 111<186.214 337.538>
VStem: 33 145<331.065 388.365> 280 94<-134.575 -85.8769> 361 146<114.979 173.684>
DStem2: 331 302 195 205 0.983353 -0.181706<-158.222 54.7671>
AnchorPoint: "Anchor-1" 267 -187 basechar 0
AnchorPoint: "Anchor-0" 268 496 basechar 0
LayerCount: 2
Fore
SplineSet
209 -90 m 0xf8
 198.495762408 -90 189 -79.5546613517 189 -68 c 0
 189 -63.3484692283 189.449489743 -61.3257653858 191 -59 c 2
 221 -10 l 1
 123.612712214 0.0399265758475 53.869535637 43.2806960538 21 114 c 1
 150 161 l 1
 163.944962324 121.157250503 205.757838273 99 267 99 c 0
 324.108740784 99 361 117.053169404 361 145 c 0
 361 167.779807289 338.529901387 180.911683102 284 190 c 2
 195 205 l 2
 91.0082289963 221.998654876 33 274.993827045 33 353 c 0
 33 448.01315829 123.019107706 510 261 510 c 0
 369 510 447 471 481 400 c 1
 353 353 l 1
 344.976125036 384.092515485 314.837080255 399 260 399 c 0
 204.824859292 399 178 385.914702784 178 359 c 0
 178 338.90150932 196.209138755 326.961090464 239 319 c 2
 331 302 l 1
 456.817040937 280.031945233 507 240.113682342 507 162 c 0xf4
 507 57.9086776111 419.874701334 -8.00350485778 277 -12 c 1
 254 -48 l 1
 262.781810215 -46.0484866188 274.664658562 -45 288 -45 c 0
 339.661766996 -45 374 -69.7554703054 374 -107 c 0
 374 -156.066949324 324.893782052 -187 247 -187 c 0
 218.406105819 -187 187.431889114 -182.424263441 159 -174 c 1
 175 -124 l 1
 190.915464568 -131.427216798 217.064678053 -137 236 -137 c 0
 265.166902739 -137 280 -127.897872135 280 -110 c 0
 280 -93.9188274052 265.884745616 -84 243 -84 c 0
 230 -84 222 -90 209 -90 c 0xf8
EndSplineSet
Substitution2: "'locl' Localized Forms in Latin lookup 8 subtable" uni0219
Substitution2: "'aalt' Access All Alternates lookup 0 subtable" uni0219
EndChar

StartChar: uni0162
Encoding: 354 354 330
Width: 617
GlyphClass: 2
Flags: W
HStem: -187 50<212.057 320.783> 529 139<15 230 387 602>
VStem: 230 157<0 529> 322 94<-134.575 -85.8769>
AnchorPoint: "Anchor-1" 286 -251 basechar 0
AnchorPoint: "Anchor-0" 309 668 basechar 0
LayerCount: 2
Fore
SplineSet
251 -90 m 0xd0
 240.495762408 -90 231 -79.5546613517 231 -68 c 0
 231 -63.3484692283 231.449489743 -61.3257653858 233 -59 c 2
 270 -0 l 1
 230 0 l 1
 230 529 l 1
 15 529 l 1
 15 668 l 1
 602 668 l 1
 602 529 l 1
 387 529 l 1
 387 0 l 1xe0
 326 0 l 1
 296 -48 l 1
 304.781810215 -46.0484866188 316.664658562 -45 330 -45 c 0
 381.661766996 -45 416 -69.7554703054 416 -107 c 0
 416 -156.066949324 366.893782052 -187 289 -187 c 0
 260.406105819 -187 229.431889114 -182.424263441 201 -174 c 1
 217 -124 l 1
 232.915464568 -131.427216798 259.064678053 -137 278 -137 c 0
 307.166902739 -137 322 -127.897872135 322 -110 c 0
 322 -93.9188274052 307.884745616 -84 285 -84 c 0
 272 -84 264 -90 251 -90 c 0xd0
EndSplineSet
Substitution2: "'locl' Localized Forms in Latin lookup 8 subtable" uni021A
Substitution2: "'aalt' Access All Alternates lookup 0 subtable" uni021A
EndChar

StartChar: acutecomb
Encoding: 769 769 332
Width: 0
GlyphClass: 4
Flags: W
HStem: 574 153<108.049 141.972>
VStem: 0 208
AnchorPoint: "Anchor-4" 104 727 basemark 0
AnchorPoint: "Anchor-4" 68 496 mark 0
AnchorPoint: "Anchor-0" 68 496 mark 0
LayerCount: 2
Fore
SplineSet
152 727 m 0
 184 727 208 703 208 671 c 0
 208 653.62961046 201.731413105 639.772734166 189 629 c 0
 184 626 184 626 114 574 c 1
 0 574 l 1
 1 575 110 708 111 709 c 0
 120.904076188 720.884891426 134.832934607 727 152 727 c 0
EndSplineSet
Substitution2: "'case' Case-Sensitive Forms lookup 15 subtable" acutecomb.case
Substitution2: "Single Substitution lookup 7 subtable" acutecomb.case
Substitution2: "Single Substitution lookup 6 subtable" acutecomb.case
Substitution2: "Single Substitution lookup 4 subtable" acutecomb.case
Substitution2: "Single Substitution lookup 3 subtable" acutecomb.case
Substitution2: "'aalt' Access All Alternates lookup 0 subtable" acutecomb.case
EndChar

StartChar: acutecomb.case
Encoding: 1114124 -1 333
Width: 0
GlyphClass: 4
Flags: W
HStem: 731 154<117.51 153.913>
VStem: 0 218
AnchorPoint: "Anchor-4" 109 885 basemark 0
AnchorPoint: "Anchor-4" 70 668 mark 0
AnchorPoint: "Anchor-0" 70 668 mark 0
LayerCount: 2
Fore
SplineSet
162 885 m 0
 193 885 218 860 218 829 c 0
 218 812.78877657 211.833885216 798.833885216 199 786 c 1
 176 770 143 744 125 731 c 1
 0 731 l 1
 1 732 118 864 119 865 c 0
 132.021747889 878.021747889 147.024989927 885 162 885 c 0
EndSplineSet
EndChar

StartChar: uni0306
Encoding: 774 774 334
Width: 0
GlyphClass: 4
Flags: W
HStem: 569 85<89.6301 197.072>
AnchorPoint: "Anchor-4" 144 689 basemark 0
AnchorPoint: "Anchor-4" 144 496 mark 0
AnchorPoint: "Anchor-0" 144 496 mark 0
LayerCount: 2
Fore
SplineSet
317 709 m 1
 302.991386091 622.947085986 235.942864937 569 143 569 c 0
 50.8642414995 569 -16.0205847143 623.126448959 -30 709 c 1
 75 709 l 1
 80.9604035061 673.237578963 104.745046588 654 143 654 c 0
 182.582910006 654 205.935765876 672.614595259 212 709 c 1
 317 709 l 1
EndSplineSet
Substitution2: "'case' Case-Sensitive Forms lookup 15 subtable" uni0306.case
Substitution2: "Single Substitution lookup 7 subtable" uni0306.case
Substitution2: "Single Substitution lookup 6 subtable" uni0306.case
Substitution2: "Single Substitution lookup 4 subtable" uni0306.case
Substitution2: "Single Substitution lookup 3 subtable" uni0306.case
Substitution2: "'aalt' Access All Alternates lookup 0 subtable" uni0306.case
EndChar

StartChar: uni030C
Encoding: 780 780 336
Width: 0
GlyphClass: 4
Flags: W
HStem: 568 91<151.5 242.5>
AnchorPoint: "Anchor-4" 197 720 basemark 0
AnchorPoint: "Anchor-4" 197 496 mark 0
AnchorPoint: "Anchor-0" 197 496 mark 0
LayerCount: 2
Fore
SplineSet
197 568 m 0
 177.39009598 568 160.58394393 574.386337779 147 587 c 2
 0 720 l 1
 129 720 l 1
 197 659 l 1
 265 720 l 1
 393 720 l 1
 247 587 l 2
 232.082075018 574.071131682 216.105412696 568 197 568 c 0
EndSplineSet
Substitution2: "'case' Case-Sensitive Forms lookup 15 subtable" uni030C.case
Substitution2: "Single Substitution lookup 7 subtable" uni030C.case
Substitution2: "Single Substitution lookup 6 subtable" uni030C.case
Substitution2: "Single Substitution lookup 4 subtable" uni030C.case
Substitution2: "Single Substitution lookup 3 subtable" uni030C.case
Substitution2: "'aalt' Access All Alternates lookup 0 subtable" uni030C.case
EndChar

StartChar: uni030C.alt
Encoding: 1114126 -1 337
Width: 0
GlyphClass: 1
Flags: W
HStem: 496 192<55.9815 100>
VStem: 44 111<571.874 676.023>
LayerCount: 2
Fore
SplineSet
100 688 m 0
 130.938620336 688 155 663.063661075 155 631 c 0
 155 624.832251037 153.947710199 618.869275497 152 614 c 2
 100 496 l 1
 20 496 l 1
 20 497 44 640 44 641 c 0
 48.9843481652 667.915480092 72.9148399704 688 100 688 c 0
EndSplineSet
EndChar

StartChar: uni0327
Encoding: 807 807 339
Width: 0
GlyphClass: 4
Flags: W
HStem: -187 50<11.0565 119.783>
VStem: 121 94<-134.575 -85.8769>
AnchorPoint: "Anchor-3" 108 -187 basemark 0
AnchorPoint: "Anchor-3" 108 0 mark 0
AnchorPoint: "Anchor-1" 108 0 mark 0
LayerCount: 2
Fore
SplineSet
50 -90 m 0
 39.4957624075 -90 30 -79.5546613517 30 -68 c 0
 30 -63.3484692283 30.4494897428 -61.3257653858 32 -59 c 2
 84 25 l 1
 125 0 l 1
 95 -48 l 1
 103.781810215 -46.0484866188 115.664658562 -45 129 -45 c 0
 180.661766996 -45 215 -69.7554703054 215 -107 c 0
 215 -156.066949324 165.893782052 -187 88 -187 c 0
 59.4061058194 -187 28.4318891144 -182.424263441 0 -174 c 1
 16 -124 l 1
 31.9154645675 -131.427216798 58.064678053 -137 77 -137 c 0
 106.166902739 -137 121 -127.897872135 121 -110 c 0
 121 -93.9188274052 106.884745616 -84 84 -84 c 0
 71 -84 63 -90 50 -90 c 0
EndSplineSet
EndChar

StartChar: uni0302
Encoding: 770 770 340
Width: 0
GlyphClass: 4
Flags: W
HStem: 635 91<151.5 242.5>
AnchorPoint: "Anchor-4" 197 726 basemark 0
AnchorPoint: "Anchor-4" 197 496 mark 0
AnchorPoint: "Anchor-0" 197 496 mark 0
LayerCount: 2
Fore
SplineSet
0 574 m 1
 147 706 l 2
 162.649630296 719.563012923 178.742097988 726 197 726 c 0
 215.250808064 726 233.188577681 718.824892153 247 706 c 2
 393 574 l 1
 265 574 l 1
 197 635 l 1
 129 574 l 1
 0 574 l 1
EndSplineSet
Substitution2: "'case' Case-Sensitive Forms lookup 15 subtable" uni0302.case
Substitution2: "Single Substitution lookup 7 subtable" uni0302.case
Substitution2: "Single Substitution lookup 6 subtable" uni0302.case
Substitution2: "Single Substitution lookup 4 subtable" uni0302.case
Substitution2: "Single Substitution lookup 3 subtable" uni0302.case
Substitution2: "'aalt' Access All Alternates lookup 0 subtable" uni0302.case
EndChar

StartChar: uni0302.case
Encoding: 1114128 -1 341
Width: 0
GlyphClass: 4
Flags: W
HStem: 731 152
AnchorPoint: "Anchor-4" 197 883 basemark 0
AnchorPoint: "Anchor-4" 197 668 mark 0
AnchorPoint: "Anchor-0" 197 668 mark 0
LayerCount: 2
Fore
SplineSet
0 731 m 1
 147 864 l 1
 164.116573318 876.837429989 180.009517032 883 196 883 c 0
 215.264073605 883 231.188022698 876.825407495 245 864 c 2
 393 731 l 1
 264 731 l 1
 196 792 l 1
 129 731 l 1
 0 731 l 1
EndSplineSet
EndChar

StartChar: uni0326
Encoding: 806 806 342
Width: 0
GlyphClass: 4
Flags: W
HStem: -251 45<52 79.7514>
VStem: 102 118<-186.028 -106.415>
AnchorPoint: "Anchor-3" 110 -251 basemark 0
AnchorPoint: "Anchor-3" 133 0 mark 0
AnchorPoint: "Anchor-1" 133 0 mark 0
LayerCount: 2
Fore
SplineSet
136 -45 m 1
 192 -68 220 -100 220 -141 c 0
 220 -207.892894632 154.163693619 -251 52 -251 c 1
 0 -206 l 1
 63.770679617 -206 102 -183.137367222 102 -145 c 0
 102 -118.410357425 75.6471480338 -95.1578409839 34 -85 c 1
 136 -45 l 1
EndSplineSet
EndChar

StartChar: uni0308
Encoding: 776 776 343
Width: 0
GlyphClass: 4
Flags: W
HStem: 578 141<20.875 120.625 214.875 315.17>
VStem: 0 141<598.375 698.125> 194 140<598.269 698.125>
AnchorPoint: "Anchor-4" 167 719 basemark 0
AnchorPoint: "Anchor-4" 167 496 mark 0
AnchorPoint: "Anchor-0" 167 496 mark 0
LayerCount: 2
Fore
SplineSet
334 648 m 0
 334 608.71699481 303.721819402 578 265 578 c 0
 225.72105084 578 194 609.274275476 194 648 c 0
 194 687 226 719 265 719 c 0
 303.936639994 719 334 688.065238254 334 648 c 0
141 648 m 0
 141 609 110 578 71 578 c 0
 31.7210508402 578 0 609.274275476 0 648 c 0
 0 687 32 719 71 719 c 0
 109.725724524 719 141 687.27894916 141 648 c 0
EndSplineSet
Substitution2: "'case' Case-Sensitive Forms lookup 15 subtable" uni0308.case
Substitution2: "Single Substitution lookup 7 subtable" uni0308.case
Substitution2: "Single Substitution lookup 6 subtable" uni0308.case
Substitution2: "Single Substitution lookup 4 subtable" uni0308.case
Substitution2: "Single Substitution lookup 3 subtable" uni0308.case
Substitution2: "'aalt' Access All Alternates lookup 0 subtable" uni0308.case
EndChar

StartChar: uni0307
Encoding: 775 775 345
Width: 0
GlyphClass: 4
Flags: W
HStem: 578 141<20.875 120.625>
VStem: 0 141<598.375 698.125>
AnchorPoint: "Anchor-4" 71 719 basemark 0
AnchorPoint: "Anchor-4" 71 496 mark 0
AnchorPoint: "Anchor-0" 71 496 mark 0
LayerCount: 2
Fore
SplineSet
141 648 m 0
 141 609 110 578 71 578 c 0
 31.7210508402 578 0 609.274275476 0 648 c 0
 0 687 32 719 71 719 c 0
 109.725724524 719 141 687.27894916 141 648 c 0
EndSplineSet
Substitution2: "'case' Case-Sensitive Forms lookup 15 subtable" uni0307.case
Substitution2: "Single Substitution lookup 7 subtable" uni0307.case
Substitution2: "Single Substitution lookup 6 subtable" uni0307.case
Substitution2: "Single Substitution lookup 4 subtable" uni0307.case
Substitution2: "Single Substitution lookup 3 subtable" uni0307.case
Substitution2: "'aalt' Access All Alternates lookup 0 subtable" uni0307.case
EndChar

StartChar: Euro
Encoding: 8364 8364 347
Width: 673
GlyphClass: 1
Flags: W
HStem: -12 130<326.258 477.027> 231 74<46 95 260 333> 366 74<45 95 262 407> 550 130<325.923 473.87>
VStem: 95 150<305 366>
LayerCount: 2
Fore
SplineSet
651 142 m 1
 602.274920987 44.5498419735 508.637195641 -12 396 -12 c 0
 243.472908918 -12 137.102783388 76.5203441912 104 231 c 1
 6 231 l 1
 46 305 l 1
 95 305 l 1
 95 366 l 1
 5 366 l 1
 45 440 l 1
 105 440 l 1
 140.019212103 592.08343542 248.083322733 680 400 680 c 0
 511.200084165 680 601.084345101 623.822336915 648 525 c 1
 519 478 l 1
 496.045433482 523.909133036 451.111162599 550 395 550 c 0
 335.286047663 550 286.115776988 509.33285884 262 440 c 1
 448 440 l 1
 407 366 l 1
 247 366 l 1
 245.843757465 355.593817188 245 338.296789148 245 325 c 0
 245 318.5 246 311.5 246 305 c 1
 373 305 l 1
 333 231 l 1
 260 231 l 1
 282.769432268 159.721777249 333.352471941 118 397 118 c 0
 455.430887929 118 500.782607852 143.555334242 523 189 c 1
 651 142 l 1
EndSplineSet
EndChar

StartChar: uni2074
Encoding: 8308 8308 348
Width: 448
GlyphClass: 1
Flags: W
HStem: 477 87<158 236 337 395>
VStem: 236 101<403 477 564 659>
DStem2: 55 555 158 564 0.630199 0.776433<71.8984 194.815>
LayerCount: 2
Fore
SplineSet
158 564 m 1
 236 564 l 1
 236 659 l 1
 158 564 l 1
236 403 m 1
 236 477 l 1
 55 477 l 1
 55 555 l 1
 236 778 l 1
 337 778 l 1
 337 564 l 1
 395 564 l 1
 395 477 l 1
 337 477 l 1
 337 403 l 1
 236 403 l 1
EndSplineSet
EndChar

StartChar: gravecomb
Encoding: 768 768 349
Width: 0
GlyphClass: 4
Flags: W
HStem: 574 154<66.0284 99.7188>
VStem: 0 208
AnchorPoint: "Anchor-4" 104 728 basemark 0
AnchorPoint: "Anchor-4" 139 496 mark 0
AnchorPoint: "Anchor-0" 139 496 mark 0
LayerCount: 2
Fore
SplineSet
0 671 m 0
 0 702.277248768 25.2714748948 728 56 728 c 0
 73.3703895398 728 87.2272658344 721.731413105 98 709 c 2
 208 574 l 1
 94 574 l 1
 24 626 24 626 19 629 c 0
 6.30251748946 641.697482511 0 655.629363277 0 671 c 0
EndSplineSet
Substitution2: "'case' Case-Sensitive Forms lookup 15 subtable" gravecomb.case
Substitution2: "Single Substitution lookup 7 subtable" gravecomb.case
Substitution2: "Single Substitution lookup 6 subtable" gravecomb.case
Substitution2: "Single Substitution lookup 4 subtable" gravecomb.case
Substitution2: "Single Substitution lookup 3 subtable" gravecomb.case
Substitution2: "'aalt' Access All Alternates lookup 0 subtable" gravecomb.case
EndChar

StartChar: gravecomb.case
Encoding: 1114131 -1 350
Width: 0
GlyphClass: 4
Flags: W
HStem: 731 154<65.752 99.8594>
VStem: 0 219
AnchorPoint: "Anchor-4" 110 885 basemark 0
AnchorPoint: "Anchor-4" 147 668 mark 0
AnchorPoint: "Anchor-0" 147 668 mark 0
LayerCount: 2
Fore
SplineSet
0 829 m 0
 0 859 26 885 56 885 c 0
 71.1671171204 885 84.108401878 879.891598122 94 870 c 2
 219 731 l 1
 94 731 l 1
 68 750 45 769 20 786 c 1
 5.1084603791 800.891539621 0 811.874729436 0 829 c 0
EndSplineSet
EndChar

StartChar: uni030B
Encoding: 779 779 351
Width: 0
GlyphClass: 4
Flags: W
HStem: 574 153<109.003 114 312.003 317>
AnchorPoint: "Anchor-4" 206 727 basemark 0
AnchorPoint: "Anchor-4" 158 496 mark 0
AnchorPoint: "Anchor-0" 158 496 mark 0
LayerCount: 2
Fore
SplineSet
355 727 m 0
 387 727 411 703 411 671 c 0
 411 652.729551081 404.509496557 638.382122418 392 629 c 2
 317 574 l 1
 203 574 l 1
 312 707 l 2
 323.016229954 720.019180854 338.024991117 727 355 727 c 0
152 727 m 0
 184 727 208 703 208 671 c 0
 208 652.729551081 201.509496557 638.382122418 189 629 c 2
 114 574 l 1
 0 574 l 1
 109 707 l 2
 120.016229954 720.019180854 135.024991117 727 152 727 c 0
EndSplineSet
Substitution2: "'case' Case-Sensitive Forms lookup 15 subtable" uni030B.case
Substitution2: "Single Substitution lookup 7 subtable" uni030B.case
Substitution2: "Single Substitution lookup 6 subtable" uni030B.case
Substitution2: "Single Substitution lookup 4 subtable" uni030B.case
Substitution2: "Single Substitution lookup 3 subtable" uni030B.case
Substitution2: "'aalt' Access All Alternates lookup 0 subtable" uni030B.case
EndChar

StartChar: dotlessi
Encoding: 305 305 353
Width: 301
GlyphClass: 2
Flags: W
HStem: 0 21G<118 271> 381 115<24 118>
VStem: 118 153<0 381>
AnchorPoint: "Anchor-2" 271 10 basechar 0
AnchorPoint: "Anchor-1" 151 0 basechar 0
AnchorPoint: "Anchor-0" 161 496 basechar 0
LayerCount: 2
Fore
SplineSet
118 0 m 1
 118 381 l 1
 24 381 l 1
 24 496 l 1
 271 496 l 1
 271 0 l 1
 118 0 l 1
EndSplineSet
EndChar

StartChar: uni0304
Encoding: 772 772 354
Width: 0
GlyphClass: 4
Flags: W
HStem: 570 98<0 299>
VStem: 0 299<570 668>
AnchorPoint: "Anchor-4" 150 668 basemark 0
AnchorPoint: "Anchor-4" 150 496 mark 0
AnchorPoint: "Anchor-0" 150 496 mark 0
LayerCount: 2
Fore
SplineSet
0 570 m 1
 0 668 l 1
 299 668 l 1
 299 570 l 1
 0 570 l 1
EndSplineSet
Substitution2: "'case' Case-Sensitive Forms lookup 15 subtable" uni0304.case
Substitution2: "Single Substitution lookup 7 subtable" uni0304.case
Substitution2: "Single Substitution lookup 6 subtable" uni0304.case
Substitution2: "Single Substitution lookup 4 subtable" uni0304.case
Substitution2: "Single Substitution lookup 3 subtable" uni0304.case
Substitution2: "'aalt' Access All Alternates lookup 0 subtable" uni0304.case
EndChar

StartChar: uni00B5
Encoding: 181 181 356
Width: 591
GlyphClass: 1
Flags: W
HStem: -161 21G<50 207> -12 118<224.774 319.786> 0 124<520.067 588> 476 20G<50 202 365 517>
VStem: 50 152<-161 -7.98343 128.771 496> 365 152<141.671 496>
LayerCount: 2
Fore
SplineSet
195 -6 m 1xdc
 203.738347639 -48.5994447403 207 -72.7900330841 207 -95 c 2
 207 -161 l 1
 50 -161 l 1
 50 496 l 1
 202 496 l 1
 202 235 l 2
 202 143.05478548 222.968987132 106 275 106 c 0xdc
 332.828245899 106 365 151.75538361 365 234 c 2
 365 496 l 1
 517 496 l 1
 517 163 l 2
 517 137.147518027 531.833097261 124 561 124 c 0
 572.026334039 124 579.178932769 125.589466384 588 130 c 1
 588 6 l 1
 569.619813189 1.40495329717 555.570280217 0 528 0 c 0xbc
 445.436897275 0 397.117360852 22.7386053758 375 72 c 1
 364.758831527 52.4486783692 348.751686779 33.5014458103 326 14 c 0
 305.416970113 -3.64259704628 277.77325265 -12 240 -12 c 0
 224 -12 209 -10 195 -6 c 1xdc
EndSplineSet
EndChar

StartChar: uni0328
Encoding: 808 808 357
Width: 0
GlyphClass: 4
Flags: W
HStem: -174 76<128.644 220.303>
VStem: 0 126<-93.5376 -39.6503>
AnchorPoint: "Anchor-2" 221 0 mark 0
LayerCount: 2
Fore
SplineSet
221 -164 m 1
 206.586196805 -169.147786855 168.253712962 -174 142 -174 c 0
 55.921332687 -174 0 -138.95071402 0 -85 c 0
 0 -46.4052338705 28.4560897518 -16.1706385092 80 0 c 1
 221 0 l 1
 136.585572784 -42.7157342538 126 -50.2927758256 126 -68 c 0
 126 -87.2835894637 142.431829489 -98 172 -98 c 0
 195 -98 206 -91 221 -89 c 1
 221 -164 l 1
EndSplineSet
Substitution2: "'case' Case-Sensitive Forms lookup 15 subtable" uni0328.case
Substitution2: "Single Substitution lookup 7 subtable" uni0328.case
Substitution2: "Single Substitution lookup 6 subtable" uni0328.case
Substitution2: "Single Substitution lookup 4 subtable" uni0328.case
Substitution2: "Single Substitution lookup 3 subtable" uni0328.case
Substitution2: "'aalt' Access All Alternates lookup 0 subtable" uni0328.case
EndChar

StartChar: uni0328.case
Encoding: 1114134 -1 358
Width: 0
GlyphClass: 4
Flags: W
HStem: -174 76<128.644 220.303>
VStem: 0 126<-93.5376 -33.2943>
AnchorPoint: "Anchor-2" 221 0 mark 0
LayerCount: 2
Fore
SplineSet
221 -164 m 1
 206.586196805 -169.147786855 168.253712962 -174 142 -174 c 0
 55.921332687 -174 0 -138.95071402 0 -85 c 0
 0 -46.4052338705 28.4560897518 -16.1706385092 80 0 c 1
 221 0 l 1
 173.706055848 -5.0312706545 126 -39.1787632613 126 -68 c 0
 126 -87.2835894637 142.431829489 -98 172 -98 c 0
 195 -98 206 -91 221 -89 c 1
 221 -164 l 1
EndSplineSet
EndChar

StartChar: uni030A
Encoding: 778 778 359
Width: 0
GlyphClass: 4
Flags: W
HStem: 535 86<92.696 171.494> 715 85<92.5523 171.762>
VStem: 0 85<628.548 707.448> 179 86<628.506 707.613>
AnchorPoint: "Anchor-4" 133 800 basemark 0
AnchorPoint: "Anchor-4" 133 496 mark 0
AnchorPoint: "Anchor-0" 133 496 mark 0
LayerCount: 2
Fore
SplineSet
85 668 m 0
 85 642 106 621 132 621 c 0
 158 621 179 642 179 668 c 0
 179 695 159 715 132 715 c 0
 106 715 85 694 85 668 c 0
265 668 m 0
 265 595 205 535 132 535 c 0
 59.7743034367 535 0 595.227139069 0 668 c 0
 0 741 59 800 132 800 c 0
 205.776645067 800 265 741.22193345 265 668 c 0
EndSplineSet
Substitution2: "'case' Case-Sensitive Forms lookup 15 subtable" uni030A.case
Substitution2: "Single Substitution lookup 7 subtable" uni030A.case
Substitution2: "Single Substitution lookup 6 subtable" uni030A.case
Substitution2: "Single Substitution lookup 4 subtable" uni030A.case
Substitution2: "Single Substitution lookup 3 subtable" uni030A.case
Substitution2: "'aalt' Access All Alternates lookup 0 subtable" uni030A.case
EndChar

StartChar: uni00AD
Encoding: 173 173 362
Width: 350
GlyphClass: 1
Flags: W
HStem: 184 129<24 326>
VStem: 24 302<184 313>
LayerCount: 2
Fore
SplineSet
24 184 m 1
 24 313 l 1
 326 313 l 1
 326 184 l 1
 24 184 l 1
EndSplineSet
EndChar

StartChar: uni0163
Encoding: 355 355 363
Width: 379
GlyphClass: 2
Flags: W
HStem: -187 50<142.057 250.783> 0 124<256 355> 380 116<13 95 247 355>
VStem: 95 152<131.244 380 496 620> 252 94<-134.575 -85.8769>
AnchorPoint: "Anchor-1" 216 -251 basechar 0
AnchorPoint: "Anchor-0" 190 496 basechar 0
LayerCount: 2
Fore
SplineSet
181 -90 m 0
 170.495762408 -90 161 -79.5546613517 161 -68 c 0
 161 -63.3484692283 161.449489743 -61.3257653858 163 -59 c 2
 201 3 l 1
 120.291158249 11.9676490835 95 44.6552781406 95 140 c 2
 95 380 l 1
 13 380 l 1
 13 496 l 1
 95 496 l 1
 95 620 l 1
 247 620 l 1
 247 496 l 1
 355 496 l 1
 355 380 l 1
 247 380 l 1
 247 180 l 2
 247 135.68677862 260.356318423 124 311 124 c 2
 355 124 l 1
 355 0 l 1
 256 0 l 1
 226 -48 l 1
 234.781810215 -46.0484866188 246.664658562 -45 260 -45 c 0
 311.661766996 -45 346 -69.7554703054 346 -107 c 0
 346 -156.066949324 296.893782052 -187 219 -187 c 0
 190.406105819 -187 159.431889114 -182.424263441 131 -174 c 1
 147 -124 l 1
 162.915464568 -131.427216798 189.064678053 -137 208 -137 c 0
 237.166902739 -137 252 -127.897872135 252 -110 c 0
 252 -93.9188274052 237.884745616 -84 215 -84 c 0
 202 -84 194 -90 181 -90 c 0
EndSplineSet
Substitution2: "'locl' Localized Forms in Latin lookup 8 subtable" uni021B
Substitution2: "'aalt' Access All Alternates lookup 0 subtable" uni021B
EndChar

StartChar: tildecomb
Encoding: 771 771 365
Width: 0
GlyphClass: 4
Flags: W
HStem: 569 79<189.99 289.085> 607 82<93.6921 188.378>
AnchorPoint: "Anchor-4" 185 689 basemark 0
AnchorPoint: "Anchor-4" 185 496 mark 0
AnchorPoint: "Anchor-0" 185 496 mark 0
LayerCount: 2
Fore
SplineSet
370 649 m 0x40
 370 609.857058426 312.800118203 569 258 569 c 0x80
 204 569 186 607 132 607 c 0
 109.467502605 607 93.0855627144 594.427813572 89 574 c 1
 0 574 l 1
 11.9550126611 648.718829132 55.7388940398 689 125 689 c 0x40
 184 689 190 648 249 648 c 0x80
 286 648 291 689 328 689 c 0
 353.10008489 689 370 672.904842752 370 649 c 0x40
EndSplineSet
Substitution2: "'case' Case-Sensitive Forms lookup 15 subtable" tildecomb.case
Substitution2: "Single Substitution lookup 7 subtable" tildecomb.case
Substitution2: "Single Substitution lookup 6 subtable" tildecomb.case
Substitution2: "Single Substitution lookup 4 subtable" tildecomb.case
Substitution2: "Single Substitution lookup 3 subtable" tildecomb.case
Substitution2: "'aalt' Access All Alternates lookup 0 subtable" tildecomb.case
EndChar

StartChar: zero.alt1
Encoding: 1114137 -1 367
Width: 652
Flags: W
HStem: -12 113<267.721 396.417> 567 113<266.954 396.792>
VStem: 45 157<247.509 482.84> 462 156<189.039 425.974>
DStem2: 208 246 251 139 0.570817 0.821077<0 292.32>
LayerCount: 2
Fore
SplineSet
454 431 m 1
 251 139 l 1
 272.231677799 113.724193096 299.354299926 101 332 101 c 0
 415.94445321 101 462 183.899984222 462 335 c 0
 462 369.546039172 459.397818621 400.772215724 454 431 c 1
208 246 m 1
 409 534 l 1
 388.115226554 555.879286467 362.166894978 567 332 567 c 0
 247.096539895 567 202 486.173124649 202 334 c 0
 202 301.166453538 203.979565739 272.132822695 208 246 c 1
45 335 m 0
 45 556.092343586 148.076804032 680 332 680 c 0
 515.102912164 680 618 555.875890547 618 335 c 0
 618 115.197511297 513.162858124 -12 332 -12 c 0
 150.020172392 -12 45 114.975609129 45 335 c 0
EndSplineSet
Substitution2: "'tnum' Tabular Numbers lookup 14 subtable" zero
Substitution2: "'aalt' Access All Alternates lookup 0 subtable" zero.tf
Substitution2: "'zero' Slashed Zero lookup 0-1" zero
EndChar

StartChar: copyleft
Encoding: 127279 127279 368
Width: 798
Flags: W
HStem: -12 69<294.468 504.774> 145 85<334.013 442.338> 437 85<339.436 441.512> 610 69<294.451 504.58>
VStem: 53 70<228.616 439.057> 468 112<257.572 410.899> 675 70<228.688 438.774>
LayerCount: 2
Fore
SplineSet
580 334 m 0
 580 216.131114481 511.127016137 145 397 145 c 0
 325.197545987 145 267.088397766 175.84806634 235 231 c 1
 325 264 l 1
 337.867445777 241.23451901 359.675629737 230 391 230 c 0
 439.062518437 230 468 269.084390683 468 334 c 0
 468 398.10393414 438.922358532 437 391 437 c 0
 359.336328526 437 337.11872057 422.302197814 326 394 c 1
 234 428 l 1
 263.042206799 489.088779819 320.111663071 522 397 522 c 0
 506.010638518 522 580 445.989071264 580 334 c 0
123 334 m 0
 123 181 247 57 400 57 c 0
 551.947656872 57 675 180.94726926 675 334 c 0
 675 485.774608956 551.224700952 610 400 610 c 0
 246.722730228 610 123 486.723922227 123 334 c 0
745 334 m 0
 745 143.224587342 590.224038633 -12 400 -12 c 0
 208.223938491 -12 53 142.776607256 53 334 c 0
 53 524.446885586 208.449074498 679 400 679 c 0
 590 679 745 524 745 334 c 0
EndSplineSet
EndChar

StartChar: f_i
Encoding: 64257 64257 369
Width: 616
Flags: W
HStem: 0 21G<87 239 419 572> 380 116<5 87 239 419> 578 180<436.982 553.786> 608 120<246.533 347>
VStem: 87 152<0 380 496 601.877> 406 180<608.982 725.786> 419 153<0 380>
LayerCount: 2
Fore
SplineSet
586 668 m 0xec
 586 618 546 578 496 578 c 0
 446 578 406 618 406 668 c 0
 406 718 446 758 496 758 c 0
 547 758 586 719 586 668 c 0xec
305 608 m 2xda
 250.866552511 608 239 599.909168742 239 563 c 2
 239 496 l 1
 572 496 l 1
 572 0 l 1
 419 0 l 1
 419 380 l 1
 239 380 l 1
 239 0 l 1
 87 0 l 1
 87 380 l 1
 5 380 l 1
 5 496 l 1
 87 496 l 1
 87 577 l 2
 87 688.735785803 136.665330541 728 278 728 c 2
 347 728 l 1
 347 608 l 1
 305 608 l 2xda
EndSplineSet
LCarets2: 1 350
Ligature2: "'liga' Standard Ligatures lookup 0-1" f i
EndChar

StartChar: f_f
Encoding: 64256 64256 370
Width: 699
Flags: W
HStem: 0 21G<87 239 419 571> 380 116<5 87 239 419 571 679> 608 120<246.533 347 578.533 679>
VStem: 87 152<0 380 496 601.877> 419 152<0 380 496 601.877>
LayerCount: 2
Fore
SplineSet
637 608 m 2
 582.866552511 608 571 599.909168742 571 563 c 2
 571 496 l 1
 679 496 l 1
 679 380 l 1
 571 380 l 1
 571 0 l 1
 419 0 l 1
 419 380 l 1
 239 380 l 1
 239 0 l 1
 87 0 l 1
 87 380 l 1
 5 380 l 1
 5 496 l 1
 87 496 l 1
 87 577 l 2
 87 688.735785803 136.665330541 728 278 728 c 2
 347 728 l 1
 347 608 l 1
 305 608 l 2
 250.866552511 608 239 599.909168742 239 563 c 2
 239 496 l 1
 419 496 l 1
 419 577 l 2
 419 688.735785803 468.665330541 728 610 728 c 2
 679 728 l 1
 679 608 l 1
 637 608 l 2
EndSplineSet
LCarets2: 1 348
Ligature2: "'liga' Standard Ligatures lookup 0-1" f f
EndChar

StartChar: f_f_i
Encoding: 64259 64259 371
Width: 933
Flags: W
HStem: 0 21G<87 239 419 571 751 904> 380 116<5 87 239 419 571 751> 578 180<768.982 885.786> 608 120<246.533 347 578.533 679>
VStem: 87 152<0 380 496 601.877> 419 152<0 380 496 601.877> 738 180<608.982 725.786> 751 153<0 380>
LayerCount: 2
Fore
SplineSet
918 668 m 0xee
 918 618 878 578 828 578 c 0
 778 578 738 618 738 668 c 0
 738 718 778 758 828 758 c 0
 879 758 918 719 918 668 c 0xee
637 608 m 2xdd
 582.866552511 608 571 599.909168742 571 563 c 2
 571 496 l 1
 904 496 l 1
 904 0 l 1
 751 0 l 1
 751 380 l 1
 571 380 l 1
 571 0 l 1
 419 0 l 1
 419 380 l 1
 239 380 l 1
 239 0 l 1
 87 0 l 1
 87 380 l 1
 5 380 l 1
 5 496 l 1
 87 496 l 1
 87 577 l 2
 87 688.735785803 136.665330541 728 278 728 c 2
 347 728 l 1
 347 608 l 1
 305 608 l 2
 250.866552511 608 239 599.909168742 239 563 c 2
 239 496 l 1
 419 496 l 1
 419 577 l 2
 419 688.735785803 468.665330541 728 610 728 c 2
 679 728 l 1
 679 608 l 1
 637 608 l 2xdd
EndSplineSet
LCarets2: 2 346 678
Ligature2: "'liga' Standard Ligatures lookup 0-1" f f i
EndChar

StartChar: f_f_l
Encoding: 64260 64260 373
Width: 1013
Flags: W
HStem: 0 124<907.025 1010> 380 116<5 87 239 419 571 679> 608 120<246.533 347 578.533 679> 648 20G<749 901>
VStem: 87 152<0 380 496 601.877> 419 152<0 380 496 601.877> 749 152<134.899 668>
LayerCount: 2
Fore
SplineSet
637 608 m 2xee
 582.866552511 608 571 599.909168742 571 563 c 2
 571 496 l 1
 679 496 l 1
 679 380 l 1
 571 380 l 1
 571 0 l 1
 419 0 l 1
 419 380 l 1
 239 380 l 1
 239 0 l 1
 87 0 l 1
 87 380 l 1
 5 380 l 1
 5 496 l 1
 87 496 l 1
 87 577 l 2
 87 688.735785803 136.665330541 728 278 728 c 2
 347 728 l 1
 347 608 l 1
 305 608 l 2
 250.866552511 608 239 599.909168742 239 563 c 2
 239 496 l 1
 419 496 l 1
 419 577 l 2
 419 688.735785803 468.665330541 728 610 728 c 2
 679 728 l 1
 679 608 l 1
 637 608 l 2xee
901 180 m 2
 901 135.939366907 915.071396712 124 967 124 c 2
 1010 124 l 1
 1010 0 l 1
 913 0 l 2
 784.071415757 0 749 29.939013451 749 140 c 2
 749 668 l 1
 901 668 l 1xde
 901 180 l 2
EndSplineSet
LCarets2: 2 348 716
Ligature2: "'liga' Standard Ligatures lookup 0-1" f f l
EndChar

StartChar: dong
Encoding: 8363 8363 374
Width: 632
InSpiro: 1
Flags: W
HStem: -120 78<58 588> -12 118<230.736 332.898> 0 21G<412.03 563> 392 118<230.524 329.488> 555 78<243 394 546 612>
VStem: 24 158<162.132 340.781> 394 152<428 555 633 698> 401 145<154.216 342.06>
LayerCount: 2
Fore
SplineSet
58 -120 m 1x9c
 58 -42 l 1
 588 -42 l 1
 588 -120 l 1
 58 -120 l 1x9c
  Spiro
    58 -120 v
    58 -42 v
    588 -42 v
    588 -120 v
    0 0 z
  EndSpiro
EndSplineSet
Refer: 319 273 N 1 0 0 1 0 0 2
EndChar

StartChar: uni0237
Encoding: 567 567 410
Width: 259
HStem: -161 120<-70 52.7097> 476 20G<55 207>
VStem: 55 152<-32.9106 496>
AnchorPoint: "Anchor-0" 133 496 basechar 0
LayerCount: 2
Fore
SplineSet
207 -24 m 2
 207 -120.810627621 151.262914218 -161 17 -161 c 2
 -70 -161 l 1
 -70 -41 l 1
 -11 -41 l 2
 42.5790451866 -41 55 -33.660344883 55 -2 c 2
 55 496 l 1
 207 496 l 1
 207 -24 l 2
EndSplineSet
EndChar

StartChar: uni2010
Encoding: 8208 8208 425
Width: 334
Flags: W
HStem: 184 129<24 310>
VStem: 24 286<184 313>
LayerCount: 2
Fore
SplineSet
24 184 m 1
 24 313 l 1
 310 313 l 1
 310 184 l 1
 24 184 l 1
EndSplineSet
EndChar

StartChar: Ldot
Encoding: 319 319 432
Width: 537
HStem: 0 139<202 522> 250 194<326.796 447.564> 648 20G<44 202>
VStem: 44 158<139 668> 290 194<287.149 409.203>
LayerCount: 2
Fore
SplineSet
484 347 m 0
 484 293.718461651 441.716743446 250.994754508 388 250 c 0
 332.220299113 250.996066087 290 292.785545822 290 347 c 0
 290 402.214451143 332.216327711 444 388 444 c 0
 442.216664931 444 484 401.781421858 484 347 c 0
EndSplineSet
Refer: 26 76 N 1 0 0 1 0 0 3
EndChar

StartChar: ldot
Encoding: 320 320 433
Width: 485
Flags: W
HStem: -18 124<204.416 307> 250 194<307.431 428.068> 648 20G<50 202>
VStem: 50 148<113.577 668> 270 195<287.049 407.161>
LayerCount: 2
Fore
SplineSet
465 347 m 0
 465 293 422 250 368 250 c 0
 313.721376135 250 270 293.275239644 270 347 c 0
 270 401.219559921 313.221475543 444 368 444 c 0
 423 444 465 402 465 347 c 0
EndSplineSet
Refer: 52 108 N 1 0 0 1 0 0 2
EndChar

StartChar: uni031B
Encoding: 795 795 455
Width: 372
Flags: W
HStem: 387 114<0 188.531>
VStem: 205 129<520.84 616>
LayerCount: 2
Fore
SplineSet
134 501 m 2
 181.012987901 501 205 527.014083544 205 578 c 2
 205 616 l 1
 334 616 l 1
 334 575 l 2
 334 449.66820175 270.665115253 387 144 387 c 2
 0 387 l 1
 0 501 l 1
 134 501 l 2
EndSplineSet
EndChar

StartChar: Ohorn
Encoding: 416 416 456
Width: 764
Flags: W
HStem: -12 130<296.724 465.764> 540 130<297.905 467.022>
VStem: 35 167<220.515 437.485> 561 168<222.271 425.89> 615 149<690.309 765>
AnchorPoint: "Anchor-0" 382 658 basechar 0
AnchorPoint: "Anchor-1" 382 0 basechar 0
AnchorPoint: "Anchor-2" 688 10 basechar 0
LayerCount: 2
Fore
SplineSet
202 329 m 0xf0
 202 201.84632869 273.130297799 118 381 118 c 0
 489.670831954 118 561 201.613635877 561 329 c 0
 561 456.386364123 489.670831954 540 381 540 c 0
 273.130297799 540 202 456.15367131 202 329 c 0xf0
729 311 m 0
 729 117.971263456 588.96904123 -12 381 -12 c 0
 174.004398807 -12 35 124.99566472 35 329 c 0
 35 533.00433528 174.004398807 670 381 670 c 2
 534 670 l 2
 587.325160321 670 615 696.308180929 615 747 c 2
 615 765 l 1
 764 765 l 1
 764 744 l 2xe8
 764 649.666373755 713.648196738 585.887422956 614 554 c 1
 688.243919263 493.802227625 729 407.682857024 729 311 c 0
EndSplineSet
EndChar

StartChar: ohorn
Encoding: 417 417 457
Width: 593
Flags: W
HStem: -12 118<222.596 351.104> 382 118<222.705 353.624>
VStem: 24 155<153.424 337.766> 394 155<153.269 339.702> 474 129<516.426 595>
AnchorPoint: "Anchor-0" 287 486 basechar 0
AnchorPoint: "Anchor-1" 287 0 basechar 0
AnchorPoint: "Anchor-2" 516 10 basechar 0
LayerCount: 2
Fore
SplineSet
549 250 m 0xf0
 549 91 446 -12 287 -12 c 0
 127.19651213 -12 24 90.8041299546 24 250 c 0
 24 403.020913178 126.021999337 500 287 500 c 2
 403 500 l 2
 450.012987901 500 474 526.014083544 474 577 c 2
 474 595 l 1
 603 595 l 1
 603 574 l 2xe8
 603 483.833256528 567.870908225 428.964960804 498 410 c 1
 531.395492904 367.496645395 549 312.266819211 549 250 c 0xf0
287 106 m 0
 356.923631362 106 394 155.897169009 394 250 c 0xf0
 394 336.177658753 356.856132474 382 287 382 c 0
 216.31783348 382 179 336.389314636 179 250 c 0
 179 156.833262047 217.124946535 106 287 106 c 0
EndSplineSet
EndChar

StartChar: Uhorn
Encoding: 431 431 458
Width: 690
Flags: W
HStem: -12 129<250.154 413.255> 648 20G<44 202>
VStem: 44 158<169.575 668> 461 158<169.839 580.831> 619 129<685.465 765>
AnchorPoint: "Anchor-0" 332 668 basechar 0
AnchorPoint: "Anchor-1" 332 0 basechar 0
AnchorPoint: "Anchor-2" 440 0 basechar 0
LayerCount: 2
Fore
SplineSet
619 292 m 2xf0
 619 80.0766476345 532.072375424 -12 332 -12 c 0
 130.605055183 -12 44 79.4164471373 44 292 c 2
 44 668 l 1
 202 668 l 1
 202 279 l 2
 202 160.30746174 236.752901396 117 332 117 c 0
 426.380070036 117 461 160.476191118 461 279 c 2
 461 668 l 1xf0
 548 668 l 2
 595.316984534 668 619 694.351524251 619 747 c 2
 619 765 l 1
 748 765 l 1
 748 744 l 2xe8
 748 645.333050368 705.291772899 590.044105206 619 577 c 1
 619 292 l 2xf0
EndSplineSet
EndChar

StartChar: uhorn
Encoding: 432 432 459
Width: 590
Flags: W
HStem: -12 118<161.445 310.643> 0 21G<381 519> 476 20G<50 202>
VStem: 50 152<129.234 496> 366 153<134.632 415.089> 514 129<516.33 595>
AnchorPoint: "Anchor-0" 285 496 basechar 0
AnchorPoint: "Anchor-1" 285 0 basechar 0
AnchorPoint: "Anchor-2" 519 0 basechar 0
LayerCount: 2
Fore
SplineSet
366 70 m 1x78
 332.213508099 12.3642196991 289.427561311 -12 222 -12 c 0
 100.890449282 -12 50 50.1336880764 50 198 c 2
 50 496 l 1
 202 496 l 1
 202 219 l 2
 202 137.93588326 224.044238003 106 280 106 c 0
 340.333830847 106 366 144.49925373 366 235 c 2
 366 496 l 1xb8
 433 496 l 2
 487 496 514 523 514 577 c 2
 514 595 l 1
 643 595 l 1
 643 574 l 2xb4
 643 483.61248893 601.646434251 428.919063262 519 410 c 1
 519 0 l 1
 387 0 l 1
 366 70 l 1x78
EndSplineSet
EndChar

StartChar: dotbelowcomb
Encoding: 803 803 544
Width: 205
Flags: W
HStem: -248 180<30.982 147.786>
VStem: 0 180<-217.018 -100.214>
AnchorPoint: "Anchor-3" 90 -248 basemark 0
AnchorPoint: "Anchor-3" 90 0 mark 0
AnchorPoint: "Anchor-1" 90 0 mark 0
LayerCount: 2
Fore
SplineSet
180 -158 m 0
 180 -208 140 -248 90 -248 c 0
 40 -248 0 -208 0 -158 c 0
 0 -108 40 -68 90 -68 c 0
 141 -68 180 -107 180 -158 c 0
EndSplineSet
EndChar

StartChar: hookabovecomb
Encoding: 777 777 545
Width: 157
Flags: W
HStem: 669 76<-13.3034 79.1879>
VStem: 81 106<597.736 664.54>
AnchorPoint: "Anchor-4" 81 744 basemark 0
AnchorPoint: "Anchor-4" 67 496 mark 0
AnchorPoint: "Anchor-0" 67 496 mark 0
LayerCount: 2
Fore
SplineSet
-14 735 m 1
 0.41380319498 740.147786855 38.7462870377 745 65 745 c 0
 139.011236326 745 187 709.99180355 187 656 c 0
 187 617.581234304 165.58801136 587.247583731 127 571 c 1
 36 571 l 1
 68.5351902222 600.485016139 81 619.320728692 81 639 c 0
 81 658.283589464 64.5681705111 669 35 669 c 0
 12 669 1 662 -14 660 c 1
 -14 735 l 1
EndSplineSet
EndChar

StartChar: longs
Encoding: 383 383 546
Width: 367
Flags: W
HStem: 0 21G<87 239> 380 116<5 87> 608 120<246.533 347>
VStem: 87 152<0 380 496 601.877>
AnchorPoint: "Anchor-0" 80 668 basechar 0
LayerCount: 2
Fore
SplineSet
305 608 m 2
 250.866552511 608 239 599.909168742 239 563 c 2
 239 0 l 1
 87 0 l 1
 87 380 l 1
 5 380 l 1
 5 496 l 1
 87 496 l 1
 87 577 l 2
 87 688.735785803 136.665330541 728 278 728 c 2
 347 728 l 1
 347 608 l 1
 305 608 l 2
EndSplineSet
EndChar

StartChar: uniFFFD
Encoding: 65533 65533 547
Width: 527
Flags: W
HStem: 0 21<79 449> 680 20<78 449>
VStem: 50 21<49 650> 457 20<47 652>
DStem2: 78 680 71 650 0.513698 -0.857971<22.1432 360.147 396.696 737.787> 71 49 79 21 0.513896 0.857853<0 339.381 374.897 715.649>
LayerCount: 2
Fore
SplineSet
79 21 m 1
 449 21 l 1
 264 329 l 1
 79 21 l 1
71 49 m 1
 251 350 l 1
 71 650 l 1
 71 49 l 1
457 47 m 1
 457 652 l 1
 276 350 l 1
 457 47 l 1
263 371 m 1
 449 680 l 1
 78 680 l 1
 263 371 l 1
50 0 m 1
 50 700 l 1
 477 700 l 1
 477 0 l 1
 50 0 l 1
EndSplineSet
EndChar

StartChar: uni0256
Encoding: 598 598 576
Width: 610
Flags: W
HStem: -161 124<552.416 675> -12 118<230.736 332.898> 392 118<230.524 329.488> 648 20G<394 546>
VStem: 24 158<162.132 340.781> 394 152
AnchorPoint: "Anchor-1" 243 0 basechar 0
AnchorPoint: "Anchor-0" 240 496 basechar 0
LayerCount: 2
Fore
SplineSet
546 19 m 2
 546 -25.0606330928 560.071396712 -37 612 -37 c 2
 675 -37 l 1
 675 -161 l 1
 558 -161 l 2
 437.609745836 -161 398 -121.885375986 398 -3 c 2
 398 67 l 1
 361.018564621 16.0255890719 306.031649353 -12 243 -12 c 0
 111.051132092 -12 24 92.9383510145 24 252 c 0
 24 408.842500302 109.866249743 510 243 510 c 0
 305.537582726 510 365.246254501 477.575423275 394 428 c 1
 394 668 l 1
 546 668 l 1
 546 19 l 2
182 252 m 0
 182 165.363314419 226.725784836 106 292 106 c 0
 361.18192925 106 401 158.238386397 401 249 c 0
 401 339.261642525 360.800832414 392 292 392 c 0
 226 392 182 336 182 252 c 0
EndSplineSet
EndChar

StartChar: Eng
Encoding: 330 330 578
Width: 700
Flags: W
HStem: -161 124<395 497.488> 0 21G<44 196> 648 20G<44 255.84 503 656>
VStem: 44 152<0 476> 503 153<-29.3956 0 192 668>
DStem2: 245 668 196 476 0.476521 -0.879163<145.45 541.424>
AnchorPoint: "Anchor-1" 322 0 basechar 0
AnchorPoint: "Anchor-0" 365 668 basechar 0
LayerCount: 2
Fore
SplineSet
44 0 m 1
 44 668 l 1
 245 668 l 1
 503 192 l 1
 503 668 l 1
 656 668 l 1
 656 -3 l 2
 656 -121.750158428 616.253324991 -161 496 -161 c 2
 395 -161 l 1
 395 -37 l 1
 437 -37 l 2
 482.094654783 -37 498.008367878 -27.9414248538 502 0 c 1
 454 0 l 1
 196 476 l 1
 196 0 l 1
 44 0 l 1
EndSplineSet
EndChar

StartChar: eng
Encoding: 331 331 579
Width: 572
Flags: W
HStem: -161 124<261 364.046> 0 21G<50 202> 392 118<266.514 414.006> 476 20G<50 188.758>
VStem: 50 152<0 356.09> 370 152<-29.3956 370.297>
AnchorPoint: "Anchor-1" 286 0 basechar 0
AnchorPoint: "Anchor-0" 305 496 basechar 0
LayerCount: 2
Fore
SplineSet
522 302 m 10xec
 522 -3 l 2
 522 -121.750158428 482.253324991 -161 362 -161 c 2
 261 -161 l 1
 261 -37 l 1
 304 -37 l 2
 355.928603288 -37 370 -25.0606330928 370 19 c 2
 370 264 l 2
 370 361.842184079 352.093796797 392 294 392 c 0xec
 231.773512396 392 202 347.663356541 202 255 c 2
 202 0 l 1
 50 0 l 1
 50 496 l 1
 183 496 l 1xdc
 202 430 l 1
 232.067720616 479.11061034 291.143678342 510 355 510 c 0
 473.012019565 510 522 448.985030357 522 302 c 10xec
EndSplineSet
EndChar

StartChar: uni0272
Encoding: 626 626 580
Width: 572
Flags: W
HStem: -161 124<-59 44.0456> 0 21G<370 522> 392 118<266.514 414.006> 476 20G<50 188.758>
VStem: 50 152<-29.3956 356.09> 370 152<0 370.297>
AnchorPoint: "Anchor-1" 286 0 basechar 0
AnchorPoint: "Anchor-0" 305 496 basechar 0
LayerCount: 2
Fore
SplineSet
294 392 m 0xec
 231.773512396 392 202 347.663356541 202 255 c 2
 202 -3 l 2
 202 -121.750158428 162.253324991 -161 42 -161 c 2
 -59 -161 l 1
 -59 -37 l 1
 -16 -37 l 2
 35.9286032879 -37 50 -25.0606330928 50 19 c 2
 50 496 l 1
 183 496 l 1xdc
 202 430 l 1
 232.067720616 479.11061034 291.143678342 510 355 510 c 0
 473.012019565 510 522 448.985030357 522 302 c 2
 522 0 l 1
 370 0 l 1
 370 264 l 2
 370 361.842184079 352.093796797 392 294 392 c 0xec
EndSplineSet
EndChar

StartChar: uni019D
Encoding: 413 413 581
Width: 700
Flags: W
HStem: -161 124<-65 38.0456> 0 21G<443.16 656> 648 20G<44 255.84 503 656>
VStem: 44 152<-29.3956 476> 503 153<192 668>
DStem2: 245 668 196 476 0.476521 -0.879163<145.45 541.424>
AnchorPoint: "Anchor-1" 322 0 basechar 0
AnchorPoint: "Anchor-0" 365 668 basechar 0
LayerCount: 2
Fore
SplineSet
44 19 m 2
 44 668 l 1
 245 668 l 1
 503 192 l 1
 503 668 l 1
 656 668 l 1
 656 0 l 1
 454 0 l 1
 196 476 l 1
 196 -3 l 2
 196 -121.750158428 156.253324991 -161 36 -161 c 2
 -65 -161 l 1
 -65 -37 l 1
 -22 -37 l 2
 29.9286032879 -37 44 -25.0606330928 44 19 c 2
EndSplineSet
EndChar

StartChar: uni019E
Encoding: 414 414 582
Width: 572
Flags: W
HStem: -161 21G<370 522> 0 21G<50 202> 392 118<266.514 414.006> 476 20G<50 188.758>
VStem: 50 152<0 356.09> 370 152<-161 370.297>
AnchorPoint: "Anchor-1" 286 0 basechar 0
AnchorPoint: "Anchor-0" 305 496 basechar 0
LayerCount: 2
Fore
SplineSet
294 392 m 0xec
 231.773512396 392 202 347.663356541 202 255 c 2
 202 0 l 1
 50 0 l 1
 50 496 l 1
 183 496 l 1xdc
 202 430 l 1
 232.067720616 479.11061034 291.143678342 510 355 510 c 0
 473.012019565 510 522 448.985030357 522 302 c 2
 522 -161 l 1
 370 -161 l 1
 370 264 l 2
 370 361.842184079 352.093796797 392 294 392 c 0xec
EndSplineSet
EndChar

StartChar: uni01EA
Encoding: 490 490 583
Width: 764
HStem: -174 76<388.644 480.303> 550 130<296.724 465.783>
VStem: 35 167<225.107 444.571> 260 126<-93.5376 -39.3381> 561 168<222.171 444.606>
LayerCount: 2
Fore
SplineSet
481 -164 m 1
 466.586196805 -169.147786855 428.253712962 -174 402 -174 c 0
 315.921332687 -174 260 -138.95071402 260 -85 c 0
 260 -51.5493880039 280.515070899 -24.775481916 319 -8 c 1
 145.252247142 16.9637575946 35 149.73230873 35 334 c 0
 35 541 174 680 381 680 c 0
 589.098275792 680 729 540.902308689 729 334 c 0
 729 165.214798103 634.196344212 38.0484485718 480 -0 c 1
 398.711895173 -40.6440524135 386 -49.8398914748 386 -68 c 0
 386 -87.2835894637 402.431829489 -98 432 -98 c 0
 455 -98 466 -91 481 -89 c 1
 481 -164 l 1
202 334 m 0
 202 203.837945347 273.134223228 118 381 118 c 0
 489.66688771 118 561 203.599734748 561 334 c 0
 561 464.400265252 489.66688771 550 381 550 c 0
 273.134223228 550 202 464.162054653 202 334 c 0
EndSplineSet
EndChar

StartChar: uni01EB
Encoding: 491 491 584
Width: 573
HStem: -174 76<282.644 374.303> 392 118<222.205 351.22>
VStem: 24 155<152.248 346.026> 154 126<-93.5376 -39.409> 394 155<152.445 345.836>
LayerCount: 2
Fore
SplineSet
375 -164 m 1xd8
 360.586196805 -169.147786855 322.253712962 -174 296 -174 c 0
 209.921332687 -174 154 -138.95071402 154 -85 c 0xd8
 154 -50.153683 176.813549707 -22.0754679756 219 -5 c 1
 97.2440284078 19.9499941787 24 115.730646712 24 250 c 0xe8
 24 409.081758308 126.082682943 510 287 510 c 0
 447.111555556 510 549 408.889329941 549 250 c 0
 549 124.428234549 484.377008444 32.1096751837 374 -0 c 1
 293.248002677 -39.8895408463 280 -49.4732023573 280 -68 c 0
 280 -87.2835894637 296.431829489 -98 326 -98 c 0
 349 -98 360 -91 375 -89 c 1
 375 -164 l 1xd8
287 106 m 0
 356.923631362 106 394 155.897169009 394 250 c 0
 394 342.449123422 356.662367649 392 287 392 c 0
 216.133741139 392 179 343.176007021 179 250 c 0xe8
 179 156.833262047 217.124946535 106 287 106 c 0
EndSplineSet
EndChar
